<svg width="1562" height="345" viewBox="0 0 1562 345" fill="none" xmlns="http://www.w3.org/2000/svg">
<path d="M6.12808 2.64704H48.3214V100.398H115.716V134H6.12808V2.64704ZM133.47 2.64704H247.068V34.1488H175.664V52.2862H236.758V82.4516H175.664V102.498H248.404V134H133.47V2.64704ZM346.858 36.249V134H304.664V36.249H261.516V2.64704H389.815V36.249H346.858ZM422.21 70.8055H404.072L417.628 36.058H404.072V2.64704H439.584V34.1488L422.21 70.8055ZM517.349 0.355992C534.15 0.355992 547.96 3.79255 558.779 10.6657C569.598 17.4115 575.134 27.4666 575.389 40.831V43.1221H535.868V42.3584C535.868 38.54 534.468 35.358 531.668 32.8124C528.868 30.2668 524.604 28.994 518.877 28.994C513.276 28.994 508.949 29.8213 505.894 31.476C502.967 33.1306 501.503 35.1671 501.503 37.5854C501.503 41.022 503.539 43.5676 507.612 45.2222C511.685 46.8768 518.24 48.5951 527.277 50.377C537.841 52.5408 546.496 54.8318 553.242 57.2502C560.115 59.5412 566.097 63.3596 571.189 68.7054C576.28 74.0511 578.889 81.3061 579.016 90.4702C579.016 105.998 573.734 117.517 563.17 125.027C552.733 132.536 538.732 136.291 521.168 136.291C500.676 136.291 484.702 132.854 473.247 125.981C461.919 119.108 456.255 106.953 456.255 89.5156H496.157C496.157 96.1342 497.875 100.589 501.312 102.88C504.748 105.044 510.094 106.126 517.349 106.126C522.695 106.126 527.086 105.553 530.523 104.407C534.087 103.262 535.868 100.907 535.868 97.3434C535.868 94.1614 533.896 91.8067 529.95 90.2793C526.132 88.6247 519.831 86.9064 511.049 85.1245C500.357 82.8334 491.511 80.4788 484.511 78.0604C477.511 75.5148 471.401 71.3782 466.183 65.6506C460.964 59.923 458.355 52.159 458.355 42.3584C458.355 27.9758 463.892 17.4115 474.965 10.6657C486.166 3.79255 500.294 0.355992 517.349 0.355992ZM68.7498 208.356C88.2237 208.356 103.625 213.256 114.952 223.057C126.28 232.73 131.944 246.604 131.944 264.677H91.6602C91.6602 257.041 89.6238 250.995 85.5508 246.54C81.6051 242.085 75.9412 239.858 68.5589 239.858C60.0312 239.858 53.7308 242.531 49.6578 247.876C45.7122 253.222 43.7393 260.668 43.7393 270.214V282.433C43.7393 291.852 45.7122 299.298 49.6578 304.771C53.7308 310.116 59.9039 312.789 68.1771 312.789C76.323 312.789 82.4961 310.689 86.6963 306.489C90.8966 302.289 92.9967 296.37 92.9967 288.733H131.944C131.944 306.68 126.408 320.426 115.334 329.972C104.388 339.518 88.8601 344.291 68.7498 344.291C46.3486 344.291 29.3567 338.563 17.7742 327.108C6.319 315.653 0.5914 298.725 0.5914 276.324C0.5914 253.922 6.319 236.994 17.7742 225.539C29.3567 214.084 46.3486 208.356 68.7498 208.356ZM220.02 208.356C242.675 208.356 260.176 214.147 272.523 225.73C284.869 237.312 291.042 254.177 291.042 276.324C291.042 298.47 284.869 315.335 272.523 326.917C260.176 338.5 242.675 344.291 220.02 344.291C197.364 344.291 179.863 338.563 167.517 327.108C155.298 315.526 149.188 298.598 149.188 276.324C149.188 254.05 155.298 237.185 167.517 225.73C179.863 214.147 197.364 208.356 220.02 208.356ZM220.02 239.858C210.983 239.858 204.11 242.594 199.4 248.067C194.691 253.54 192.336 260.923 192.336 270.214V282.433C192.336 291.724 194.691 299.107 199.4 304.58C204.11 310.053 210.983 312.789 220.02 312.789C229.057 312.789 235.93 310.053 240.639 304.58C245.476 299.107 247.894 291.724 247.894 282.433V270.214C247.894 260.923 245.476 253.54 240.639 248.067C235.93 242.594 229.057 239.858 220.02 239.858ZM313.763 210.647H355.956V308.398H423.351V342H313.763V210.647ZM441.105 210.647H483.298V308.398H550.693V342H441.105V210.647ZM656.461 342L650.925 323.481H604.913L599.376 342H556.228L604.149 210.647H653.216L701.137 342H656.461ZM613.695 294.079H642.142L628.396 247.304H627.632L613.695 294.079ZM804.485 210.647C811.104 210.647 817.15 212.047 822.623 214.847C828.223 217.52 832.614 221.339 835.796 226.302C839.106 231.266 840.76 236.803 840.76 242.913C840.76 259.077 833.442 269.259 818.804 273.46V274.223C835.478 278.042 843.815 288.988 843.815 307.062C843.815 313.935 842.097 320.044 838.66 325.39C835.351 330.608 830.769 334.681 824.914 337.609C819.059 340.536 812.631 342 805.631 342H717.044V210.647H804.485ZM759.237 261.814H788.257C791.057 261.814 793.348 260.859 795.13 258.95C797.04 256.913 797.994 254.431 797.994 251.504V249.595C797.994 246.795 797.04 244.44 795.13 242.531C793.221 240.494 790.93 239.476 788.257 239.476H759.237V261.814ZM759.237 311.453H791.312C794.112 311.453 796.403 310.498 798.185 308.589C800.094 306.553 801.049 304.071 801.049 301.143V299.234C801.049 296.306 800.094 293.888 798.185 291.979C796.403 289.942 794.112 288.924 791.312 288.924H759.237V311.453ZM930.936 208.356C953.591 208.356 971.092 214.147 983.439 225.73C995.785 237.312 1001.96 254.177 1001.96 276.324C1001.96 298.47 995.785 315.335 983.439 326.917C971.092 338.5 953.591 344.291 930.936 344.291C908.28 344.291 890.779 338.563 878.433 327.108C866.214 315.526 860.104 298.598 860.104 276.324C860.104 254.05 866.214 237.185 878.433 225.73C890.779 214.147 908.28 208.356 930.936 208.356ZM930.936 239.858C921.899 239.858 915.026 242.594 910.316 248.067C905.607 253.54 903.252 260.923 903.252 270.214V282.433C903.252 291.724 905.607 299.107 910.316 304.58C915.026 310.053 921.899 312.789 930.936 312.789C939.972 312.789 946.846 310.053 951.555 304.58C956.392 299.107 958.81 291.724 958.81 282.433V270.214C958.81 260.923 956.392 253.54 951.555 248.067C946.846 242.594 939.972 239.858 930.936 239.858ZM1149.35 250.931C1149.35 258.95 1147.19 266.205 1142.86 272.696C1138.53 279.187 1132.23 283.96 1123.96 287.015L1153.17 342H1105.82L1082.53 294.079H1066.87V342H1024.68V210.647H1105.06C1114.47 210.647 1122.49 212.493 1129.11 216.184C1135.86 219.748 1140.89 224.648 1144.19 230.885C1147.63 236.994 1149.35 243.676 1149.35 250.931ZM1106.39 252.649C1106.39 249.213 1105.25 246.349 1102.96 244.058C1100.66 241.767 1097.86 240.621 1094.56 240.621H1066.87V264.868H1094.56C1097.86 264.868 1100.66 263.723 1102.96 261.432C1105.25 259.013 1106.39 256.086 1106.39 252.649ZM1261.29 342L1255.75 323.481H1209.74L1204.2 342H1161.06L1208.98 210.647H1258.04L1305.97 342H1261.29ZM1218.52 294.079H1246.97L1233.22 247.304H1232.46L1218.52 294.079ZM1384.24 244.249V342H1342.05V244.249H1298.9V210.647H1427.2V244.249H1384.24ZM1446.42 210.647H1560.02V242.149H1488.61V260.286H1549.71V290.452H1488.61V310.498H1561.35V342H1446.42V210.647Z" fill="url(#paint0_linear_562_314)"/>
<defs>
<linearGradient id="paint0_linear_562_314" x1="211.758" y1="237.931" x2="1461.35" y2="204.908" gradientUnits="userSpaceOnUse">
<stop stop-color="white"/>
<stop offset="1" stop-color="white" stop-opacity="0.34"/>
</linearGradient>
</defs>
</svg>
