<svg width="1375" height="401" viewBox="0 0 1375 401" fill="none" xmlns="http://www.w3.org/2000/svg">
<path d="M14.8156 36.6443H57.0098V134.397H124.406V168H14.8156V36.6443ZM191.61 64.901C209.302 64.901 223.176 69.4196 233.231 78.4566C243.414 87.3664 248.505 100.413 248.505 117.596C248.505 134.779 243.414 147.889 233.231 156.926C223.176 165.836 209.302 170.291 191.61 170.291C173.917 170.291 160.044 165.836 149.988 156.926C139.933 148.017 134.905 134.907 134.905 117.596C134.905 100.286 139.933 87.1755 149.988 78.2657C160.044 69.3559 173.917 64.901 191.61 64.901ZM191.61 90.6758C179.136 90.6758 172.899 97.8672 172.899 112.25V123.133C172.899 137.389 179.136 144.516 191.61 144.516C204.211 144.516 210.511 137.389 210.511 123.133V112.25C210.511 97.8672 204.211 90.6758 191.61 90.6758ZM318.955 64.901C335.501 64.901 348.866 68.465 359.049 75.5928C369.358 82.5933 374.513 93.3487 374.513 107.859H337.665C337.665 96.4035 331.428 90.6758 318.955 90.6758C306.481 90.6758 300.244 97.8672 300.244 112.25V123.133C300.244 137.389 306.735 144.516 319.718 144.516C332.701 144.516 339.192 138.661 339.192 126.951H374.513C374.513 141.589 369.358 152.472 359.049 159.599C348.866 166.727 335.501 170.291 318.955 170.291C301.262 170.291 287.388 165.836 277.333 156.926C267.278 148.017 262.25 134.907 262.25 117.596C262.25 100.286 267.278 87.1755 277.333 78.2657C287.388 69.3559 301.262 64.901 318.955 64.901ZM444.008 64.901C459.409 64.901 471.947 67.5103 481.62 72.7289C491.294 77.8202 496.13 86.1572 496.13 97.74V137.07C496.13 139.234 496.64 141.016 497.658 142.416C498.676 143.816 500.204 144.516 502.24 144.516H509.113V166.473C508.731 166.727 507.713 167.173 506.059 167.809C504.531 168.318 502.304 168.827 499.376 169.336C496.449 169.973 493.076 170.291 489.257 170.291C481.875 170.291 475.765 169.209 470.929 167.045C466.219 164.754 462.973 161.636 461.191 157.69C456.355 161.509 450.945 164.563 444.963 166.854C438.981 169.146 431.98 170.291 423.961 170.291C400.287 170.291 388.449 160.872 388.449 142.034C388.449 132.234 391.059 124.788 396.277 119.696C401.623 114.478 409.26 110.914 419.188 109.004C429.116 107.095 442.099 106.141 458.137 106.141V101.177C458.137 97.2308 456.736 94.2397 453.936 92.2032C451.263 90.1666 447.763 89.1484 443.435 89.1484C439.49 89.1484 436.053 89.8484 433.126 91.2486C430.325 92.6487 428.925 94.8761 428.925 97.9309V98.6946H391.504C391.377 98.0582 391.313 97.1672 391.313 96.0217C391.313 86.4755 395.832 78.9021 404.869 73.3017C414.033 67.7013 427.08 64.901 444.008 64.901ZM458.137 124.087C447.318 124.087 439.299 125.297 434.08 127.715C428.989 130.006 426.443 133.125 426.443 137.07C426.443 143.434 430.771 146.617 439.426 146.617C444.39 146.617 448.718 145.28 452.409 142.607C456.227 139.934 458.137 136.625 458.137 132.679V124.087ZM585.557 67.1921V92.9669H564.174V131.343C564.174 135.925 564.938 139.298 566.465 141.462C567.992 143.498 570.793 144.516 574.866 144.516H585.557V166.854C582.503 167.873 578.557 168.7 573.72 169.336C568.883 169.973 564.683 170.291 561.119 170.291C549.918 170.291 541.263 168.255 535.154 164.182C529.171 160.108 526.18 153.172 526.18 143.371V92.9669H512.052V67.1921H527.708L535.917 36.6443H564.174V67.1921H585.557ZM604.523 55.3548V29.5801H642.517V55.3548H604.523ZM604.523 168V67.1921H642.517V168H604.523ZM718.888 64.901C736.58 64.901 750.454 69.4196 760.509 78.4566C770.692 87.3664 775.783 100.413 775.783 117.596C775.783 134.779 770.692 147.889 760.509 156.926C750.454 165.836 736.58 170.291 718.888 170.291C701.196 170.291 687.322 165.836 677.267 156.926C667.211 148.017 662.184 134.907 662.184 117.596C662.184 100.286 667.211 87.1755 677.267 78.2657C687.322 69.3559 701.196 64.901 718.888 64.901ZM718.888 90.6758C706.414 90.6758 700.178 97.8672 700.178 112.25V123.133C700.178 137.389 706.414 144.516 718.888 144.516C731.489 144.516 737.79 137.389 737.79 123.133V112.25C737.79 97.8672 731.489 90.6758 718.888 90.6758ZM863.607 64.901C875.317 64.901 884.1 68.1467 889.955 74.6382C895.81 81.1296 898.737 90.4849 898.737 102.704V168H860.743V107.286C860.743 102.959 859.598 99.5219 857.307 96.9763C855.143 94.3033 852.024 92.9669 847.951 92.9669C843.242 92.9669 839.423 94.4943 836.496 97.549C833.568 100.604 832.105 104.359 832.105 108.814V168H794.111V67.1921H825.231L827.713 82.466C831.659 77.1202 836.814 72.8562 843.178 69.6741C849.67 66.4921 856.479 64.901 863.607 64.901Z" fill="url(#paint0_linear_685_722)"/>
<path d="M182.66 361V229.644H224.855V361H182.66ZM386.123 257.901C397.578 257.901 406.17 261.21 411.897 267.829C417.625 274.321 420.489 283.612 420.489 295.704V361H382.495V300.286C382.495 295.959 381.413 292.522 379.249 289.976C377.213 287.303 374.285 285.967 370.467 285.967C366.012 285.967 362.384 287.494 359.584 290.549C356.784 293.604 355.384 297.359 355.384 301.814V361H317.39V300.286C317.39 295.959 316.308 292.522 314.144 289.976C312.108 287.303 309.18 285.967 305.362 285.967C300.907 285.967 297.279 287.494 294.479 290.549C291.679 293.604 290.279 297.359 290.279 301.814V361H252.285V260.192H283.406L285.888 275.275C289.706 269.929 294.734 265.729 300.971 262.674C307.335 259.492 314.017 257.901 321.018 257.901C336.164 257.901 346.347 263.692 351.565 275.275C355.511 269.929 360.539 265.729 366.648 262.674C372.885 259.492 379.377 257.901 386.123 257.901ZM509.65 257.901C523.27 257.901 533.771 262.356 541.153 271.266C548.535 280.176 552.227 293.349 552.227 310.787C552.227 328.097 548.535 341.208 541.153 350.117C533.771 358.9 523.27 363.291 509.65 363.291C497.94 363.291 488.522 359.473 481.394 351.836V398.612H443.4V260.192H474.33L477.575 274.511C484.958 263.438 495.649 257.901 509.65 257.901ZM497.813 285.967C492.213 285.967 488.012 287.94 485.212 291.886C482.412 295.831 481.012 300.986 481.012 307.35V313.651C481.012 320.015 482.412 325.234 485.212 329.307C488.012 333.252 492.213 335.225 497.813 335.225C508.759 335.225 514.233 328.67 514.233 315.56V305.441C514.233 292.458 508.759 285.967 497.813 285.967ZM622.676 257.901C640.368 257.901 654.242 262.42 664.297 271.457C674.48 280.366 679.571 293.413 679.571 310.596C679.571 327.779 674.48 340.889 664.297 349.926C654.242 358.836 640.368 363.291 622.676 363.291C604.984 363.291 591.11 358.836 581.055 349.926C570.999 341.017 565.972 327.907 565.972 310.596C565.972 293.286 570.999 280.176 581.055 271.266C591.11 262.356 604.984 257.901 622.676 257.901ZM622.676 283.676C610.202 283.676 603.965 290.867 603.965 305.25V316.133C603.965 330.389 610.202 337.516 622.676 337.516C635.277 337.516 641.577 330.389 641.577 316.133V305.25C641.577 290.867 635.277 283.676 622.676 283.676ZM759.185 257.71C762.113 257.71 764.722 258.092 767.013 258.856C769.304 259.492 770.45 259.874 770.45 260.001V291.886H758.231C750.339 291.886 744.611 293.922 741.047 297.995C737.611 302.068 735.892 308.114 735.892 316.133V361H697.899V260.192H729.019L731.501 275.466C733.792 269.611 737.42 265.22 742.384 262.292C747.348 259.238 752.948 257.71 759.185 257.71ZM859.447 260.192V285.967H838.064V324.343C838.064 328.925 838.827 332.298 840.355 334.462C841.882 336.498 844.682 337.516 848.755 337.516H859.447V359.854C856.392 360.873 852.447 361.7 847.61 362.336C842.773 362.973 838.573 363.291 835.009 363.291C823.808 363.291 815.153 361.255 809.043 357.182C803.061 353.108 800.07 346.172 800.07 336.371V285.967H785.941V260.192H801.597L809.807 229.644H838.064V260.192H859.447ZM926.907 257.901C942.309 257.901 954.846 260.51 964.519 265.729C974.193 270.82 979.03 279.157 979.03 290.74V330.07C979.03 332.234 979.539 334.016 980.557 335.416C981.575 336.816 983.103 337.516 985.139 337.516H992.012V359.473C991.631 359.727 990.612 360.173 988.958 360.809C987.43 361.318 985.203 361.827 982.275 362.336C979.348 362.973 975.975 363.291 972.156 363.291C964.774 363.291 958.664 362.209 953.828 360.045C949.118 357.754 945.873 354.636 944.091 350.69C939.254 354.509 933.844 357.563 927.862 359.854C921.88 362.146 914.879 363.291 906.86 363.291C883.186 363.291 871.349 353.872 871.349 335.034C871.349 325.234 873.958 317.788 879.176 312.696C884.522 307.478 892.159 303.914 902.087 302.004C912.015 300.095 924.998 299.141 941.036 299.141V294.177C941.036 290.231 939.636 287.24 936.835 285.203C934.163 283.167 930.662 282.148 926.335 282.148C922.389 282.148 918.952 282.848 916.025 284.249C913.225 285.649 911.824 287.876 911.824 290.931V291.695H874.403C874.276 291.058 874.212 290.167 874.212 289.022C874.212 279.475 878.731 271.902 887.768 266.302C896.932 260.701 909.979 257.901 926.907 257.901ZM941.036 317.087C930.217 317.087 922.198 318.297 916.979 320.715C911.888 323.006 909.342 326.125 909.342 330.07C909.342 336.434 913.67 339.617 922.325 339.617C927.289 339.617 931.617 338.28 935.308 335.607C939.127 332.934 941.036 329.625 941.036 325.679V317.087ZM1073.92 257.901C1085.63 257.901 1094.41 261.147 1100.26 267.638C1106.12 274.13 1109.05 283.485 1109.05 295.704V361H1071.05V300.286C1071.05 295.959 1069.91 292.522 1067.62 289.976C1065.45 287.303 1062.33 285.967 1058.26 285.967C1053.55 285.967 1049.73 287.494 1046.81 290.549C1043.88 293.604 1042.41 297.359 1042.41 301.814V361H1004.42V260.192H1035.54L1038.02 275.466C1041.97 270.12 1047.12 265.856 1053.49 262.674C1059.98 259.492 1066.79 257.901 1073.92 257.901ZM1183.89 257.901C1200.43 257.901 1213.8 261.465 1223.98 268.593C1234.29 275.593 1239.45 286.349 1239.45 300.859H1202.6C1202.6 289.403 1196.36 283.676 1183.89 283.676C1171.41 283.676 1165.18 290.867 1165.18 305.25V316.133C1165.18 330.389 1171.67 337.516 1184.65 337.516C1197.63 337.516 1204.13 331.661 1204.13 319.951H1239.45C1239.45 334.589 1234.29 345.472 1223.98 352.599C1213.8 359.727 1200.43 363.291 1183.89 363.291C1166.2 363.291 1152.32 358.836 1142.27 349.926C1132.21 341.017 1127.18 327.907 1127.18 310.596C1127.18 293.286 1132.21 280.176 1142.27 271.266C1152.32 262.356 1166.2 257.901 1183.89 257.901ZM1311.23 257.901C1329.69 257.901 1343.75 262.229 1353.43 270.884C1363.23 279.539 1368.13 292.776 1368.13 310.596V317.087H1292.52C1292.52 324.343 1294.11 329.816 1297.3 333.507C1300.6 337.198 1305.76 339.044 1312.76 339.044C1319.12 339.044 1323.77 337.707 1326.7 335.034C1329.75 332.361 1331.28 328.797 1331.28 324.343H1368.13C1368.13 336.562 1363.48 346.108 1354.19 352.981C1344.9 359.854 1331.34 363.291 1313.52 363.291C1294.81 363.291 1280.3 358.963 1269.99 350.308C1259.68 341.526 1254.53 328.288 1254.53 310.596C1254.53 293.286 1259.56 280.176 1269.61 271.266C1279.67 262.356 1293.54 257.901 1311.23 257.901ZM1312.76 282.148C1300.8 282.148 1294.11 287.812 1292.71 299.141H1329.75C1329.75 293.922 1328.23 289.785 1325.17 286.731C1322.24 283.676 1318.11 282.148 1312.76 282.148Z" fill="url(#paint1_linear_685_722)"/>
<defs>
<linearGradient id="paint0_linear_685_722" x1="126.649" y1="135.965" x2="846.644" y2="114.034" gradientUnits="userSpaceOnUse">
<stop/>
<stop offset="1" stop-opacity="0.34"/>
</linearGradient>
<linearGradient id="paint1_linear_685_722" x1="334.263" y1="328.965" x2="1290.15" y2="290.282" gradientUnits="userSpaceOnUse">
<stop/>
<stop offset="1" stop-opacity="0.34"/>
</linearGradient>
</defs>
</svg>
