<svg width="1074" height="137" viewBox="0 0 1074 137" fill="none" xmlns="http://www.w3.org/2000/svg">
<path d="M0.806568 134V2.64704H42.9999V134H0.806568ZM167.035 134L111.859 70.2327V134H73.1026V2.64704H109.95L165.126 67.3689V2.64704H203.883V134H167.035ZM294.762 0.355992C314.236 0.355992 329.637 5.25627 340.965 15.0568C352.293 24.7301 357.957 38.6036 357.957 56.6774H317.673C317.673 49.0406 315.636 42.9948 311.563 38.54C307.617 34.0852 301.954 31.8578 294.571 31.8578C286.044 31.8578 279.743 34.5307 275.67 39.8764C271.725 45.2222 269.752 52.6681 269.752 62.2141V74.433C269.752 83.8517 271.725 91.2976 275.67 96.7706C279.743 102.116 285.916 104.789 294.189 104.789C302.335 104.789 308.508 102.689 312.709 98.4889C316.909 94.2886 319.009 88.3701 319.009 80.7333H357.957C357.957 98.6798 352.42 112.426 341.347 121.972C330.401 131.518 314.872 136.291 294.762 136.291C272.361 136.291 255.369 130.563 243.787 119.108C232.331 107.653 226.604 90.7248 226.604 68.3235C226.604 45.9222 232.331 28.994 243.787 17.5388C255.369 6.08359 272.361 0.355992 294.762 0.355992ZM511.518 81.1152C511.518 99.0616 505.854 112.744 494.526 122.163C483.198 131.582 467.097 136.291 446.223 136.291C425.349 136.291 409.184 131.582 397.729 122.163C386.401 112.744 380.737 99.0616 380.737 81.1152V2.64704H422.931V80.5424C422.931 87.9246 424.904 93.8432 428.849 98.298C432.795 102.625 438.522 104.789 446.032 104.789C453.542 104.789 459.269 102.562 463.215 98.107C467.288 93.6522 469.324 87.7974 469.324 80.5424V2.64704H511.518V81.1152ZM627.217 2.64704C633.835 2.64704 639.881 4.04712 645.354 6.84728C650.954 9.52016 655.345 13.3386 658.527 18.3025C661.837 23.2664 663.491 28.8031 663.491 34.9125C663.491 51.0771 656.173 61.2595 641.536 65.4597V66.2234C658.209 70.0418 666.546 80.9879 666.546 99.0616C666.546 105.935 664.828 112.044 661.391 117.39C658.082 122.608 653.5 126.681 647.645 129.609C641.79 132.536 635.363 134 628.362 134H539.775V2.64704H627.217ZM581.969 53.8136H610.988C613.789 53.8136 616.08 52.859 617.862 50.9498C619.771 48.9133 620.725 46.4314 620.725 43.5039V41.5947C620.725 38.7946 619.771 36.4399 617.862 34.5307C615.952 32.4942 613.661 31.476 610.988 31.476H581.969V53.8136ZM581.969 103.453H614.043C616.843 103.453 619.134 102.498 620.916 100.589C622.825 98.5525 623.78 96.0706 623.78 93.1431V91.2339C623.78 88.3065 622.825 85.8882 620.916 83.979C619.134 81.9425 616.843 80.9242 614.043 80.9242H581.969V103.453ZM773.217 134L767.68 115.481H721.668L716.132 134H672.984L720.905 2.64704H769.971L817.892 134H773.217ZM730.451 86.0791H758.898L745.151 39.3037H744.388L730.451 86.0791ZM896.166 36.249V134H853.973V36.249H810.825V2.64704H939.123V36.249H896.166ZM958.345 2.64704H1071.94V34.1488H1000.54V52.2862H1061.63V82.4516H1000.54V102.498H1073.28V134H958.345V2.64704Z" fill="url(#paint0_linear_557_311)"/>
<defs>
<linearGradient id="paint0_linear_557_311" x1="922.397" y1="193.359" x2="403.999" y2="-197.267" gradientUnits="userSpaceOnUse">
<stop stop-color="#5865F2" stop-opacity="0.3"/>
<stop offset="1" stop-color="#5865F2"/>
</linearGradient>
</defs>
</svg>
