<svg width="1212" height="169" viewBox="0 0 1212 169" fill="none" xmlns="http://www.w3.org/2000/svg">
<path d="M112.753 134L95.7607 54.0045H94.997L78.0051 134H31.6115L0.873423 2.64704H44.785L59.8677 77.1058H60.6314L75.5231 2.64704H117.144L132.99 77.1058H133.754L147.882 2.64704H189.884L159.146 134H112.753ZM204.967 2.64704H318.564V34.1488H247.16V52.2862H308.255V82.4516H247.16V102.498H319.901V134H204.967V2.64704ZM408.237 134V2.64704H450.43V134H408.237ZM574.466 134L519.29 70.2327V134H480.533V2.64704H517.381L572.556 67.3689V2.64704H611.313V134H574.466ZM675.273 134L628.689 2.64704H673.746L700.093 90.4702H700.856L727.394 2.64704H770.542L724.149 134H675.273ZM788.168 2.64704H901.765V34.1488H830.361V52.2862H891.456V82.4516H830.361V102.498H903.102V134H788.168V2.64704ZM981.127 0.355992C997.928 0.355992 1011.74 3.79255 1022.56 10.6657C1033.38 17.4115 1038.91 27.4666 1039.17 40.831V43.1221H999.646V42.3584C999.646 38.54 998.246 35.358 995.446 32.8124C992.646 30.2668 988.382 28.994 982.654 28.994C977.054 28.994 972.726 29.8213 969.672 31.476C966.744 33.1306 965.28 35.1671 965.28 37.5854C965.28 41.022 967.317 43.5676 971.39 45.2222C975.463 46.8768 982.018 48.5951 991.055 50.377C1001.62 52.5408 1010.27 54.8318 1017.02 57.2502C1023.89 59.5412 1029.88 63.3596 1034.97 68.7054C1040.06 74.0511 1042.67 81.3061 1042.79 90.4702C1042.79 105.998 1037.51 117.517 1026.95 125.027C1016.51 132.536 1002.51 136.291 984.945 136.291C964.453 136.291 948.479 132.854 937.024 125.981C925.696 119.108 920.032 106.953 920.032 89.5156H959.935C959.935 96.1342 961.653 100.589 965.089 102.88C968.526 105.044 973.872 106.126 981.127 106.126C986.473 106.126 990.864 105.553 994.3 104.407C997.864 103.262 999.646 100.907 999.646 97.3434C999.646 94.1614 997.673 91.8067 993.727 90.2793C989.909 88.6247 983.609 86.9064 974.826 85.1245C964.135 82.8334 955.289 80.4788 948.289 78.0604C941.288 75.5148 935.179 71.3782 929.96 65.6506C924.742 59.923 922.132 52.159 922.132 42.3584C922.132 27.9758 927.669 17.4115 938.743 10.6657C949.943 3.79255 964.071 0.355992 981.127 0.355992ZM1139.34 36.249V134H1097.15V36.249H1054V2.64704H1182.3V36.249H1139.34ZM1191.5 168.938H1170.88L1186.53 134H1171.07V96.0069H1211.54V131.9L1191.5 168.938Z" fill="url(#paint0_linear_557_310)"/>
<defs>
<linearGradient id="paint0_linear_557_310" x1="169.351" y1="101.965" x2="1137.06" y2="62.3178" gradientUnits="userSpaceOnUse">
<stop stop-color="white"/>
<stop offset="1" stop-color="white" stop-opacity="0.34"/>
</linearGradient>
</defs>
</svg>
