<svg width="1449" height="180" viewBox="0 0 1449 180" fill="none" xmlns="http://www.w3.org/2000/svg">
<path d="M73.8232 7.64704C81.9691 7.64704 89.2241 9.55623 95.5881 13.3746C101.952 17.0658 106.916 22.2206 110.48 28.8392C114.044 35.3304 115.826 42.649 115.826 50.795V53.2769C115.826 61.4228 114.044 68.8051 110.48 75.4236C106.916 82.0422 101.952 87.2607 95.5881 91.0791C89.2241 94.7702 81.9691 96.6158 73.8232 96.6158H42.3214V139H0.12808V7.64704H73.8232ZM42.3214 65.8776H59.6951C64.1499 65.8776 67.4592 64.7321 69.623 62.4411C71.914 60.15 73.0595 57.0317 73.0595 53.086V51.5586C73.0595 47.4857 71.914 44.3673 69.623 42.2036C67.4592 39.9125 64.1499 38.767 59.6951 38.767H42.3214V65.8776ZM196.524 35.7123C199.451 35.7123 202.06 36.0941 204.351 36.8578C206.642 37.4942 207.788 37.876 207.788 38.0033V69.887H195.569C187.678 69.887 181.95 71.9234 178.386 75.9964C174.95 80.0694 173.231 86.1152 173.231 94.1338V139H135.238V38.1942H166.358L168.84 53.4678C171.131 47.613 174.759 43.2218 179.723 40.2944C184.687 37.2396 190.287 35.7123 196.524 35.7123ZM221.407 26.3572V0.582997H259.4V26.3572H221.407ZM221.407 139V38.1942H259.4V139H221.407ZM310.378 139L272.194 38.1942H313.05L331.57 101.007H332.906L351.425 38.1942H388.846L350.28 139H310.378ZM450.194 35.9032C465.595 35.9032 478.132 38.5124 487.805 43.7309C497.478 48.8221 502.315 57.159 502.315 68.7414V108.071C502.315 110.235 502.824 112.017 503.842 113.417C504.86 114.817 506.388 115.517 508.424 115.517H515.297V137.473C514.916 137.727 513.897 138.173 512.243 138.809C510.715 139.318 508.488 139.827 505.56 140.336C502.633 140.973 499.26 141.291 495.442 141.291C488.059 141.291 481.95 140.209 477.113 138.045C472.404 135.754 469.158 132.636 467.376 128.69C462.54 132.509 457.13 135.563 451.148 137.854C445.166 140.146 438.166 141.291 430.147 141.291C406.473 141.291 394.636 131.872 394.636 113.035C394.636 103.234 397.245 95.7884 402.464 90.6972C407.809 85.4788 415.446 81.9149 425.374 80.0057C435.302 78.0965 448.284 77.1419 464.322 77.1419V72.178C464.322 68.2323 462.922 65.2412 460.121 63.2048C457.449 61.1683 453.948 60.15 449.621 60.15C445.675 60.15 442.239 60.8501 439.311 62.2502C436.511 63.6502 435.111 65.8776 435.111 68.9324V69.696H397.691C397.563 69.0596 397.5 68.1687 397.5 67.0232C397.5 57.4772 402.018 49.904 411.055 44.3037C420.219 38.7034 433.265 35.9032 450.194 35.9032ZM464.322 95.0884C453.503 95.0884 445.484 96.2976 440.266 98.7159C435.175 101.007 432.629 104.125 432.629 108.071C432.629 114.435 436.957 117.617 445.612 117.617C450.575 117.617 454.903 116.281 458.594 113.608C462.413 110.935 464.322 107.625 464.322 103.68V95.0884ZM579.827 35.9032C596.373 35.9032 609.738 39.467 619.92 46.5947C630.23 53.5951 635.385 64.3503 635.385 78.8602H598.537C598.537 67.405 592.3 61.6774 579.827 61.6774C567.353 61.6774 561.117 68.8687 561.117 83.2514V94.1338C561.117 108.389 567.608 115.517 580.591 115.517C593.573 115.517 600.064 109.662 600.064 97.9522H635.385C635.385 112.589 630.23 123.472 619.92 130.6C609.738 137.727 596.373 141.291 579.827 141.291C562.135 141.291 548.261 136.836 538.206 127.927C528.151 119.017 523.124 105.907 523.124 88.5971C523.124 71.287 528.151 58.1772 538.206 49.2676C548.261 40.358 562.135 35.9032 579.827 35.9032ZM721.182 135.945C715.964 150.073 709.536 160.765 701.899 168.02C694.39 175.402 683.826 179.093 670.207 179.093C661.933 179.093 654.615 177.948 648.251 175.657V152.937H663.524C673.07 152.937 678.734 148.291 680.516 139L640.423 38.1942H681.28L700.563 105.207H701.899L719.655 38.1942H757.075L721.182 135.945ZM908.539 7.64704C916.685 7.64704 923.94 9.55623 930.304 13.3746C936.668 17.0658 941.632 22.2206 945.195 28.8392C948.759 35.3304 950.541 42.649 950.541 50.795V53.2769C950.541 61.4228 948.759 68.8051 945.195 75.4236C941.632 82.0422 936.668 87.2607 930.304 91.0791C923.94 94.7702 916.685 96.6158 908.539 96.6158H877.037V139H834.844V7.64704H908.539ZM877.037 65.8776H894.411C898.866 65.8776 902.175 64.7321 904.339 62.4411C906.63 60.15 907.775 57.0317 907.775 53.086V51.5586C907.775 47.4857 906.63 44.3673 904.339 42.2036C902.175 39.9125 898.866 38.767 894.411 38.767H877.037V65.8776ZM1017.04 35.9032C1034.73 35.9032 1048.61 40.4216 1058.66 49.4585C1068.84 58.3681 1073.94 71.4143 1073.94 88.5971C1073.94 105.78 1068.84 118.89 1058.66 127.927C1048.61 136.836 1034.73 141.291 1017.04 141.291C999.349 141.291 985.476 136.836 975.421 127.927C965.365 119.017 960.338 105.907 960.338 88.5971C960.338 71.287 965.365 58.1772 975.421 49.2676C985.476 40.358 999.349 35.9032 1017.04 35.9032ZM1017.04 61.6774C1004.57 61.6774 998.331 68.8687 998.331 83.2514V94.1338C998.331 108.389 1004.57 115.517 1017.04 115.517C1029.64 115.517 1035.94 108.389 1035.94 94.1338V83.2514C1035.94 68.8687 1029.64 61.6774 1017.04 61.6774ZM1093.6 139V0.582997H1131.59V139H1093.6ZM1157.18 26.3572V0.582997H1195.17V26.3572H1157.18ZM1157.18 139V38.1942H1195.17V139H1157.18ZM1271.54 35.9032C1288.09 35.9032 1301.45 39.467 1311.63 46.5947C1321.94 53.5951 1327.1 64.3503 1327.1 78.8602H1290.25C1290.25 67.405 1284.01 61.6774 1271.54 61.6774C1259.07 61.6774 1252.83 68.8687 1252.83 83.2514V94.1338C1252.83 108.389 1259.32 115.517 1272.3 115.517C1285.29 115.517 1291.78 109.662 1291.78 97.9522H1327.1C1327.1 112.589 1321.94 123.472 1311.63 130.6C1301.45 137.727 1288.09 141.291 1271.54 141.291C1253.85 141.291 1239.97 136.836 1229.92 127.927C1219.86 119.017 1214.84 105.907 1214.84 88.5971C1214.84 71.287 1219.86 58.1772 1229.92 49.2676C1239.97 40.358 1253.85 35.9032 1271.54 35.9032ZM1412.89 135.945C1407.68 150.073 1401.25 160.765 1393.61 168.02C1386.1 175.402 1375.54 179.093 1361.92 179.093C1353.65 179.093 1346.33 177.948 1339.96 175.657V152.937H1355.24C1364.78 152.937 1370.45 148.291 1372.23 139L1332.14 38.1942H1372.99L1392.27 105.207H1393.61L1411.37 38.1942H1448.79L1412.89 135.945Z" fill="url(#paint0_linear_654_335)"/>
<defs>
<linearGradient id="paint0_linear_654_335" x1="189.613" y1="106.965" x2="1345.45" y2="50.3635" gradientUnits="userSpaceOnUse">
<stop stop-color="white"/>
<stop offset="1" stop-color="white" stop-opacity="0.34"/>
</linearGradient>
</defs>
</svg>
