<svg width="1420" height="180" viewBox="0 0 1420 180" fill="none" xmlns="http://www.w3.org/2000/svg">
<path d="M125.227 47.9292C125.227 55.9481 123.064 63.2032 118.736 69.6946C114.408 76.186 108.108 80.9591 99.8345 84.0139L129.046 139H81.6967L58.404 91.0781H42.7482V139H0.554035V7.64429H80.933C90.352 7.64429 98.3708 9.48988 104.989 13.1811C111.735 16.745 116.763 21.6454 120.072 27.8822C123.509 33.9918 125.227 40.6741 125.227 47.9292ZM82.2695 49.6476C82.2695 46.2109 81.124 43.3471 78.8329 41.056C76.5418 38.7649 73.7416 37.6194 70.4322 37.6194H42.7482V61.8667H70.4322C73.7416 61.8667 76.5418 60.7212 78.8329 58.4301C81.124 56.0117 82.2695 53.0842 82.2695 49.6476ZM196.312 35.901C211.713 35.901 224.251 38.5103 233.924 43.7289C243.598 48.8202 248.435 57.1572 248.435 68.74V108.07C248.435 110.234 248.944 112.016 249.962 113.416C250.98 114.816 252.508 115.516 254.544 115.516H261.417V137.473C261.036 137.727 260.017 138.173 258.363 138.809C256.835 139.318 254.608 139.827 251.68 140.336C248.753 140.973 245.38 141.291 241.561 141.291C234.179 141.291 228.069 140.209 223.233 138.045C218.523 135.754 215.277 132.636 213.495 128.69C208.659 132.509 203.249 135.563 197.267 137.854C191.285 140.146 184.284 141.291 176.265 141.291C152.591 141.291 140.753 131.872 140.753 113.034C140.753 103.234 143.363 95.7875 148.581 90.6962C153.927 85.4776 161.564 81.9137 171.492 80.0045C181.42 78.0952 194.403 77.1406 210.441 77.1406V72.1766C210.441 68.2308 209.041 65.2397 206.24 63.2032C203.567 61.1666 200.067 60.1484 195.74 60.1484C191.794 60.1484 188.357 60.8484 185.43 62.2486C182.629 63.6487 181.229 65.8761 181.229 68.9309V69.6946H143.808C143.681 69.0582 143.617 68.1672 143.617 67.0217C143.617 57.4755 148.136 49.9021 157.173 44.3017C166.337 38.7013 179.384 35.901 196.312 35.901ZM210.441 95.0875C199.622 95.0875 191.603 96.2967 186.384 98.715C181.293 101.006 178.747 104.125 178.747 108.07C178.747 114.434 183.075 117.617 191.73 117.617C196.694 117.617 201.022 116.28 204.713 113.607C208.531 110.934 210.441 107.625 210.441 103.679V95.0875ZM343.131 135.945C337.913 150.074 331.485 160.765 323.848 168.02C316.338 175.403 305.774 179.094 292.155 179.094C283.881 179.094 276.563 177.948 270.198 175.657V152.937H285.472C295.018 152.937 300.683 148.292 302.465 139L262.37 38.1921H303.228L322.512 105.206H323.848L341.604 38.1921H379.025L343.131 135.945ZM437.205 35.901C452.606 35.901 465.143 38.5103 474.817 43.7289C484.49 48.8202 489.327 57.1572 489.327 68.74V108.07C489.327 110.234 489.836 112.016 490.854 113.416C491.873 114.816 493.4 115.516 495.436 115.516H502.31V137.473C501.928 137.727 500.91 138.173 499.255 138.809C497.728 139.318 495.5 139.827 492.573 140.336C489.645 140.973 486.272 141.291 482.454 141.291C475.071 141.291 468.962 140.209 464.125 138.045C459.415 135.754 456.17 132.636 454.388 128.69C449.551 132.509 444.142 135.563 438.159 137.854C432.177 140.146 425.176 141.291 417.158 141.291C393.483 141.291 381.646 131.872 381.646 113.034C381.646 103.234 384.255 95.7875 389.474 90.6962C394.82 85.4776 402.456 81.9137 412.385 80.0045C422.313 78.0952 435.295 77.1406 451.333 77.1406V72.1766C451.333 68.2308 449.933 65.2397 447.133 63.2032C444.46 61.1666 440.96 60.1484 436.632 60.1484C432.686 60.1484 429.249 60.8484 426.322 62.2486C423.522 63.6487 422.122 65.8761 422.122 68.9309V69.6946H384.701C384.573 69.0582 384.51 68.1672 384.51 67.0217C384.51 57.4755 389.028 49.9021 398.065 44.3017C407.23 38.7013 420.276 35.901 437.205 35.901ZM451.333 95.0875C440.514 95.0875 432.495 96.2967 427.277 98.715C422.185 101.006 419.64 104.125 419.64 108.07C419.64 114.434 423.967 117.617 432.622 117.617C437.587 117.617 441.914 116.28 445.605 113.607C449.424 110.934 451.333 107.625 451.333 103.679V95.0875ZM584.215 35.901C595.925 35.901 604.707 39.1467 610.562 45.6382C616.417 52.1296 619.345 61.4849 619.345 73.704V139H581.351V78.2862C581.351 73.9586 580.205 70.5219 577.914 67.9763C575.75 65.3033 572.632 63.9669 568.559 63.9669C563.849 63.9669 560.031 65.4943 557.103 68.549C554.176 71.6038 552.712 75.3587 552.712 79.8136V139H514.718V38.1921H545.839L548.321 53.466C552.267 48.1202 557.422 43.8562 563.786 40.6741C570.277 37.4921 577.087 35.901 584.215 35.901ZM821.151 139V91.6508C821.151 85.7958 821.342 79.8136 821.724 73.704C822.233 67.4671 822.742 62.2485 823.252 58.0482C823.761 53.8479 824.079 51.175 824.206 50.0294H823.442L799.195 139H766.165L741.727 50.2203H740.963C741.091 51.3659 741.409 54.0388 741.918 58.2391C742.554 62.3122 743.127 67.4671 743.636 73.704C744.145 79.8136 744.4 85.7958 744.4 91.6508V139H705.642V7.64429H765.211L785.067 83.4411H785.83L805.496 7.64429H862.964V139H821.151ZM935.77 35.901C951.171 35.901 963.708 38.5103 973.382 43.7289C983.055 48.8202 987.892 57.1572 987.892 68.74V108.07C987.892 110.234 988.401 112.016 989.42 113.416C990.438 114.816 991.965 115.516 994.002 115.516H1000.87V137.473C1000.49 137.727 999.475 138.173 997.82 138.809C996.293 139.318 994.065 139.827 991.138 140.336C988.21 140.973 984.837 141.291 981.019 141.291C973.636 141.291 967.527 140.209 962.69 138.045C957.981 135.754 954.735 132.636 952.953 128.69C948.116 132.509 942.707 135.563 936.725 137.854C930.742 140.146 923.742 141.291 915.723 141.291C892.048 141.291 880.211 131.872 880.211 113.034C880.211 103.234 882.82 95.7875 888.039 90.6962C893.385 85.4776 901.022 81.9137 910.95 80.0045C920.878 78.0952 933.861 77.1406 949.898 77.1406V72.1766C949.898 68.2308 948.498 65.2397 945.698 63.2032C943.025 61.1666 939.525 60.1484 935.197 60.1484C931.251 60.1484 927.815 60.8484 924.887 62.2486C922.087 63.6487 920.687 65.8761 920.687 68.9309V69.6946H883.266C883.138 69.0582 883.075 68.1672 883.075 67.0217C883.075 57.4755 887.593 49.9021 896.63 44.3017C905.795 38.7013 918.841 35.901 935.77 35.901ZM949.898 95.0875C939.079 95.0875 931.06 96.2967 925.842 98.715C920.751 101.006 918.205 104.125 918.205 108.07C918.205 114.434 922.532 117.617 931.188 117.617C936.152 117.617 940.479 116.28 944.171 113.607C947.989 110.934 949.898 107.625 949.898 103.679V95.0875ZM1074.57 35.7101C1077.5 35.7101 1080.11 36.092 1082.4 36.8557C1084.69 37.4921 1085.83 37.8739 1085.83 38.0012V69.8855H1073.62C1065.72 69.8855 1060 71.922 1056.43 75.9951C1053 80.0681 1051.28 86.1141 1051.28 94.1329V139H1013.28V38.1921H1044.4L1046.89 53.466C1049.18 47.611 1052.8 43.2198 1057.77 40.2923C1062.73 37.2375 1068.33 35.7101 1074.57 35.7101ZM1174.72 38.1921H1219.01L1181.78 78.8589L1219.97 139H1176.82L1155.62 104.443L1142.45 117.235V139H1104.46V0.389177H1142.45V76.7588L1174.72 38.1921ZM1277.4 35.901C1295.85 35.901 1309.92 40.2286 1319.59 48.8839C1329.39 57.5391 1334.29 70.7765 1334.29 88.5961V95.0875H1258.69C1258.69 102.343 1260.28 107.816 1263.46 111.507C1266.77 115.198 1271.93 117.044 1278.93 117.044C1285.29 117.044 1289.94 115.707 1292.86 113.034C1295.92 110.361 1297.45 106.797 1297.45 102.343H1334.29C1334.29 114.562 1329.65 124.108 1320.36 130.981C1311.06 137.854 1297.51 141.291 1279.69 141.291C1260.98 141.291 1246.47 136.963 1236.16 128.308C1225.85 119.526 1220.69 106.288 1220.69 88.5961C1220.69 71.2856 1225.72 58.1755 1235.78 49.2657C1245.83 40.3559 1259.71 35.901 1277.4 35.901ZM1278.93 60.1484C1266.96 60.1484 1260.28 65.8125 1258.88 77.1406H1295.92C1295.92 71.922 1294.39 67.7853 1291.34 64.7306C1288.41 61.6758 1284.27 60.1484 1278.93 60.1484ZM1419.83 38.1921V63.9669H1398.44V102.343C1398.44 106.925 1399.21 110.298 1400.73 112.462C1402.26 114.498 1405.06 115.516 1409.13 115.516H1419.83V137.854C1416.77 138.873 1412.83 139.7 1407.99 140.336C1403.15 140.973 1398.95 141.291 1395.39 141.291C1384.19 141.291 1375.53 139.255 1369.42 135.182C1363.44 131.108 1360.45 124.172 1360.45 114.371V63.9669H1346.32V38.1921H1361.98L1370.19 7.64429H1398.44V38.1921H1419.83Z" fill="url(#paint0_linear_664_692)"/>
<defs>
<linearGradient id="paint0_linear_664_692" x1="186.412" y1="106.965" x2="1324.16" y2="52.1251" gradientUnits="userSpaceOnUse">
<stop/>
<stop offset="1" stop-opacity="0.34"/>
</linearGradient>
</defs>
</svg>
