<svg width="899" height="142" viewBox="0 0 899 142" fill="none" xmlns="http://www.w3.org/2000/svg">
<path d="M61.304 5.35599C78.1049 5.35599 91.9148 8.79255 102.734 15.6657C113.552 22.4115 119.089 32.4666 119.344 45.831V48.1221H79.8232V47.3584C79.8232 43.54 78.4231 40.358 75.623 37.8124C72.8228 35.2668 68.5589 33.994 62.8313 33.994C57.231 33.994 52.9035 34.8213 49.8488 36.476C46.9213 38.1306 45.4576 40.1671 45.4576 42.5854C45.4576 46.022 47.4941 48.5676 51.567 50.2222C55.64 51.8768 62.1949 53.5951 71.2318 55.377C81.796 57.5408 90.4511 59.8318 97.1969 62.2502C104.07 64.5412 110.052 68.3596 115.143 73.7054C120.235 79.0511 122.844 86.3061 122.971 95.4702C122.971 110.998 117.689 122.517 107.125 130.027C96.6878 137.536 82.687 141.291 65.1224 141.291C44.6303 141.291 28.6566 137.854 17.2014 130.981C5.87352 124.108 0.20956 111.953 0.20956 94.5156H40.1118C40.1118 101.134 41.8301 105.589 45.2667 107.88C48.7032 110.044 54.049 111.126 61.304 111.126C66.6497 111.126 71.0409 110.553 74.4774 109.407C78.0413 108.262 79.8232 105.907 79.8232 102.343C79.8232 99.1614 77.8504 96.8067 73.9047 95.2793C70.0863 93.6247 63.7859 91.9064 55.0036 90.1245C44.3121 87.8334 35.4661 85.4788 28.4657 83.0604C21.4653 80.5148 15.3559 76.3782 10.1374 70.6506C4.91892 64.923 2.30968 57.159 2.30968 47.3584C2.30968 32.9758 7.84636 22.4115 18.9197 15.6657C30.1204 8.79255 44.2484 5.35599 61.304 5.35599ZM193.359 35.9032C211.815 35.9032 225.879 40.2307 235.553 48.8858C245.353 57.5408 250.254 70.7779 250.254 88.5971V95.0884H174.649C174.649 102.343 176.24 107.816 179.422 111.508C182.732 115.199 187.886 117.044 194.887 117.044C201.251 117.044 205.897 115.708 208.824 113.035C211.879 110.362 213.406 106.798 213.406 102.343H250.254C250.254 114.562 245.608 124.108 236.316 130.981C227.025 137.854 213.47 141.291 195.65 141.291C176.94 141.291 162.43 136.964 152.121 128.308C141.811 119.526 136.656 106.289 136.656 88.5971C136.656 71.287 141.684 58.1772 151.739 49.2676C161.794 40.358 175.668 35.9032 193.359 35.9032ZM194.887 60.15C182.922 60.15 176.24 65.814 174.84 77.1419H211.879C211.879 71.9234 210.351 67.7868 207.297 64.7321C204.369 61.6774 200.233 60.15 194.887 60.15ZM329.866 35.7123C332.793 35.7123 335.402 36.0941 337.693 36.8578C339.985 37.4942 341.13 37.876 341.13 38.0033V69.887H328.911C321.02 69.887 315.292 71.9234 311.728 75.9964C308.292 80.0694 306.574 86.1152 306.574 94.1338V139H268.58V38.1942H299.7L302.182 53.4678C304.473 47.613 308.101 43.2218 313.065 40.2944C318.029 37.2396 323.629 35.7123 329.866 35.7123ZM391.142 139L352.958 38.1942H393.815L412.334 101.007H413.671L432.19 38.1942H469.61L431.044 139H391.142ZM482.465 26.3572V0.582997H520.458V26.3572H482.465ZM482.465 139V38.1942H520.458V139H482.465ZM596.827 35.9032C613.373 35.9032 626.738 39.467 636.92 46.5947C647.23 53.5951 652.385 64.3503 652.385 78.8602H615.537C615.537 67.405 609.301 61.6774 596.827 61.6774C584.354 61.6774 578.117 68.8687 578.117 83.2514V94.1338C578.117 108.389 584.608 115.517 597.591 115.517C610.573 115.517 617.065 109.662 617.065 97.9522H652.385C652.385 112.589 647.23 123.472 636.92 130.6C626.738 137.727 613.373 141.291 596.827 141.291C579.135 141.291 565.262 136.836 555.207 127.927C545.151 119.017 540.124 105.907 540.124 88.5971C540.124 71.287 545.151 58.1772 555.207 49.2676C565.262 40.358 579.135 35.9032 596.827 35.9032ZM724.169 35.9032C742.625 35.9032 756.689 40.2307 766.363 48.8858C776.163 57.5408 781.063 70.7779 781.063 88.5971V95.0884H705.459C705.459 102.343 707.05 107.816 710.232 111.508C713.541 115.199 718.696 117.044 725.697 117.044C732.061 117.044 736.706 115.708 739.634 113.035C742.688 110.362 744.216 106.798 744.216 102.343H781.063C781.063 114.562 776.418 124.108 767.126 130.981C757.835 137.854 744.279 141.291 726.46 141.291C707.75 141.291 693.24 136.964 682.931 128.308C672.621 119.526 667.466 106.289 667.466 88.5971C667.466 71.287 672.494 58.1772 682.549 49.2676C692.604 40.358 706.477 35.9032 724.169 35.9032ZM725.697 60.15C713.732 60.15 707.05 65.814 705.65 77.1419H742.688C742.688 71.9234 741.161 67.7868 738.106 64.7321C735.179 61.6774 731.042 60.15 725.697 60.15ZM847.311 35.9032C860.803 35.9032 872.194 38.5761 881.486 43.9218C890.905 49.1403 895.614 57.2862 895.614 68.3596H860.294C860.294 64.6685 858.639 62.0592 855.33 60.5319C853.039 59.2591 850.175 58.6227 846.738 58.6227C837.574 58.6227 832.992 60.7864 832.992 65.114C832.992 67.5323 834.583 69.2506 837.765 70.2688C840.947 71.287 846.166 72.3689 853.421 73.5144C862.33 74.7872 869.776 76.3146 875.758 78.0965C881.74 79.7512 886.959 82.8059 891.414 87.2607C895.869 91.5882 898.096 97.6976 898.096 105.589C898.096 118.444 893.259 127.608 883.586 133.081C874.04 138.555 861.503 141.291 845.975 141.291C837.065 141.291 828.665 140.082 820.773 137.664C812.882 135.118 806.454 131.236 801.49 126.017C796.526 120.799 794.044 114.18 794.044 106.162H829.365V106.925C829.492 111.253 831.274 114.308 834.71 116.09C838.274 117.744 842.029 118.572 845.975 118.572C856.539 118.572 861.821 116.09 861.821 111.126C861.821 108.58 860.166 106.735 856.857 105.589C853.548 104.443 848.139 103.234 840.629 101.962C831.592 100.434 824.146 98.7795 818.291 96.9976C812.564 95.2157 807.536 92.2246 803.209 88.0244C798.881 83.6968 796.717 77.7147 796.717 70.0779C796.717 57.7317 801.363 48.9494 810.655 43.7309C820.073 38.5124 832.292 35.9032 847.311 35.9032Z" fill="url(#paint0_linear_565_310)"/>
<defs>
<linearGradient id="paint0_linear_565_310" x1="119.067" y1="106.965" x2="841.431" y2="84.8895" gradientUnits="userSpaceOnUse">
<stop stop-color="white"/>
<stop offset="1" stop-color="white" stop-opacity="0.34"/>
</linearGradient>
</defs>
</svg>
