<svg width="962" height="142" viewBox="0 0 962 142" fill="none" xmlns="http://www.w3.org/2000/svg">
<path d="M61.304 5.35599C78.1049 5.35599 91.9148 8.79255 102.734 15.6657C113.552 22.4115 119.089 32.4666 119.344 45.831V48.1221H79.8232V47.3584C79.8232 43.54 78.4231 40.358 75.623 37.8124C72.8228 35.2668 68.5589 33.994 62.8313 33.994C57.231 33.994 52.9035 34.8213 49.8488 36.476C46.9213 38.1306 45.4576 40.1671 45.4576 42.5854C45.4576 46.022 47.4941 48.5676 51.567 50.2222C55.64 51.8768 62.1949 53.5951 71.2318 55.377C81.796 57.5408 90.4511 59.8318 97.1969 62.2502C104.07 64.5412 110.052 68.3596 115.143 73.7054C120.235 79.0511 122.844 86.3061 122.971 95.4702C122.971 110.998 117.689 122.517 107.125 130.027C96.6878 137.536 82.687 141.291 65.1224 141.291C44.6303 141.291 28.6566 137.854 17.2014 130.981C5.87352 124.108 0.20956 111.953 0.20956 94.5156H40.1118C40.1118 101.134 41.8301 105.589 45.2667 107.88C48.7032 110.044 54.049 111.126 61.304 111.126C66.6497 111.126 71.0409 110.553 74.4774 109.407C78.0413 108.262 79.8232 105.907 79.8232 102.343C79.8232 99.1614 77.8504 96.8067 73.9047 95.2793C70.0863 93.6247 63.7859 91.9064 55.0036 90.1245C44.3121 87.8334 35.4661 85.4788 28.4657 83.0604C21.4653 80.5148 15.3559 76.3782 10.1374 70.6506C4.91892 64.923 2.30968 57.159 2.30968 47.3584C2.30968 32.9758 7.84636 22.4115 18.9197 15.6657C30.1204 8.79255 44.2484 5.35599 61.304 5.35599ZM193.359 35.9032C211.051 35.9032 224.925 40.4216 234.98 49.4585C245.162 58.3681 250.254 71.4143 250.254 88.5971C250.254 105.78 245.162 118.89 234.98 127.927C224.925 136.836 211.051 141.291 193.359 141.291C175.668 141.291 161.794 136.836 151.739 127.927C141.684 119.017 136.656 105.907 136.656 88.5971C136.656 71.287 141.684 58.1772 151.739 49.2676C161.794 40.358 175.668 35.9032 193.359 35.9032ZM193.359 61.6774C180.886 61.6774 174.649 68.8687 174.649 83.2514V94.1338C174.649 108.389 180.886 115.517 193.359 115.517C205.96 115.517 212.261 108.389 212.261 94.1338V83.2514C212.261 68.8687 205.96 61.6774 193.359 61.6774ZM269.917 139V0.582997H307.91V139H269.917ZM405.281 139L402.799 123.726C398.853 129.199 393.635 133.527 387.143 136.709C380.779 139.764 374.033 141.291 366.906 141.291C355.196 141.291 346.414 138.045 340.559 131.554C334.704 125.063 331.776 115.708 331.776 103.489V38.1942H369.77V98.9068C369.77 103.234 370.851 106.735 373.015 109.407C375.306 111.953 378.488 113.226 382.561 113.226C387.271 113.226 391.089 111.698 394.016 108.644C396.944 105.589 398.408 101.834 398.408 97.3794V38.1942H436.401V139H405.281ZM526.704 38.1942V63.9684H505.321V102.343C505.321 106.925 506.085 110.298 507.612 112.462C509.14 114.499 511.94 115.517 516.013 115.517H526.704V137.854C523.65 138.873 519.704 139.7 514.867 140.336C510.031 140.973 505.83 141.291 502.267 141.291C491.066 141.291 482.411 139.255 476.301 135.182C470.319 131.109 467.328 124.172 467.328 114.371V63.9684H453.2V38.1942H468.856L477.065 7.64704H505.321V38.1942H526.704ZM545.67 26.3572V0.582997H583.663V26.3572H545.67ZM545.67 139V38.1942H583.663V139H545.67ZM660.032 35.9032C677.724 35.9032 691.597 40.4216 701.653 49.4585C711.835 58.3681 716.926 71.4143 716.926 88.5971C716.926 105.78 711.835 118.89 701.653 127.927C691.597 136.836 677.724 141.291 660.032 141.291C642.34 141.291 628.467 136.836 618.411 127.927C608.356 119.017 603.329 105.907 603.329 88.5971C603.329 71.287 608.356 58.1772 618.411 49.2676C628.467 40.358 642.34 35.9032 660.032 35.9032ZM660.032 61.6774C647.559 61.6774 641.322 68.8687 641.322 83.2514V94.1338C641.322 108.389 647.559 115.517 660.032 115.517C672.633 115.517 678.933 108.389 678.933 94.1338V83.2514C678.933 68.8687 672.633 61.6774 660.032 61.6774ZM804.748 35.9032C816.458 35.9032 825.24 39.1488 831.095 45.6401C836.95 52.1314 839.877 61.4865 839.877 73.7054V139H801.884V78.2874C801.884 73.9599 800.739 70.5234 798.448 67.9778C796.284 65.3049 793.165 63.9684 789.092 63.9684C784.383 63.9684 780.565 65.4958 777.637 68.5505C774.71 71.6052 773.246 75.36 773.246 79.8148V139H735.253V38.1942H766.373L768.855 53.4678C772.801 48.1221 777.955 43.8582 784.319 40.6762C790.811 37.4942 797.62 35.9032 804.748 35.9032ZM910.516 35.9032C924.008 35.9032 935.399 38.5761 944.691 43.9218C954.11 49.1403 958.819 57.2862 958.819 68.3596H923.499C923.499 64.6685 921.844 62.0592 918.535 60.5319C916.244 59.2591 913.38 58.6227 909.943 58.6227C900.779 58.6227 896.197 60.7864 896.197 65.114C896.197 67.5323 897.788 69.2506 900.97 70.2688C904.152 71.287 909.371 72.3689 916.626 73.5144C925.535 74.7872 932.981 76.3146 938.963 78.0965C944.945 79.7512 950.164 82.8059 954.619 87.2607C959.073 91.5882 961.301 97.6976 961.301 105.589C961.301 118.444 956.464 127.608 946.791 133.081C937.245 138.555 924.708 141.291 909.18 141.291C900.27 141.291 891.87 140.082 883.978 137.664C876.087 135.118 869.659 131.236 864.695 126.017C859.731 120.799 857.249 114.18 857.249 106.162H892.57V106.925C892.697 111.253 894.479 114.308 897.915 116.09C901.479 117.744 905.234 118.572 909.18 118.572C919.744 118.572 925.026 116.09 925.026 111.126C925.026 108.58 923.371 106.735 920.062 105.589C916.753 104.443 911.343 103.234 903.834 101.962C894.797 100.434 887.351 98.7795 881.496 96.9976C875.769 95.2157 870.741 92.2246 866.414 88.0244C862.086 83.6968 859.922 77.7147 859.922 70.0779C859.922 57.7317 864.568 48.9494 873.859 43.7309C883.278 38.5124 895.497 35.9032 910.516 35.9032Z" fill="url(#paint0_linear_651_315)"/>
<defs>
<linearGradient id="paint0_linear_651_315" x1="127.835" y1="106.965" x2="899.941" y2="81.7411" gradientUnits="userSpaceOnUse">
<stop stop-color="white"/>
<stop offset="1" stop-color="white" stop-opacity="0.34"/>
</linearGradient>
</defs>
</svg>
