<svg width="1195" height="180" viewBox="0 0 1195 180" fill="none" xmlns="http://www.w3.org/2000/svg">
<path d="M85.7324 41.249V139H43.5391V41.249H0.39116V7.64704H128.689V41.249H85.7324ZM185.986 35.9032C204.442 35.9032 218.506 40.2307 228.18 48.8858C237.98 57.5408 242.88 70.7779 242.88 88.5971V95.0884H167.276C167.276 102.343 168.867 107.816 172.049 111.508C175.358 115.199 180.513 117.044 187.514 117.044C193.878 117.044 198.523 115.708 201.451 113.035C204.506 110.362 206.033 106.798 206.033 102.343H242.88C242.88 114.562 238.235 124.108 228.943 130.981C219.652 137.854 206.097 141.291 188.277 141.291C169.567 141.291 155.057 136.964 144.748 128.308C134.438 119.526 129.283 106.289 129.283 88.5971C129.283 71.287 134.311 58.1772 144.366 49.2676C154.421 40.358 168.294 35.9032 185.986 35.9032ZM187.514 60.15C175.549 60.15 168.867 65.814 167.467 77.1419H204.506C204.506 71.9234 202.978 67.7868 199.923 64.7321C196.996 61.6774 192.859 60.15 187.514 60.15ZM313.328 35.9032C329.875 35.9032 343.239 39.467 353.422 46.5947C363.731 53.5951 368.886 64.3503 368.886 78.8602H332.039C332.039 67.405 325.802 61.6774 313.328 61.6774C300.855 61.6774 294.618 68.8687 294.618 83.2514V94.1338C294.618 108.389 301.11 115.517 314.092 115.517C327.075 115.517 333.566 109.662 333.566 97.9522H368.886C368.886 112.589 363.731 123.472 353.422 130.6C343.239 137.727 329.875 141.291 313.328 141.291C295.637 141.291 281.763 136.836 271.708 127.927C261.653 119.017 256.625 105.907 256.625 88.5971C256.625 71.287 261.653 58.1772 271.708 49.2676C281.763 40.358 295.637 35.9032 313.328 35.9032ZM423.373 48.6948C427.446 44.6219 432.219 41.5035 437.692 39.3398C443.165 37.0487 448.893 35.9032 454.875 35.9032C466.584 35.9032 475.367 39.1488 481.222 45.6401C487.077 52.1314 490.004 61.4865 490.004 73.7054V139H452.011V78.2874C452.011 73.9599 450.865 70.5234 448.574 67.9778C446.411 65.3049 443.292 63.9684 439.219 63.9684C434.51 63.9684 430.692 65.4958 427.764 68.5505C424.837 71.6052 423.373 75.36 423.373 79.8148V139H385.38V0.582997H423.373V48.6948ZM582.217 35.9032C593.927 35.9032 602.709 39.1488 608.564 45.6401C614.419 52.1314 617.346 61.4865 617.346 73.7054V139H579.353V78.2874C579.353 73.9599 578.208 70.5234 575.917 67.9778C573.753 65.3049 570.634 63.9684 566.561 63.9684C561.852 63.9684 558.034 65.4958 555.106 68.5505C552.179 71.6052 550.715 75.36 550.715 79.8148V139H512.722V38.1942H543.842L546.324 53.4678C550.27 48.1221 555.424 43.8582 561.788 40.6762C568.28 37.4942 575.089 35.9032 582.217 35.9032ZM692.185 35.9032C709.877 35.9032 723.751 40.4216 733.806 49.4585C743.988 58.3681 749.079 71.4143 749.079 88.5971C749.079 105.78 743.988 118.89 733.806 127.927C723.751 136.836 709.877 141.291 692.185 141.291C674.493 141.291 660.62 136.836 650.565 127.927C640.51 119.017 635.482 105.907 635.482 88.5971C635.482 71.287 640.51 58.1772 650.565 49.2676C660.62 40.358 674.493 35.9032 692.185 35.9032ZM692.185 61.6774C679.712 61.6774 673.475 68.8687 673.475 83.2514V94.1338C673.475 108.389 679.712 115.517 692.185 115.517C704.786 115.517 711.086 108.389 711.086 94.1338V83.2514C711.086 68.8687 704.786 61.6774 692.185 61.6774ZM768.743 139V0.582997H806.736V139H768.743ZM883.105 35.9032C900.797 35.9032 914.671 40.4216 924.726 49.4585C934.908 58.3681 939.999 71.4143 939.999 88.5971C939.999 105.78 934.908 118.89 924.726 127.927C914.671 136.836 900.797 141.291 883.105 141.291C865.413 141.291 851.54 136.836 841.485 127.927C831.43 119.017 826.402 105.907 826.402 88.5971C826.402 71.287 831.43 58.1772 841.485 49.2676C851.54 40.358 865.413 35.9032 883.105 35.9032ZM883.105 61.6774C870.632 61.6774 864.395 68.8687 864.395 83.2514V94.1338C864.395 108.389 870.632 115.517 883.105 115.517C895.706 115.517 902.006 108.389 902.006 94.1338V83.2514C902.006 68.8687 895.706 61.6774 883.105 61.6774ZM1071.73 19.2932C1071.73 27.0572 1069.76 33.0394 1065.81 37.2396C1062 41.4399 1056.2 44.5582 1048.44 46.5947C1052.13 49.3949 1055 52.7042 1057.03 56.5226C1059.2 60.2137 1060.28 64.1594 1060.28 68.3596C1060.28 79.0511 1056.2 87.1334 1048.06 92.6064C1040.04 98.0795 1029.98 100.816 1017.89 100.816H1003.38C995.365 100.816 991.355 102.662 991.355 106.353C991.355 108.135 992.246 109.598 994.028 110.744C995.81 111.762 998.929 112.271 1003.38 112.271H1037.75C1048.95 112.271 1057.41 115.199 1063.14 121.054C1068.87 126.908 1071.73 134.736 1071.73 144.537C1071.73 151.792 1069.82 158.028 1066.01 163.247C1062.19 168.465 1057.03 172.411 1050.54 175.084C1044.05 177.757 1036.99 179.093 1029.35 179.093H973.218C968.636 179.093 964.372 178.011 960.426 175.848C956.608 173.684 953.553 170.693 951.262 166.874C948.971 163.183 947.826 159.047 947.826 154.465C947.826 149.501 949.353 144.982 952.408 140.909C955.462 136.964 959.281 133.972 963.863 131.936C960.808 129.772 958.39 127.163 956.608 124.108C954.826 121.054 953.935 117.744 953.935 114.18C953.935 109.216 955.781 104.762 959.472 100.816C963.163 96.743 967.745 94.0065 973.218 92.6064C968.254 89.4244 964.308 85.797 961.381 81.724C958.454 77.5238 956.99 73.1326 956.99 68.5505C956.99 56.8408 961.699 48.5039 971.118 43.54C980.664 38.4488 993.265 35.9032 1008.92 35.9032C1015.79 35.9032 1021.33 36.285 1025.53 37.0487C1031.77 33.103 1035.78 29.5392 1037.56 26.3572C1039.47 23.0479 1040.42 20.6932 1040.42 19.2932H1071.73ZM1008.54 55.7589C1004.34 55.7589 1000.9 56.8408 998.229 59.0045C995.556 61.1683 994.219 64.2866 994.219 68.3596C994.219 72.5598 995.428 75.7418 997.847 77.9056C1000.39 79.9421 1003.96 80.9603 1008.54 80.9603C1013.12 80.9603 1016.68 79.9421 1019.23 77.9056C1021.9 75.7418 1023.24 72.5598 1023.24 68.3596C1023.24 64.1594 1021.9 61.041 1019.23 59.0045C1016.68 56.8408 1013.12 55.7589 1008.54 55.7589ZM993.837 139C990.91 139 988.492 139.764 986.582 141.291C984.801 142.946 983.91 145.237 983.91 148.164C983.91 151.092 984.864 153.446 986.773 155.228C988.683 157.01 991.037 157.901 993.837 157.901H1023.62C1026.42 157.901 1028.78 157.01 1030.68 155.228C1032.72 153.574 1033.74 151.283 1033.74 148.355C1033.74 145.428 1032.79 143.137 1030.88 141.482C1028.97 139.827 1026.55 139 1023.62 139H993.837ZM1158.14 135.945C1152.92 150.073 1146.5 160.765 1138.86 168.02C1131.35 175.402 1120.79 179.093 1107.17 179.093C1098.89 179.093 1091.57 177.948 1085.21 175.657V152.937H1100.48C1110.03 152.937 1115.69 148.291 1117.48 139L1077.38 38.1942H1118.24L1137.52 105.207H1138.86L1156.61 38.1942H1194.03L1158.14 135.945Z" fill="url(#paint0_linear_568_310)"/>
<defs>
<linearGradient id="paint0_linear_568_310" x1="162.871" y1="106.965" x2="1110.88" y2="68.9182" gradientUnits="userSpaceOnUse">
<stop stop-color="white"/>
<stop offset="1" stop-color="white" stop-opacity="0.34"/>
</linearGradient>
</defs>
</svg>
