<svg width="530" height="416" viewBox="0 0 530 416" fill="none" xmlns="http://www.w3.org/2000/svg">
<path d="M336.308 140.955C324.47 140.955 315.306 139.745 308.814 137.327C302.45 134.909 297.995 131.154 295.45 126.063C292.904 120.844 291.44 114.289 291.059 106.397L287.049 0.243625H313.779L317.788 93.6055C318.042 99.4605 318.679 103.852 319.697 106.779C320.715 109.707 322.625 111.68 325.425 112.698C328.352 113.716 332.616 114.225 338.217 114.225C343.054 114.225 346.49 115.498 348.527 118.044C350.69 120.462 351.772 123.517 351.772 127.208C351.772 131.154 350.436 134.463 347.763 137.136C345.09 139.682 341.272 140.955 336.308 140.955ZM336.567 140.955L338.476 114.225C343.058 114.225 347.004 113.78 350.314 112.889C353.623 111.998 356.423 110.216 358.714 107.543C361.005 104.743 362.915 100.67 364.442 95.3238C366.097 89.9779 367.56 82.8501 368.833 73.9403L393.844 78.1406C393.59 80.0499 393.208 82.2773 392.699 84.823C392.317 87.3686 391.935 89.9779 391.553 92.6508C391.299 95.1965 391.171 97.6149 391.171 99.906C391.171 102.197 391.617 104.234 392.508 106.016C393.399 107.797 394.799 109.325 396.708 110.598C398.745 111.743 401.354 112.634 404.536 113.271C407.845 113.907 411.855 114.225 416.564 114.225C421.401 114.225 424.838 115.498 426.874 118.044C428.911 120.462 429.929 123.517 429.929 127.208C429.929 131.154 428.592 134.463 425.92 137.136C423.374 139.682 419.619 140.955 414.655 140.955C408.927 140.955 403.709 140.509 398.999 139.618C394.417 138.727 390.408 137.263 386.971 135.227C383.662 133.063 380.925 130.263 378.761 126.826C376.725 123.262 375.452 118.935 374.943 113.843H384.107C381.816 119.953 378.889 124.853 375.325 128.545C371.888 132.108 368.006 134.781 363.678 136.563C359.351 138.345 354.832 139.491 350.123 140C345.541 140.636 341.022 140.955 336.567 140.955ZM389.835 185.249C386.144 185.249 382.962 183.913 380.289 181.24C377.743 178.694 376.47 175.639 376.47 172.075C376.47 168.384 377.743 165.202 380.289 162.529C382.962 159.856 386.144 158.52 389.835 158.52C393.399 158.52 396.454 159.856 398.999 162.529C401.545 165.202 402.818 168.384 402.818 172.075C402.818 175.639 401.545 178.694 398.999 181.24C396.454 183.913 393.399 185.249 389.835 185.249ZM356.805 185.249C353.114 185.249 349.932 183.913 347.259 181.24C344.713 178.694 343.44 175.639 343.44 172.075C343.44 168.384 344.713 165.202 347.259 162.529C349.932 159.856 353.114 158.52 356.805 158.52C360.369 158.52 363.424 159.856 365.969 162.529C368.515 165.202 369.788 168.384 369.788 172.075C369.788 175.639 368.515 178.694 365.969 181.24C363.424 183.913 360.369 185.249 356.805 185.249ZM492.395 141.527C486.668 141.527 480.749 140.827 474.639 139.427C468.657 138.027 462.866 135.927 457.265 133.127C451.665 130.327 446.637 126.826 442.182 122.626C437.727 118.426 434.164 113.589 431.491 108.116C428.945 102.515 427.672 96.2148 427.672 89.2142C427.672 83.4865 428.881 78.2043 431.3 73.3675C433.718 68.5308 437.282 64.6487 441.991 61.7212C446.828 58.6664 452.683 57.139 459.556 57.139C466.048 57.139 471.648 58.73 476.358 61.9121C481.194 64.9669 484.949 68.9763 487.622 73.9403C490.295 78.777 491.632 83.8683 491.632 89.2142C491.632 97.7422 489.532 105.252 485.331 111.743C481.131 118.107 475.339 123.453 467.957 127.781C460.702 132.108 452.492 135.418 443.328 137.709C434.164 139.873 424.617 140.955 414.689 140.955L416.599 114.225C423.854 114.225 430.154 114.034 435.5 113.652C440.973 113.271 445.683 112.443 449.628 111.17C453.574 109.898 457.011 107.988 459.938 105.443C462.866 102.897 465.093 100.097 466.621 97.0421C468.275 93.86 469.103 90.7416 469.103 87.6868C469.103 85.6503 468.784 83.7411 468.148 81.9591C467.639 80.1771 466.748 78.7134 465.475 77.5678C464.33 76.295 462.802 75.6586 460.893 75.6586C458.856 75.6586 457.138 76.295 455.738 77.5678C454.465 78.7134 453.447 80.2408 452.683 82.15C452.047 84.0593 451.729 86.0958 451.729 88.2596C451.729 92.7145 452.874 96.7239 455.165 100.288C457.584 103.852 460.766 106.843 464.711 109.261C468.657 111.68 472.985 113.525 477.694 114.798C482.531 116.071 487.431 116.707 492.395 116.707C496.341 116.707 499.141 116.071 500.796 114.798C502.451 113.525 503.278 111.807 503.278 109.643C503.278 108.116 502.896 106.525 502.132 104.87C501.496 103.088 500.032 100.924 497.741 98.3786C495.45 95.8329 491.95 92.7145 487.24 89.0233C482.531 85.2048 476.23 80.4954 468.339 74.8949C460.447 69.2945 450.519 62.4849 438.555 54.466L453.256 33.6553C466.748 43.2015 478.012 51.5385 487.049 58.6664C496.214 65.7942 503.596 72.0311 509.197 77.3769C514.797 82.7228 519.061 87.4323 521.989 91.5053C525.043 95.4511 527.08 99.0786 528.098 102.388C529.116 105.697 529.626 109.007 529.626 112.316C529.626 118.426 528.162 123.644 525.234 127.972C522.307 132.299 518.043 135.672 512.442 138.091C506.969 140.382 500.287 141.527 492.395 141.527ZM0.515538 365.654C0.515538 362.727 0.770103 359.29 1.27923 355.344C1.78836 351.398 2.74298 346.944 4.14309 341.98C5.5432 336.888 7.64337 331.224 10.4436 324.987L33.9272 333.197C32.5271 337.143 31.3179 340.77 30.2997 344.08C29.2814 347.262 28.5177 350.253 28.0086 353.053C27.4995 355.726 27.2449 358.399 27.2449 361.072C27.2449 367.309 28.645 372.4 31.4452 376.346C34.3727 380.419 38.4458 383.41 43.6644 385.319C48.883 387.356 54.9289 388.374 61.8021 388.374C69.6937 388.374 76.1851 387.292 81.2764 385.128C86.3677 383.092 90.3135 380.355 93.1137 376.919C95.9139 373.609 97.8868 369.982 99.0323 366.036C100.178 361.963 100.751 358.017 100.751 354.199C100.751 348.98 99.8597 342.807 98.0777 335.679C96.2957 328.424 93.1137 320.278 88.5315 311.241L113.161 300.74C115.706 305.195 118.061 310.413 120.225 316.396C122.389 322.251 124.107 328.36 125.38 334.724C126.78 341.089 127.48 347.135 127.48 352.862C127.48 357.954 126.844 363.363 125.571 369.091C124.298 374.691 122.134 380.228 119.079 385.701C116.152 391.174 112.142 396.075 107.051 400.402C101.96 404.857 95.6593 408.421 88.1497 411.094C80.64 413.767 71.6666 415.103 61.2294 415.103C52.8287 415.103 44.9372 414.149 37.5548 412.24C30.2997 410.458 23.8719 407.594 18.2715 403.648C12.7983 399.702 8.4707 394.547 5.28864 388.183C2.10657 381.946 0.515538 374.437 0.515538 365.654ZM62.7568 293.103C58.811 293.103 55.438 291.767 52.6378 289.094C49.9649 286.421 48.6284 283.111 48.6284 279.166C48.6284 275.22 49.9649 271.847 52.6378 269.047C55.438 266.246 58.811 264.846 62.7568 264.846C66.5752 264.846 69.821 266.246 72.4939 269.047C75.2941 271.847 76.6942 275.22 76.6942 279.166C76.6942 283.111 75.2941 286.421 72.4939 289.094C69.821 291.767 66.5752 293.103 62.7568 293.103ZM147.949 414.913L142.412 388.183C151.449 387.038 159.341 385.638 166.087 383.983C172.833 382.455 178.497 380.292 183.079 377.491C187.661 374.691 191.098 370.873 193.389 366.036C195.68 361.072 196.826 354.708 196.826 346.944C196.826 344.143 196.571 341.343 196.062 338.543C195.553 335.615 194.789 332.942 193.771 330.524C192.753 328.106 191.416 326.133 189.761 324.605C188.234 323.078 186.388 322.314 184.225 322.314C181.934 322.314 179.897 323.142 178.115 324.796C176.333 326.324 174.933 328.297 173.915 330.715C172.897 333.006 172.387 335.361 172.387 337.779C172.387 339.561 172.833 341.089 173.724 342.361C174.615 343.507 175.951 344.398 177.733 345.034C179.515 345.543 181.743 345.798 184.416 345.798C187.47 345.798 190.589 345.48 193.771 344.843C197.08 344.08 200.071 343.061 202.744 341.789L203.508 362.599C200.453 365.018 196.953 367.182 193.007 369.091C189.061 370.873 184.288 371.764 178.688 371.764C174.106 371.764 169.842 371.255 165.896 370.236C161.95 369.091 158.45 367.372 155.395 365.081C152.468 362.79 150.177 359.863 148.522 356.299C146.867 352.608 146.04 348.216 146.04 343.125C146.04 336.888 147.058 330.842 149.095 324.987C151.131 319.132 153.931 313.914 157.495 309.332C161.187 304.622 165.387 300.931 170.096 298.258C174.933 295.458 180.024 294.058 185.37 294.058C191.734 294.058 197.271 295.649 201.981 298.831C206.817 302.013 210.827 306.213 214.009 311.432C217.191 316.523 219.609 322.06 221.264 328.042C222.919 334.024 223.746 339.752 223.746 345.225C223.746 359.608 220.691 371.827 214.582 381.883C208.472 391.938 199.753 399.702 188.425 405.175C177.097 410.776 163.605 414.022 147.949 414.913ZM292.678 371.955C280.841 371.955 271.677 370.745 265.185 368.327C258.821 365.909 254.366 362.154 251.821 357.063C249.275 351.844 247.811 345.289 247.429 337.397L243.42 231.244H270.149L274.159 324.605C274.413 330.46 275.05 334.852 276.068 337.779C277.086 340.707 278.996 342.68 281.796 343.698C284.723 344.716 288.987 345.225 294.588 345.225C299.424 345.225 302.861 346.498 304.898 349.044C307.061 351.462 308.143 354.517 308.143 358.208C308.143 362.154 306.807 365.463 304.134 368.136C301.461 370.682 297.642 371.955 292.678 371.955ZM292.174 371.955L294.084 345.225C302.993 345.225 311.012 344.652 318.14 343.507C325.268 342.234 331.505 340.579 336.851 338.543C342.324 336.506 346.842 334.152 350.406 331.479C354.097 328.806 356.834 326.006 358.616 323.078C360.525 320.023 361.48 317.032 361.48 314.105C361.48 312.45 361.034 310.923 360.143 309.522C359.38 307.995 358.043 306.786 356.134 305.895C354.225 304.877 351.615 304.368 348.306 304.368C346.651 304.368 344.678 304.558 342.387 304.94C340.096 305.322 337.805 305.895 335.514 306.659C333.223 307.295 331.059 308.186 329.023 309.332C331.696 311.368 334.623 313.977 337.805 317.159C340.987 320.214 344.169 323.46 347.351 326.897C350.533 330.206 353.27 333.452 355.561 336.634C358.234 337.779 361.162 338.925 364.344 340.07C367.653 341.089 371.217 341.98 375.035 342.743C378.854 343.507 382.863 344.143 387.064 344.652C391.264 345.034 395.591 345.225 400.046 345.225C404.883 345.225 408.32 346.498 410.356 349.044C412.52 351.462 413.602 354.517 413.602 358.208C413.602 362.154 412.266 365.463 409.593 368.136C406.92 370.682 403.101 371.955 398.137 371.955C387.955 371.955 378.917 371.191 371.026 369.664C363.134 368.009 356.07 365.654 349.833 362.599C343.724 359.417 337.996 355.599 332.65 351.144C331.123 348.471 328.959 345.607 326.159 342.552C323.486 339.37 320.622 336.315 317.567 333.388C314.64 330.46 311.967 328.042 309.548 326.133C308.912 325.624 308.148 324.287 307.257 322.123C306.494 319.832 305.794 317.478 305.157 315.059C304.521 312.514 304.203 310.732 304.203 309.713C304.203 306.786 305.539 303.667 308.212 300.358C311.012 297.049 314.703 293.994 319.286 291.194C323.995 288.266 329.15 285.912 334.75 284.13C340.478 282.22 346.269 281.266 352.124 281.266C360.016 281.266 366.571 282.475 371.79 284.893C377.136 287.184 381.145 290.43 383.818 294.63C386.491 298.703 387.827 303.477 387.827 308.95C387.827 315.059 386.491 321.169 383.818 327.278C381.145 333.261 377.199 338.925 371.981 344.271C366.889 349.617 360.461 354.39 352.697 358.59C345.06 362.663 336.15 365.909 325.968 368.327C315.913 370.745 304.648 371.955 292.174 371.955ZM398.282 371.955L400.191 345.225C404.773 345.225 408.719 344.78 412.028 343.889C415.338 342.998 418.138 341.216 420.429 338.543C422.72 335.743 424.629 331.67 426.157 326.324C427.811 320.978 429.275 313.85 430.548 304.94L455.559 309.141C455.304 311.05 454.923 313.277 454.413 315.823C454.032 318.369 453.65 320.978 453.268 323.651C453.013 326.196 452.886 328.615 452.886 330.906C452.886 333.197 453.332 335.234 454.223 337.016C455.114 338.797 456.514 340.325 458.423 341.598C460.459 342.743 463.069 343.634 466.251 344.271C469.56 344.907 473.57 345.225 478.279 345.225C483.116 345.225 486.552 346.498 488.589 349.044C490.625 351.462 491.644 354.517 491.644 358.208C491.644 362.154 490.307 365.463 487.634 368.136C485.089 370.682 481.334 371.955 476.37 371.955C470.642 371.955 465.423 371.509 460.714 370.618C456.132 369.727 452.122 368.263 448.686 366.227C445.376 364.063 442.64 361.263 440.476 357.826C438.439 354.262 437.167 349.935 436.658 344.843H445.822C443.531 350.953 440.603 355.853 437.039 359.545C433.603 363.108 429.721 365.781 425.393 367.563C421.065 369.345 416.547 370.491 411.837 371C407.255 371.636 402.737 371.955 398.282 371.955ZM459.568 287.757C455.877 287.757 452.695 286.484 450.022 283.939C447.477 281.266 446.204 278.147 446.204 274.583C446.204 270.892 447.477 267.71 450.022 265.037C452.695 262.364 455.877 261.028 459.568 261.028C463.132 261.028 466.187 262.364 468.733 265.037C471.278 267.71 472.551 270.892 472.551 274.583C472.551 278.147 471.278 281.266 468.733 283.939C466.187 286.484 463.132 287.757 459.568 287.757ZM426.539 287.566C422.847 287.566 419.665 286.293 416.992 283.748C414.447 281.075 413.174 277.956 413.174 274.392C413.174 270.701 414.447 267.519 416.992 264.846C419.665 262.173 422.847 260.837 426.539 260.837C430.102 260.837 433.157 262.173 435.703 264.846C438.249 267.519 439.521 270.701 439.521 274.392C439.521 277.956 438.249 281.075 435.703 283.748C433.157 286.293 430.102 287.566 426.539 287.566ZM476.404 371.955L478.313 345.225C483.914 345.225 488.305 344.843 491.487 344.08C494.796 343.316 497.151 341.916 498.551 339.879C499.951 337.716 500.651 334.661 500.651 330.715C500.651 327.151 500.142 322.887 499.124 317.923C498.233 312.959 497.024 307.804 495.496 302.458C493.969 297.112 492.442 292.212 490.914 287.757L517.262 280.502C518.789 284.83 520.317 289.857 521.844 295.585C523.371 301.313 524.644 307.231 525.662 313.341C526.808 319.323 527.381 325.115 527.381 330.715C527.381 337.716 526.49 343.634 524.708 348.471C522.926 353.18 520.444 357.126 517.262 360.308C514.207 363.363 510.516 365.781 506.188 367.563C501.988 369.218 497.342 370.364 492.251 371C487.159 371.636 481.877 371.955 476.404 371.955ZM503.897 264.655C499.951 264.655 496.578 263.319 493.778 260.646C491.105 257.973 489.769 254.664 489.769 250.718C489.769 246.772 491.105 243.399 493.778 240.599C496.578 237.799 499.951 236.399 503.897 236.399C507.716 236.399 510.961 237.799 513.634 240.599C516.434 243.399 517.835 246.772 517.835 250.718C517.835 254.664 516.434 257.973 513.634 260.646C510.961 263.319 507.716 264.655 503.897 264.655Z" fill="url(#paint0_linear_256_408)"/>
<defs>
<linearGradient id="paint0_linear_256_408" x1="191.891" y1="36.3334" x2="771.829" y2="323.424" gradientUnits="userSpaceOnUse">
<stop stop-color="white"/>
<stop offset="1" stop-color="white" stop-opacity="0.34"/>
</linearGradient>
</defs>
</svg>
