<svg width="1048" height="265" viewBox="0 0 1048 265" fill="none" xmlns="http://www.w3.org/2000/svg">
<path d="M60.9555 264.224C52.5548 264.224 44.6633 263.333 37.2809 261.551C29.8985 259.769 23.4071 257.033 17.8066 253.341C12.3335 249.65 8.00587 244.877 4.8238 239.022C1.76902 233.167 0.241625 226.23 0.241625 218.211C0.241625 209.938 1.95994 202.619 5.39657 196.255C8.83321 190.018 13.2245 184.545 18.5703 179.836C23.9162 174.999 29.5803 170.671 35.5626 166.853C41.6721 162.907 47.3999 159.152 52.7457 155.588C58.0916 152.024 62.4829 148.397 65.9195 144.706C69.3561 140.887 71.0744 136.687 71.0744 132.105C71.0744 130.45 70.6289 128.923 69.738 127.522C68.9743 125.995 67.6378 124.786 65.7286 123.895C63.9466 122.877 61.4009 122.368 58.0916 122.368C55.9278 122.368 53.7003 122.622 51.4093 123.131C49.1182 123.513 46.8907 124.086 44.7269 124.85C42.5631 125.486 40.5266 126.313 38.6173 127.332C41.9267 130.004 45.1724 132.996 48.3545 136.305C51.6638 139.487 54.655 142.605 57.3279 145.66C60.1281 148.588 62.2919 151.133 63.8193 153.297C66.7468 154.825 69.9289 156.225 73.3655 157.498C76.8022 158.643 80.4297 159.661 84.2482 160.552C88.194 161.443 92.267 162.143 96.4673 162.652C100.668 163.034 104.995 163.225 109.45 163.225C114.287 163.225 117.724 164.498 119.76 167.044C121.797 169.462 122.815 172.517 122.815 176.208C122.815 180.154 121.478 183.463 118.805 186.136C116.132 188.682 112.378 189.955 107.541 189.955C96.9765 189.955 87.9394 189.191 80.4297 187.664C73.0473 186.136 66.365 183.845 60.3827 180.79C54.5277 177.608 48.4818 173.726 42.2449 169.144C40.7175 166.471 38.4901 163.543 35.5626 160.361C32.6351 157.052 29.6439 153.934 26.5891 151.006C23.6616 148.079 21.1796 145.788 19.1431 144.133C18.7613 143.751 18.1248 142.478 17.2339 140.314C16.3429 138.023 15.5155 135.605 14.7519 133.059C14.1154 130.514 13.7972 128.732 13.7972 127.713C13.7972 125.168 15.0064 122.304 17.4248 119.122C19.8432 115.812 23.2161 112.694 27.5438 109.767C31.9987 106.712 37.1536 104.23 43.0086 102.321C48.8636 100.284 55.2277 99.2657 62.101 99.2657C74.5747 99.2657 83.5481 101.939 89.0213 107.285C94.6217 112.503 97.4219 119.249 97.4219 127.522C97.4219 135.159 95.7036 141.969 92.267 147.951C88.9576 153.934 84.63 159.407 79.2842 164.371C73.9383 169.335 68.2742 173.917 62.2919 178.117C56.4369 182.318 50.8365 186.391 45.4906 190.336C40.1447 194.41 35.7535 198.483 32.3169 202.556C29.0075 206.756 27.3528 211.274 27.3528 216.111C27.3528 220.184 28.3711 223.557 30.4076 226.23C32.5714 229.03 35.308 231.258 38.6173 232.913C41.9267 234.567 45.5543 235.713 49.5 236.349C53.5731 237.113 57.5188 237.495 61.3373 237.495C65.2831 237.495 69.3561 237.176 73.5564 236.54C77.8841 235.904 82.3389 234.885 86.9211 233.485C91.6306 232.212 96.4673 230.558 101.431 228.521L109.45 251.432C104.613 253.978 99.4585 256.205 93.9853 258.114C88.5122 260.151 82.9754 261.678 77.3749 262.697C71.7745 263.715 66.3013 264.224 60.9555 264.224ZM107.601 189.955L109.51 163.416C120.074 163.416 128.539 163.353 134.903 163.225C141.394 163.098 146.422 162.843 149.986 162.462C153.677 161.952 156.413 161.38 158.195 160.743C159.977 159.98 161.505 159.152 162.778 158.261C164.305 157.116 165.578 155.588 166.596 153.679C167.742 151.643 168.633 148.97 169.269 145.66C169.905 142.351 170.224 138.214 170.224 133.25C170.224 127.013 169.651 121.795 168.505 117.594C167.487 113.267 165.96 110.021 163.923 107.857C162.014 105.693 159.659 104.612 156.859 104.612C154.822 104.612 152.913 105.312 151.131 106.712C149.349 107.985 147.886 109.767 146.74 112.058C145.594 114.349 145.022 116.958 145.022 119.886C145.022 121.54 145.467 123.004 146.358 124.277C147.249 125.55 148.649 126.504 150.558 127.141C152.468 127.777 154.886 128.095 157.814 128.095C160.614 128.095 163.541 127.777 166.596 127.141C169.778 126.377 172.706 125.359 175.379 124.086L176.142 146.806C174.106 148.206 171.751 149.479 169.078 150.624C166.405 151.77 163.541 152.661 160.487 153.297C157.559 153.806 154.568 154.061 151.513 154.061C144.767 154.061 138.912 153.17 133.948 151.388C129.111 149.479 125.357 146.424 122.684 142.224C120.011 138.023 118.674 132.296 118.674 125.04C118.674 119.44 119.629 113.903 121.538 108.43C123.447 102.83 126.184 97.802 129.748 93.3471C133.312 88.7649 137.512 85.1373 142.349 82.4644C147.185 79.6642 152.531 78.2641 158.386 78.2641C167.042 78.2641 174.169 80.8097 179.77 85.901C185.498 90.8651 189.698 97.611 192.371 106.139C195.171 114.54 196.571 123.895 196.571 134.205C196.571 143.242 195.235 151.133 192.562 157.879C189.889 164.498 186.707 169.717 183.016 173.535C179.961 176.717 176.461 179.39 172.515 181.554C168.569 183.718 163.732 185.436 158.005 186.709C152.404 187.854 145.467 188.682 137.194 189.191C129.048 189.7 119.183 189.955 107.601 189.955ZM174.615 60.89C170.924 60.89 167.742 59.6172 165.069 57.0715C162.523 54.3986 161.25 51.2802 161.25 47.7162C161.25 44.025 162.523 40.843 165.069 38.17C167.742 35.4971 170.924 34.1606 174.615 34.1606C178.179 34.1606 181.234 35.4971 183.779 38.17C186.325 40.843 187.598 44.025 187.598 47.7162C187.598 51.2802 186.325 54.3986 183.779 57.0715C181.234 59.6172 178.179 60.89 174.615 60.89ZM141.585 60.6991C137.894 60.6991 134.712 59.4262 132.039 56.8806C129.493 54.2076 128.22 51.0892 128.22 47.5253C128.22 43.8341 129.493 40.652 132.039 37.9791C134.712 35.3062 137.894 33.9697 141.585 33.9697C145.149 33.9697 148.204 35.3062 150.749 37.9791C153.295 40.652 154.568 43.8341 154.568 47.5253C154.568 51.0892 153.295 54.2076 150.749 56.8806C148.204 59.4262 145.149 60.6991 141.585 60.6991ZM214.877 232.913L209.341 206.183C218.378 205.038 226.269 203.638 233.015 201.983C239.761 200.455 245.425 198.292 250.007 195.491C254.59 192.691 258.026 188.873 260.317 184.036C262.608 179.072 263.754 172.708 263.754 164.944C263.754 157.434 262.608 151.452 260.317 146.997C258.026 142.542 254.972 140.314 251.153 140.314C248.48 140.314 246.253 141.269 244.471 143.178C242.689 144.96 241.352 147.124 240.461 149.67C239.698 152.088 239.316 154.252 239.316 156.161C239.316 157.307 239.634 158.516 240.27 159.789C240.907 161.061 242.307 162.143 244.471 163.034C246.635 163.925 250.007 164.434 254.59 164.562C259.299 164.689 265.663 164.244 273.682 163.225H305.757C310.594 163.225 314.031 164.498 316.067 167.044C318.231 169.462 319.313 172.517 319.313 176.208C319.313 180.154 317.976 183.463 315.304 186.136C312.631 188.682 308.812 189.955 303.848 189.955H251.344C243.325 189.955 236.452 189 230.724 187.091C224.996 185.182 220.605 182.127 217.55 177.926C214.496 173.599 212.968 167.871 212.968 160.743C212.968 155.016 213.923 149.288 215.832 143.56C217.869 137.832 220.669 132.614 224.233 127.904C227.797 123.068 231.933 119.249 236.643 116.449C241.48 113.521 246.698 112.058 252.299 112.058C259.936 112.058 266.618 114.412 272.346 119.122C278.073 123.831 282.528 130.068 285.71 137.832C289.02 145.597 290.674 154.061 290.674 163.225C290.674 177.608 287.62 189.827 281.51 199.883C275.4 209.938 266.682 217.702 255.353 223.175C244.025 228.776 230.533 232.022 214.877 232.913ZM304.118 189.955L306.027 163.225C309.209 163.225 311.628 162.589 313.282 161.316C314.937 160.043 316.592 157.816 318.246 154.634C319.901 151.452 322.192 147.124 325.12 141.651C328.302 135.541 331.611 130.45 335.048 126.377C338.484 122.177 341.921 118.867 345.358 116.449C348.922 113.903 352.422 112.121 355.858 111.103C359.422 109.957 362.923 109.385 366.359 109.385C371.069 109.385 375.46 110.403 379.533 112.439C383.733 114.349 387.743 117.722 391.561 122.558C395.38 127.268 399.007 133.759 402.444 142.033C404.862 147.76 407.281 152.152 409.699 155.206C412.117 158.261 414.599 160.361 417.145 161.507C419.818 162.652 422.491 163.225 425.164 163.225C430.001 163.225 433.437 164.498 435.474 167.044C437.51 169.462 438.529 172.517 438.529 176.208C438.529 180.154 437.192 183.463 434.519 186.136C431.846 188.682 428.091 189.955 423.255 189.955C417.018 189.955 411.354 188.936 406.262 186.9C401.171 184.863 397.162 181.809 394.234 177.735L399.771 173.535C398.625 176.208 396.907 179.008 394.616 181.936C392.452 184.863 389.588 187.345 386.024 189.382C382.588 191.418 378.451 192.437 373.614 192.437C370.432 192.437 366.677 191.8 362.35 190.527C358.15 189.382 353.758 187.409 349.176 184.609C344.721 181.681 340.585 177.735 336.766 172.771C334.348 177.226 331.675 180.727 328.747 183.272C325.82 185.691 322.383 187.409 318.437 188.427C314.492 189.445 309.718 189.955 304.118 189.955ZM347.84 150.242C349.112 152.152 350.64 154.061 352.422 155.97C354.204 157.879 356.177 159.598 358.34 161.125C360.504 162.525 362.795 163.671 365.214 164.562C367.759 165.453 370.241 165.898 372.66 165.898C375.205 165.898 377.306 164.944 378.96 163.034C380.615 160.998 380.679 158.007 379.151 154.061C378.515 152.406 377.624 150.561 376.478 148.524C375.46 146.36 374.251 144.324 372.851 142.415C371.578 140.505 370.114 138.914 368.459 137.641C366.932 136.369 365.341 135.732 363.686 135.732C362.032 135.732 360.313 136.241 358.531 137.26C356.749 138.278 354.967 139.869 353.186 142.033C351.404 144.069 349.622 146.806 347.84 150.242ZM423.259 189.955L425.168 163.225C431.023 163.225 435.224 162.652 437.769 161.507C440.315 160.234 441.842 157.943 442.351 154.634C442.861 151.197 442.988 146.233 442.733 139.742L439.297 49.2436H466.217L470.035 141.651C470.29 149.033 469.972 155.716 469.081 161.698C468.317 167.553 466.344 172.581 463.162 176.781C460.107 180.981 455.334 184.227 448.843 186.518C442.479 188.809 433.951 189.955 423.259 189.955ZM495.214 189L491.204 49.2436H517.934L521.943 189H495.214ZM685.657 189.955C676.62 189.955 668.792 188.809 662.174 186.518C655.682 184.1 650.655 180.281 647.091 175.063C643.527 169.717 641.49 162.589 640.981 153.679L637.544 76.7367H664.465L667.71 144.324C667.965 149.542 668.792 153.552 670.192 156.352C671.72 159.025 673.884 160.871 676.684 161.889C679.484 162.78 683.112 163.225 687.567 163.225C692.403 163.225 695.84 164.498 697.876 167.044C699.913 169.462 700.931 172.517 700.931 176.208C700.931 180.154 699.595 183.463 696.922 186.136C694.376 188.682 690.621 189.955 685.657 189.955ZM650.718 172.199C642.19 174.108 633.981 174.999 626.089 174.872C618.197 174.617 611.133 173.217 604.896 170.671C598.66 167.998 593.696 164.18 590.004 159.216C586.44 154.252 584.658 147.951 584.658 140.314C584.658 133.568 586.122 127.459 589.05 121.986C592.105 116.385 596.305 111.485 601.651 107.285C607.124 103.084 613.488 99.5203 620.743 96.5928C627.998 93.6653 635.89 91.4378 644.418 89.9104L647.091 117.022C641.617 117.276 636.653 118.04 632.199 119.313C627.871 120.458 624.116 121.986 620.934 123.895C617.879 125.804 615.525 127.968 613.87 130.386C612.215 132.677 611.388 135.159 611.388 137.832C611.388 139.996 612.152 141.778 613.679 143.178C615.206 144.578 617.243 145.724 619.789 146.615C622.334 147.379 625.262 147.824 628.571 147.951C631.88 148.079 635.253 147.888 638.69 147.379C642.254 146.869 645.754 146.042 649.191 144.897L650.718 172.199ZM651.291 57.0715C647.6 57.0715 644.418 55.7987 641.745 53.253C639.199 50.5801 637.926 47.4617 637.926 43.8978C637.926 40.2066 639.199 37.0245 641.745 34.3516C644.418 31.6786 647.6 30.3422 651.291 30.3422C654.855 30.3422 657.91 31.6786 660.455 34.3516C663.001 37.0245 664.274 40.2066 664.274 43.8978C664.274 47.4617 663.001 50.5801 660.455 53.253C657.91 55.7987 654.855 57.0715 651.291 57.0715ZM618.261 56.8806C614.57 56.8806 611.388 55.6078 608.715 53.0621C606.169 50.3892 604.896 47.2707 604.896 43.7068C604.896 40.0156 606.169 36.8336 608.715 34.1606C611.388 31.4877 614.57 30.1512 618.261 30.1512C621.825 30.1512 624.88 31.4877 627.425 34.1606C629.971 36.8336 631.244 40.0156 631.244 43.7068C631.244 47.2707 629.971 50.3892 627.425 53.0621C624.88 55.6078 621.825 56.8806 618.261 56.8806ZM685.593 189.955L687.502 163.225C692.085 163.225 696.03 162.78 699.34 161.889C702.649 160.998 705.449 159.216 707.74 156.543C710.031 153.743 711.941 149.67 713.468 144.324C715.123 138.978 716.586 131.85 717.859 122.94L742.87 127.141C742.616 129.05 742.234 131.277 741.725 133.823C741.343 136.369 740.961 138.978 740.579 141.651C740.325 144.196 740.197 146.615 740.197 148.906C740.197 151.197 740.643 153.234 741.534 155.016C742.425 156.797 743.825 158.325 745.734 159.598C747.771 160.743 750.38 161.634 753.562 162.271C756.871 162.907 760.881 163.225 765.59 163.225C770.427 163.225 773.864 164.498 775.9 167.044C777.937 169.462 778.955 172.517 778.955 176.208C778.955 180.154 777.619 183.463 774.946 186.136C772.4 188.682 768.645 189.955 763.681 189.955C757.953 189.955 752.735 189.509 748.025 188.618C743.443 187.727 739.434 186.263 735.997 184.227C732.688 182.063 729.951 179.263 727.787 175.826C725.751 172.262 724.478 167.935 723.969 162.843H733.133C730.842 168.953 727.915 173.853 724.351 177.545C720.914 181.108 717.032 183.781 712.704 185.563C708.377 187.345 703.858 188.491 699.149 189C694.567 189.636 690.048 189.955 685.593 189.955ZM738.861 234.249C735.17 234.249 731.988 232.913 729.315 230.24C726.769 227.694 725.496 224.639 725.496 221.075C725.496 217.384 726.769 214.202 729.315 211.529C731.988 208.856 735.17 207.52 738.861 207.52C742.425 207.52 745.48 208.856 748.025 211.529C750.571 214.202 751.844 217.384 751.844 221.075C751.844 224.639 750.571 227.694 748.025 230.24C745.48 232.913 742.425 234.249 738.861 234.249ZM705.831 234.249C702.14 234.249 698.958 232.913 696.285 230.24C693.739 227.694 692.466 224.639 692.466 221.075C692.466 217.384 693.739 214.202 696.285 211.529C698.958 208.856 702.14 207.52 705.831 207.52C709.395 207.52 712.45 208.856 714.995 211.529C717.541 214.202 718.814 217.384 718.814 221.075C718.814 224.639 717.541 227.694 714.995 230.24C712.45 232.913 709.395 234.249 705.831 234.249ZM763.715 189.955L765.625 163.225C768.807 163.225 771.225 162.589 772.88 161.316C774.534 160.043 776.189 157.816 777.844 154.634C779.498 151.452 781.789 147.124 784.717 141.651C787.899 135.541 791.208 130.45 794.645 126.377C798.082 122.177 801.518 118.867 804.955 116.449C808.519 113.903 812.019 112.121 815.456 111.103C819.02 109.957 822.52 109.385 825.957 109.385C830.666 109.385 835.057 110.403 839.13 112.439C843.331 114.349 847.34 117.722 851.159 122.558C854.977 127.268 858.605 133.759 862.041 142.033C864.46 147.76 866.878 152.152 869.296 155.206C871.715 158.261 874.197 160.361 876.742 161.507C879.415 162.652 882.088 163.225 884.761 163.225C889.598 163.225 893.035 164.498 895.071 167.044C897.108 169.462 898.126 172.517 898.126 176.208C898.126 180.154 896.789 183.463 894.116 186.136C891.443 188.682 887.689 189.955 882.852 189.955C876.615 189.955 870.951 188.936 865.86 186.9C860.768 184.863 856.759 181.809 853.831 177.735L859.368 173.535C858.223 176.208 856.504 179.008 854.213 181.936C852.05 184.863 849.186 187.345 845.622 189.382C842.185 191.418 838.048 192.437 833.212 192.437C830.03 192.437 826.275 191.8 821.947 190.527C817.747 189.382 813.356 187.409 808.773 184.609C804.319 181.681 800.182 177.735 796.363 172.771C793.945 177.226 791.272 180.727 788.345 183.272C785.417 185.691 781.98 187.409 778.035 188.427C774.089 189.445 769.316 189.955 763.715 189.955ZM807.437 150.242C808.71 152.152 810.237 154.061 812.019 155.97C813.801 157.879 815.774 159.598 817.938 161.125C820.102 162.525 822.393 163.671 824.811 164.562C827.357 165.453 829.839 165.898 832.257 165.898C834.803 165.898 836.903 164.944 838.558 163.034C840.212 160.998 840.276 158.007 838.748 154.061C838.112 152.406 837.221 150.561 836.076 148.524C835.057 146.36 833.848 144.324 832.448 142.415C831.175 140.505 829.711 138.914 828.057 137.641C826.529 136.369 824.938 135.732 823.284 135.732C821.629 135.732 819.911 136.241 818.129 137.26C816.347 138.278 814.565 139.869 812.783 142.033C811.001 144.069 809.219 146.806 807.437 150.242ZM960.562 190.527C954.835 190.527 948.916 189.827 942.807 188.427C936.824 187.027 931.033 184.927 925.432 182.127C919.832 179.327 914.804 175.826 910.349 171.626C905.895 167.426 902.331 162.589 899.658 157.116C897.112 151.515 895.839 145.215 895.839 138.214C895.839 132.486 897.048 127.204 899.467 122.368C901.885 117.531 905.449 113.649 910.159 110.721C914.995 107.666 920.85 106.139 927.724 106.139C934.215 106.139 939.815 107.73 944.525 110.912C949.362 113.967 953.116 117.976 955.789 122.94C958.462 127.777 959.799 132.868 959.799 138.214C959.799 146.742 957.699 154.252 953.498 160.743C949.298 167.107 943.507 172.453 936.124 176.781C928.869 181.108 920.659 184.418 911.495 186.709C902.331 188.873 892.784 189.955 882.856 189.955L884.766 163.225C892.021 163.225 898.321 163.034 903.667 162.652C909.14 162.271 913.85 161.443 917.795 160.17C921.741 158.898 925.178 156.988 928.105 154.443C931.033 151.897 933.26 149.097 934.788 146.042C936.442 142.86 937.27 139.742 937.27 136.687C937.27 134.65 936.952 132.741 936.315 130.959C935.806 129.177 934.915 127.713 933.642 126.568C932.497 125.295 930.969 124.659 929.06 124.659C927.023 124.659 925.305 125.295 923.905 126.568C922.632 127.713 921.614 129.241 920.85 131.15C920.214 133.059 919.896 135.096 919.896 137.26C919.896 141.714 921.041 145.724 923.332 149.288C925.751 152.852 928.933 155.843 932.878 158.261C936.824 160.68 941.152 162.525 945.861 163.798C950.698 165.071 955.598 165.707 960.562 165.707C964.508 165.707 967.308 165.071 968.963 163.798C970.618 162.525 971.445 160.807 971.445 158.643C971.445 157.116 971.063 155.525 970.3 153.87C969.663 152.088 968.199 149.924 965.908 147.379C963.617 144.833 960.117 141.714 955.408 138.023C950.698 134.205 944.398 129.495 936.506 123.895C928.615 118.294 918.686 111.485 906.722 103.466L921.423 82.6553C934.915 92.2015 946.18 100.539 955.217 107.666C964.381 114.794 971.763 121.031 977.364 126.377C982.964 131.723 987.228 136.432 990.156 140.505C993.21 144.451 995.247 148.079 996.265 151.388C997.284 154.697 997.793 158.007 997.793 161.316C997.793 167.426 996.329 172.644 993.401 176.972C990.474 181.299 986.21 184.672 980.609 187.091C975.136 189.382 968.454 190.527 960.562 190.527ZM1020.06 189L1016.43 62.6083H1043.16L1046.79 189H1020.06ZM1009.56 50.3892L1006.31 37.0245C1010.77 36.2608 1014.08 35.6244 1016.24 35.1152C1018.53 34.6061 1020.95 34.0333 1023.5 33.3969L1021.59 38.17C1018.28 37.0245 1015.1 34.797 1012.04 31.4877C1009.11 28.0511 1007.65 24.1689 1007.65 19.8413C1007.65 15.2592 1008.67 11.568 1010.7 8.76774C1012.74 5.96752 1015.35 3.931 1018.53 2.65817C1021.71 1.38534 1025.02 0.748928 1028.46 0.748928C1030.37 0.748928 1032.15 0.876213 1033.81 1.13078C1035.59 1.38534 1037.18 1.76719 1038.58 2.27632L1037.05 16.0229C1035.78 15.7683 1034.51 15.5137 1033.23 15.2592C1031.96 15.0046 1030.56 14.8773 1029.03 14.8773C1027.38 14.8773 1025.85 15.4501 1024.45 16.5956C1023.18 17.6139 1022.54 18.8867 1022.54 20.4141C1022.54 22.5779 1023.3 24.4871 1024.83 26.1418C1026.36 27.7965 1028.14 29.133 1030.18 30.1512C1032.34 31.0422 1034.12 31.5513 1035.52 31.6786L1025.02 32.8242C1028.46 31.9332 1031.71 31.0422 1034.76 30.1512C1037.82 29.133 1040.68 28.1147 1043.35 27.0964L1047.17 39.8884C1043.99 41.0339 1040.23 42.3067 1035.91 43.7068C1031.71 44.9797 1027.31 46.1888 1022.73 47.3344C1018.28 48.4799 1013.89 49.4982 1009.56 50.3892Z" fill="url(#paint0_linear_685_716)"/>
<defs>
<linearGradient id="paint0_linear_685_716" x1="145.387" y1="155" x2="983.194" y2="128.259" gradientUnits="userSpaceOnUse">
<stop/>
<stop offset="1" stop-opacity="0.34"/>
</linearGradient>
</defs>
</svg>
