<svg width="596" height="180" viewBox="0 0 596 180" fill="none" xmlns="http://www.w3.org/2000/svg">
<path d="M0.662754 129.654C0.662754 125.199 1.23553 119.662 2.38107 113.044C3.6539 106.298 6.39047 98.2789 10.5908 88.9873L34.0745 97.197C31.9107 103.179 30.256 108.334 29.1104 112.662C27.9649 116.862 27.3921 120.999 27.3921 125.072C27.3921 130.8 28.6649 135.7 31.2106 139.773C33.8835 143.846 37.7657 146.965 42.857 149.128C48.0755 151.292 54.4397 152.374 61.9494 152.374C69.5863 152.374 75.9505 151.547 81.0418 149.892C86.1331 148.237 90.1425 145.883 93.07 142.828C95.9975 139.9 98.0976 136.464 99.3705 132.518C100.643 128.572 101.28 124.308 101.28 119.726C101.28 116.162 100.834 112.153 99.9432 107.698C99.1795 103.243 98.034 98.4062 96.5066 93.1876C94.9792 87.8418 93.2609 82.2413 91.3517 76.3863L118.081 69.5131C119.354 74.3498 120.372 78.4865 121.136 81.9231C122.027 85.3598 122.79 88.2236 123.427 90.5147C124.063 92.6785 124.572 94.4605 124.954 95.8606C126.227 99.6791 127.945 102.543 130.109 104.452C132.273 106.361 135.073 107.634 138.51 108.271C142.074 108.907 146.338 109.225 151.302 109.225C156.139 109.225 159.575 110.498 161.612 113.044C163.648 115.462 164.666 118.517 164.666 122.208C164.666 126.154 163.33 129.463 160.657 132.136C157.984 134.682 154.229 135.955 149.393 135.955C145.065 135.955 140.737 135.382 136.41 134.236C132.209 132.963 128.582 130.927 125.527 128.127C122.472 125.327 120.499 121.572 119.608 116.862L126.673 124.499C126.418 133.154 124.7 140.855 121.518 147.601C118.336 154.347 113.881 160.075 108.153 164.784C102.553 169.494 95.7429 173.058 87.7241 175.476C79.8326 177.894 70.9864 179.103 61.1857 179.103C52.6577 179.103 44.7026 178.149 37.3202 176.24C30.0651 174.458 23.6373 171.53 18.0368 167.457C12.5637 163.511 8.29971 158.42 5.24493 152.183C2.19015 145.946 0.662754 138.437 0.662754 129.654ZM62.904 57.103C58.9582 57.103 55.5852 55.7665 52.785 53.0936C50.1121 50.4207 48.7756 47.1113 48.7756 43.1656C48.7756 39.2198 50.1121 35.8468 52.785 33.0466C55.5852 30.2464 58.9582 28.8462 62.904 28.8462C66.7225 28.8462 69.9682 30.2464 72.6411 33.0466C75.4413 35.8468 76.8414 39.2198 76.8414 43.1656C76.8414 47.1113 75.4413 50.4207 72.6411 53.0936C69.9682 55.7665 66.7225 57.103 62.904 57.103ZM340.83 135.955C334.338 135.955 328.101 135.382 322.119 134.236C316.137 132.963 310.727 131.309 305.891 129.272C301.181 127.236 297.299 124.945 294.244 122.399L311.427 103.879C316.01 105.789 320.719 107.189 325.556 108.08C330.392 108.843 336.12 109.225 342.739 109.225C347.576 109.225 351.012 110.498 353.049 113.044C355.213 115.462 356.295 118.517 356.295 122.208C356.295 126.154 354.958 129.463 352.285 132.136C349.612 134.682 345.794 135.955 340.83 135.955ZM248.232 138.437C236.394 138.437 226.53 137.928 218.638 136.909C210.874 135.891 204.574 134.427 199.737 132.518C194.9 130.609 191.082 128.318 188.281 125.645C185.481 122.972 183.19 120.044 181.408 116.862L186.754 115.335C183.572 121.444 179.944 125.963 175.871 128.89C171.798 131.818 167.534 133.727 163.079 134.618C158.625 135.509 154.042 135.955 149.333 135.955L151.242 109.225C155.188 109.225 158.306 108.589 160.597 107.316C162.888 106.043 164.734 103.943 166.134 101.016C167.662 98.088 169.062 94.2059 170.335 89.3692C171.607 84.5324 173.135 78.6138 174.917 71.6132L199.164 77.5319C198.273 80.9685 197.509 83.9596 196.873 86.5053C196.364 89.051 195.918 91.2784 195.536 93.1876C195.282 94.9696 195.155 96.4334 195.155 97.5789C195.155 99.9973 195.727 102.161 196.873 104.07C198.019 105.852 200.246 107.316 203.555 108.462C206.865 109.48 211.701 110.307 218.066 110.944C224.557 111.453 233.021 111.707 243.458 111.707C254.532 111.707 263.76 111.325 271.142 110.562C278.525 109.671 284.38 108.462 288.707 106.934C293.162 105.279 296.344 103.307 298.254 101.016C300.163 98.5972 301.117 95.8606 301.117 92.8058C301.117 90.3874 300.545 88.16 299.399 86.1235C298.381 83.9597 296.663 82.1777 294.244 80.7776C291.826 79.3775 288.707 78.6774 284.889 78.6774C280.307 78.6774 275.661 79.823 270.951 82.1141C266.369 84.2779 261.851 87.2054 257.396 90.8966C252.941 94.4605 248.677 98.4699 244.604 102.925C240.658 107.38 237.094 111.835 233.912 116.289L205.274 113.044C210.238 105.025 215.838 97.3243 222.075 89.9419C228.312 82.5595 234.994 76.0681 242.122 70.4677C249.25 64.74 256.632 60.2214 264.269 56.9121C271.906 53.6027 279.67 51.9481 287.562 51.9481C296.09 51.9481 303.345 53.6027 309.327 56.9121C315.309 60.2214 319.892 64.8036 323.074 70.6586C326.256 76.5136 327.847 83.2596 327.847 90.8966C327.847 100.188 325.174 108.398 319.828 115.526C314.609 122.654 306.145 128.254 294.435 132.327C282.852 136.4 267.451 138.437 248.232 138.437ZM282.025 34.1921C278.079 34.1921 274.706 32.8557 271.906 30.1827C269.233 27.5098 267.897 24.2004 267.897 20.2547C267.897 16.3089 269.233 12.9359 271.906 10.1357C274.706 7.33548 278.079 5.93537 282.025 5.93537C285.844 5.93537 289.089 7.33548 291.762 10.1357C294.562 12.9359 295.963 16.3089 295.963 20.2547C295.963 24.2004 294.562 27.5098 291.762 30.1827C289.089 32.8557 285.844 34.1921 282.025 34.1921ZM341.003 135.955L342.912 109.225C347.494 109.225 351.44 108.78 354.749 107.889C358.059 106.998 360.859 105.216 363.15 102.543C365.441 99.7427 367.35 95.6697 368.878 90.3238C370.532 84.9779 371.996 77.8501 373.269 68.9403L398.28 73.1406C398.025 75.0499 397.643 77.2773 397.134 79.823C396.752 82.3686 396.371 84.9779 395.989 87.6508C395.734 90.1965 395.607 92.6149 395.607 94.906C395.607 97.197 396.052 99.2336 396.943 101.016C397.834 102.797 399.235 104.325 401.144 105.598C403.18 106.743 405.79 107.634 408.972 108.271C412.281 108.907 416.29 109.225 421 109.225C425.837 109.225 429.273 110.498 431.31 113.044C433.346 115.462 434.365 118.517 434.365 122.208C434.365 126.154 433.028 129.463 430.355 132.136C427.809 134.682 424.055 135.955 419.091 135.955C413.363 135.955 408.144 135.509 403.435 134.618C398.853 133.727 394.843 132.263 391.407 130.227C388.097 128.063 385.361 125.263 383.197 121.826C381.16 118.262 379.888 113.935 379.378 108.843H388.543C386.252 114.953 383.324 119.853 379.76 123.545C376.324 127.108 372.442 129.781 368.114 131.563C363.786 133.345 359.268 134.491 354.558 135C349.976 135.636 345.458 135.955 341.003 135.955ZM402.289 51.7571C398.598 51.7571 395.416 50.4843 392.743 47.9387C390.197 45.2657 388.925 42.1473 388.925 38.5834C388.925 34.8922 390.197 31.7101 392.743 29.0372C395.416 26.3642 398.598 25.0278 402.289 25.0278C405.853 25.0278 408.908 26.3642 411.454 29.0372C413.999 31.7101 415.272 34.8922 415.272 38.5834C415.272 42.1473 413.999 45.2657 411.454 47.9387C408.908 50.4843 405.853 51.7571 402.289 51.7571ZM369.259 51.5662C365.568 51.5662 362.386 50.2934 359.713 47.7477C357.168 45.0748 355.895 41.9564 355.895 38.3925C355.895 34.7013 357.168 31.5192 359.713 28.8462C362.386 26.1733 365.568 24.8369 369.259 24.8369C372.823 24.8369 375.878 26.1733 378.424 28.8462C380.969 31.5192 382.242 34.7013 382.242 38.3925C382.242 41.9564 380.969 45.0748 378.424 47.7477C375.878 50.2934 372.823 51.5662 369.259 51.5662ZM543.989 135.955C538.134 135.955 532.661 135.509 527.57 134.618C522.606 133.727 518.024 132.2 513.823 130.036C509.623 127.745 505.868 124.626 502.559 120.681C499.377 116.735 496.704 111.771 494.54 105.789L509.623 93.7604C511.914 97.8335 514.714 101.016 518.024 103.307C521.333 105.47 525.279 106.998 529.861 107.889C534.443 108.78 539.789 109.225 545.898 109.225C550.735 109.225 554.172 110.498 556.208 113.044C558.245 115.462 559.263 118.517 559.263 122.208C559.263 126.154 557.927 129.463 555.254 132.136C552.708 134.682 548.953 135.955 543.989 135.955ZM419.125 135.955L421.034 109.225C427.907 109.225 434.717 108.843 441.463 108.08C448.209 107.316 454.764 106.17 461.128 104.643C467.492 103.116 473.538 101.143 479.266 98.7244C485.121 96.3061 490.594 93.3786 495.685 89.9419C491.867 87.6508 487.73 85.678 483.275 84.0233C478.82 82.3686 474.047 81.1594 468.956 80.3957C463.992 79.5048 458.71 79.0593 453.109 79.0593C451.073 79.0593 448.909 79.1229 446.618 79.2502C444.454 79.3775 442.227 79.632 439.936 80.0139C437.645 80.2685 435.353 80.6503 433.062 81.1594L429.244 55.0028C432.935 53.9846 436.817 53.2845 440.89 52.9027C445.091 52.3935 448.782 52.139 451.964 52.139C458.837 52.139 465.138 52.9027 470.865 54.4301C476.72 55.9575 482.066 57.8667 486.903 60.1578C491.867 62.4489 496.449 64.74 500.649 67.0311C504.977 69.3221 509.05 71.2314 512.869 72.7588C516.814 74.2862 520.633 75.0499 524.324 75.0499H531.388L534.443 100.443C528.97 100.697 523.815 101.779 518.978 103.688C514.269 105.47 509.559 107.762 504.85 110.562C500.268 113.235 495.304 116.035 489.958 118.962C484.739 121.89 478.82 124.626 472.202 127.172C465.583 129.718 457.946 131.818 449.291 133.473C440.636 135.127 430.58 135.955 419.125 135.955ZM544.046 135.955L545.955 109.225C551.556 109.225 555.947 108.843 559.129 108.08C562.438 107.316 564.793 105.916 566.193 103.879C567.593 101.716 568.293 98.6608 568.293 94.715C568.293 91.1511 567.784 86.8872 566.766 81.9231C565.875 76.9591 564.666 71.8042 563.138 66.4583C561.611 61.1124 560.084 56.212 558.556 51.7571L584.904 44.502C586.431 48.8296 587.958 53.8573 589.486 59.585C591.013 65.3127 592.286 71.2314 593.304 77.341C594.45 83.3232 595.023 89.1146 595.023 94.715C595.023 101.716 594.132 107.634 592.35 112.471C590.568 117.18 588.086 121.126 584.904 124.308C581.849 127.363 578.158 129.781 573.83 131.563C569.63 133.218 564.984 134.364 559.893 135C554.801 135.636 549.519 135.955 544.046 135.955ZM571.539 28.6553C567.593 28.6553 564.22 27.3189 561.42 24.6459C558.747 21.973 557.411 18.6636 557.411 14.7179C557.411 10.7721 558.747 7.39913 561.42 4.59891C564.22 1.79868 567.593 0.398575 571.539 0.398575C575.357 0.398575 578.603 1.79868 581.276 4.59891C584.076 7.39913 585.476 10.7721 585.476 14.7179C585.476 18.6636 584.076 21.973 581.276 24.6459C578.603 27.3189 575.357 28.6553 571.539 28.6553Z" fill="url(#paint0_linear_252_258)"/>
<defs>
<linearGradient id="paint0_linear_252_258" x1="556.5" y1="202.5" x2="139" y2="33" gradientUnits="userSpaceOnUse">
<stop stop-color="#5865F2" stop-opacity="0.3"/>
<stop offset="1" stop-color="#5865F2"/>
</linearGradient>
</defs>
</svg>
