<svg width="658" height="180" viewBox="0 0 658 180" fill="none" xmlns="http://www.w3.org/2000/svg">
<path d="M18.6684 135.764C15.1044 135.764 11.9224 135.064 9.12216 133.664C6.32194 132.263 4.15814 130.354 2.63074 127.936C1.10335 125.39 0.339657 122.526 0.339657 119.344C0.339657 116.289 0.912429 112.853 2.05797 109.034C3.3308 105.089 4.92183 101.143 6.83107 97.197C8.8676 93.124 10.9041 89.3692 12.9406 85.9325L31.0784 94.5241C29.8056 96.8152 28.5964 99.2972 27.4509 101.97C26.3053 104.516 25.2871 106.807 24.3961 108.843C23.6324 110.753 23.1869 112.089 23.0596 112.853C26.369 113.744 28.9146 115.144 30.6966 117.053C32.4785 118.835 33.3695 121.19 33.3695 124.117C33.3695 127.936 31.9694 130.863 29.1692 132.9C26.4962 134.809 22.996 135.764 18.6684 135.764ZM53.6537 179.103L43.9166 155.429C50.6625 153.138 56.8358 150.465 62.4362 147.41C68.1639 144.355 73.1279 140.982 77.3283 137.291C81.5286 133.6 84.7743 129.59 87.0654 125.263C89.3565 120.808 90.502 116.035 90.502 110.944C90.502 105.598 89.2928 99.7427 86.8745 93.3786C84.4561 87.0144 81.5286 80.523 78.092 73.9043L103.103 61.8761C105.394 65.8219 107.367 70.0858 109.022 74.668C110.804 79.1229 112.267 83.1323 113.413 86.6962C114.558 90.2601 115.322 92.6785 115.704 93.9513C117.486 100.061 119.904 104.134 122.959 106.17C126.141 108.207 131.232 109.225 138.233 109.225C143.07 109.225 146.506 110.498 148.543 113.044C150.707 115.462 151.789 118.517 151.789 122.208C151.789 126.154 150.452 129.463 147.779 132.136C145.106 134.682 141.288 135.955 136.324 135.955C131.105 135.955 126.523 135.191 122.577 133.664C118.631 132.136 115.449 129.909 113.031 126.981C110.74 124.054 109.276 120.617 108.64 116.671L115.704 120.681C114.94 127.427 112.713 133.791 109.022 139.773C105.458 145.883 100.812 151.483 95.0842 156.574C89.3565 161.666 82.9287 166.121 75.8009 169.939C68.673 173.758 61.2907 176.812 53.6537 179.103ZM136.552 135.955L138.461 109.225C141.643 109.225 144.062 108.589 145.716 107.316C147.371 106.043 149.026 103.816 150.68 100.634C152.335 97.4516 154.626 93.124 157.554 87.6508C160.736 81.5413 164.045 76.45 167.482 72.3769C170.918 68.1766 174.355 64.8672 177.792 62.4489C181.356 59.9032 184.856 58.1213 188.292 57.103C191.856 55.9575 195.357 55.3847 198.793 55.3847C203.503 55.3847 207.894 56.403 211.967 58.4395C216.167 60.3487 220.177 63.7217 223.995 68.5584C227.814 73.2679 231.441 79.7593 234.878 88.0327C237.296 93.7604 239.715 98.1517 242.133 101.206C244.551 104.261 247.033 106.361 249.579 107.507C252.252 108.652 254.925 109.225 257.598 109.225C262.435 109.225 265.871 110.498 267.908 113.044C269.944 115.462 270.963 118.517 270.963 122.208C270.963 126.154 269.626 129.463 266.953 132.136C264.28 134.682 260.525 135.955 255.689 135.955C249.452 135.955 243.788 134.936 238.696 132.9C233.605 130.863 229.596 127.809 226.668 123.735L232.205 119.535C231.059 122.208 229.341 125.008 227.05 127.936C224.886 130.863 222.022 133.345 218.458 135.382C215.022 137.418 210.885 138.437 206.048 138.437C202.866 138.437 199.111 137.8 194.784 136.527C190.583 135.382 186.192 133.409 181.61 130.609C177.155 127.681 173.018 123.735 169.2 118.771C166.782 123.226 164.109 126.727 161.181 129.272C158.254 131.691 154.817 133.409 150.871 134.427C146.926 135.445 142.152 135.955 136.552 135.955ZM180.274 96.2424C181.546 98.1517 183.074 100.061 184.856 101.97C186.638 103.879 188.611 105.598 190.774 107.125C192.938 108.525 195.229 109.671 197.648 110.562C200.193 111.453 202.675 111.898 205.094 111.898C207.639 111.898 209.74 110.944 211.394 109.034C213.049 106.998 213.113 104.007 211.585 100.061C210.949 98.4062 210.058 96.5606 208.912 94.5241C207.894 92.3603 206.685 90.3238 205.285 88.4145C204.012 86.5053 202.548 84.9143 200.893 83.6414C199.366 82.3686 197.775 81.7322 196.12 81.7322C194.466 81.7322 192.747 82.2413 190.965 83.2596C189.183 84.2779 187.401 85.8689 185.619 88.0327C183.838 90.0692 182.056 92.8058 180.274 96.2424ZM255.693 135.955L257.602 109.225C262.184 109.225 266.13 108.78 269.44 107.889C272.749 106.998 275.549 105.216 277.84 102.543C280.131 99.7427 282.041 95.6697 283.568 90.3238C285.223 84.9779 286.686 77.8501 287.959 68.9403L312.97 73.1406C312.716 75.0499 312.334 77.2773 311.825 79.823C311.443 82.3686 311.061 84.9779 310.679 87.6508C310.425 90.1965 310.297 92.6149 310.297 94.906C310.297 97.197 310.743 99.2336 311.634 101.016C312.525 102.797 313.925 104.325 315.834 105.598C317.871 106.743 320.48 107.634 323.662 108.271C326.971 108.907 330.981 109.225 335.69 109.225C340.527 109.225 343.964 110.498 346 113.044C348.037 115.462 349.055 118.517 349.055 122.208C349.055 126.154 347.718 129.463 345.045 132.136C342.5 134.682 338.745 135.955 333.781 135.955C328.053 135.955 322.835 135.509 318.125 134.618C313.543 133.727 309.534 132.263 306.097 130.227C302.788 128.063 300.051 125.263 297.887 121.826C295.851 118.262 294.578 113.935 294.069 108.843H303.233C300.942 114.953 298.015 119.853 294.451 123.545C291.014 127.108 287.132 129.781 282.804 131.563C278.477 133.345 273.958 134.491 269.249 135C264.666 135.636 260.148 135.955 255.693 135.955ZM301.706 26.1733C298.524 26.1733 295.723 24.9641 293.305 22.5458C291.014 20.1274 289.868 17.2635 289.868 13.9542C289.868 10.6448 291.014 7.84461 293.305 5.55352C295.723 3.26244 298.524 2.11689 301.706 2.11689C305.015 2.11689 307.815 3.26244 310.106 5.55352C312.397 7.84461 313.543 10.6448 313.543 13.9542C313.543 17.2635 312.397 20.1274 310.106 22.5458C307.815 24.9641 305.015 26.1733 301.706 26.1733ZM286.432 51.3753C283.25 51.3753 280.45 50.1661 278.031 47.7477C275.74 45.3294 274.595 42.4655 274.595 39.1561C274.595 35.8468 275.74 33.0466 278.031 30.7555C280.45 28.4644 283.25 27.3189 286.432 27.3189C289.741 27.3189 292.541 28.4644 294.832 30.7555C297.124 33.0466 298.269 35.8468 298.269 39.1561C298.269 42.4655 297.124 45.3294 294.832 47.7477C292.541 50.1661 289.741 51.3753 286.432 51.3753ZM316.025 51.3753C312.843 51.3753 310.043 50.1661 307.624 47.7477C305.333 45.3294 304.188 42.4655 304.188 39.1561C304.188 35.8468 305.333 33.0466 307.624 30.7555C310.043 28.4644 312.843 27.3189 316.025 27.3189C319.334 27.3189 322.135 28.4644 324.426 30.7555C326.717 33.0466 327.862 35.8468 327.862 39.1561C327.862 42.4655 326.717 45.3294 324.426 47.7477C322.135 50.1661 319.334 51.3753 316.025 51.3753ZM333.815 135.955L335.724 109.225C340.307 109.225 344.252 108.78 347.562 107.889C350.871 106.998 353.671 105.216 355.962 102.543C358.254 99.7427 360.163 95.6697 361.69 90.3238C363.345 84.9779 364.809 77.8501 366.081 68.9403L391.092 73.1406C390.838 75.0499 390.456 77.2773 389.947 79.823C389.565 82.3686 389.183 84.9779 388.801 87.6508C388.547 90.1965 388.42 92.6149 388.42 94.906C388.42 97.197 388.865 99.2336 389.756 101.016C390.647 102.797 392.047 104.325 393.956 105.598C395.993 106.743 398.602 107.634 401.784 108.271C405.094 108.907 409.103 109.225 413.812 109.225C418.649 109.225 422.086 110.498 424.122 113.044C426.159 115.462 427.177 118.517 427.177 122.208C427.177 126.154 425.841 129.463 423.168 132.136C420.622 134.682 416.867 135.955 411.903 135.955C406.175 135.955 400.957 135.509 396.247 134.618C391.665 133.727 387.656 132.263 384.219 130.227C380.91 128.063 378.173 125.263 376.009 121.826C373.973 118.262 372.7 113.935 372.191 108.843H381.355C379.064 114.953 376.137 119.853 372.573 123.545C369.136 127.108 365.254 129.781 360.926 131.563C356.599 133.345 352.08 134.491 347.371 135C342.789 135.636 338.27 135.955 333.815 135.955ZM395.102 51.7571C391.411 51.7571 388.229 50.4843 385.556 47.9387C383.01 45.2657 381.737 42.1473 381.737 38.5834C381.737 34.8922 383.01 31.7101 385.556 29.0372C388.229 26.3642 391.411 25.0278 395.102 25.0278C398.666 25.0278 401.721 26.3642 404.266 29.0372C406.812 31.7101 408.085 34.8922 408.085 38.5834C408.085 42.1473 406.812 45.2657 404.266 47.9387C401.721 50.4843 398.666 51.7571 395.102 51.7571ZM362.072 51.5662C358.381 51.5662 355.199 50.2934 352.526 47.7477C349.98 45.0748 348.707 41.9564 348.707 38.3925C348.707 34.7013 349.98 31.5192 352.526 28.8462C355.199 26.1733 358.381 24.8369 362.072 24.8369C365.636 24.8369 368.691 26.1733 371.236 28.8462C373.782 31.5192 375.055 34.7013 375.055 38.3925C375.055 41.9564 373.782 45.0748 371.236 47.7477C368.691 50.2934 365.636 51.5662 362.072 51.5662ZM411.938 135.955L413.847 109.225C418.047 109.225 421.484 108.907 424.157 108.271C426.83 107.507 428.993 105.916 430.648 103.498C432.43 100.952 433.957 97.197 435.23 92.233C436.63 87.1417 438.158 80.2685 439.812 71.6132L464.633 76.1954C464.123 78.9956 463.423 82.4959 462.532 86.6962C461.769 90.8966 461.387 94.5241 461.387 97.5789C461.387 99.9973 461.832 102.097 462.723 103.879C463.742 105.534 465.396 106.871 467.687 107.889C470.106 108.78 473.415 109.225 477.615 109.225C480.925 109.225 483.725 108.907 486.016 108.271C488.434 107.507 490.471 105.916 492.126 103.498C493.908 100.952 495.435 97.0698 496.708 91.8512C498.108 86.5053 499.444 79.3138 500.717 70.2768L525.919 74.2862C525.41 77.2137 524.901 80.3321 524.392 83.6414C523.883 86.9508 523.437 90.0056 523.055 92.8058C522.673 95.606 522.483 97.8971 522.483 99.6791C522.483 101.334 522.928 102.925 523.819 104.452C524.837 105.852 526.619 106.998 529.165 107.889C531.838 108.78 535.529 109.225 540.238 109.225C545.966 109.225 550.166 108.016 552.839 105.598C555.64 103.052 557.04 99.2336 557.04 94.1423C557.04 91.2148 556.976 88.0963 556.849 84.787C556.722 81.3504 556.467 77.5319 556.085 73.3315C555.831 69.0039 555.321 64.1036 554.558 58.6304L579.187 56.7212C580.078 67.6675 581.096 76.5773 582.242 83.4505C583.387 90.3238 584.915 95.6697 586.824 99.4881C588.86 103.179 591.533 105.725 594.843 107.125C598.279 108.525 602.734 109.225 608.207 109.225C613.044 109.225 616.481 110.498 618.517 113.044C620.681 115.462 621.763 118.517 621.763 122.208C621.763 126.154 620.427 129.463 617.754 132.136C615.208 134.682 611.389 135.955 606.298 135.955C602.862 135.955 599.298 135.636 595.606 135C591.915 134.491 588.351 133.409 584.915 131.754C581.478 129.972 578.423 127.427 575.75 124.117C573.077 120.808 570.977 116.417 569.45 110.944L572.886 112.089C571.104 118.453 568.686 123.354 565.631 126.79C562.577 130.227 558.822 132.645 554.367 134.045C549.912 135.318 544.566 135.955 538.329 135.955C532.601 135.955 527.51 135.191 523.055 133.664C518.6 132.136 515.036 129.654 512.364 126.217C509.818 122.654 508.481 117.88 508.354 111.898H514.846C512.3 119.026 509.372 124.308 506.063 127.745C502.754 131.182 498.744 133.409 494.035 134.427C489.325 135.445 483.407 135.955 476.279 135.955C471.951 135.955 467.687 135.509 463.487 134.618C459.287 133.6 455.532 131.372 452.222 127.936C448.913 124.372 446.495 118.771 444.967 111.135L455.277 110.753C452.604 118.262 449.104 123.799 444.776 127.363C440.576 130.927 435.739 133.282 430.266 134.427C424.793 135.445 418.683 135.955 411.938 135.955ZM606.404 135.955L608.313 109.225C613.914 109.225 618.305 108.843 621.487 108.08C624.796 107.316 627.151 105.916 628.551 103.879C629.951 101.716 630.651 98.6608 630.651 94.715C630.651 91.1511 630.142 86.8872 629.124 81.9231C628.233 76.9591 627.024 71.8042 625.496 66.4583C623.969 61.1124 622.442 56.212 620.914 51.7571L647.262 44.502C648.789 48.8296 650.317 53.8573 651.844 59.585C653.371 65.3127 654.644 71.2314 655.662 77.341C656.808 83.3232 657.381 89.1146 657.381 94.715C657.381 101.716 656.49 107.634 654.708 112.471C652.926 117.18 650.444 121.126 647.262 124.308C644.207 127.363 640.516 129.781 636.188 131.563C631.988 133.218 627.342 134.364 622.251 135C617.159 135.636 611.877 135.955 606.404 135.955ZM633.897 28.6553C629.951 28.6553 626.578 27.3189 623.778 24.6459C621.105 21.973 619.769 18.6636 619.769 14.7179C619.769 10.7721 621.105 7.39913 623.778 4.59891C626.578 1.79868 629.951 0.398575 633.897 0.398575C637.716 0.398575 640.961 1.79868 643.634 4.59891C646.434 7.39913 647.835 10.7721 647.835 14.7179C647.835 18.6636 646.434 21.973 643.634 24.6459C640.961 27.3189 637.716 28.6553 633.897 28.6553Z" fill="url(#paint0_linear_177_210)"/>
<defs>
<linearGradient id="paint0_linear_177_210" x1="82.5" y1="101" x2="620" y2="90" gradientUnits="userSpaceOnUse">
<stop stop-color="white"/>
<stop offset="1" stop-color="white" stop-opacity="0.34"/>
</linearGradient>
</defs>
</svg>
