<svg width="1537" height="205" viewBox="0 0 1537 205" fill="none" xmlns="http://www.w3.org/2000/svg">
<path d="M101.269 159.955C92.2322 159.955 84.4043 158.809 77.7856 156.518C71.2942 154.1 66.2665 150.281 62.7026 145.063C59.1387 139.717 57.1021 132.589 56.593 123.679L53.1564 46.7367H80.0767L83.3224 114.324C83.5769 119.542 84.4043 123.552 85.8044 126.352C87.3318 129.025 89.4956 130.871 92.2958 131.889C95.096 132.78 98.7236 133.225 103.178 133.225C108.015 133.225 111.452 134.498 113.488 137.044C115.525 139.462 116.543 142.517 116.543 146.208C116.543 150.154 115.207 153.463 112.534 156.136C109.988 158.682 106.233 159.955 101.269 159.955ZM66.3301 142.199C57.8022 144.108 49.5925 144.999 41.7009 144.872C33.8094 144.617 26.7452 143.217 20.5084 140.671C14.2715 137.998 9.3075 134.18 5.6163 129.216C2.05238 124.252 0.270427 117.951 0.270427 110.314C0.270427 103.568 1.73418 97.4588 4.66168 91.9857C7.71646 86.3852 11.9168 81.4849 17.2627 77.2845C22.7358 73.0842 29.1 69.5203 36.3551 66.5928C43.6102 63.6653 51.5017 61.4378 60.0296 59.9104L62.7026 87.0217C57.2294 87.2762 52.2654 88.0399 47.8105 89.3127C43.4829 90.4583 39.7281 91.9857 36.546 93.8949C33.4912 95.8042 31.1365 97.968 29.4818 100.386C27.8271 102.677 26.9998 105.159 26.9998 107.832C26.9998 109.996 27.7635 111.778 29.2909 113.178C30.8183 114.578 32.8548 115.724 35.4004 116.615C37.9461 117.379 40.8736 117.824 44.1829 117.951C47.4923 118.079 50.8653 117.888 54.3019 117.379C57.8658 116.869 61.3661 116.042 64.8027 114.897L66.3301 142.199ZM66.9029 27.0715C63.2117 27.0715 60.0296 25.7987 57.3567 23.253C54.8111 20.5801 53.5382 17.4617 53.5382 13.8978C53.5382 10.2066 54.8111 7.02449 57.3567 4.35155C60.0296 1.67862 63.2117 0.342154 66.9029 0.342154C70.4668 0.342154 73.5216 1.67862 76.0673 4.35155C78.6129 7.02449 79.8857 10.2066 79.8857 13.8978C79.8857 17.4617 78.6129 20.5801 76.0673 23.253C73.5216 25.7987 70.4668 27.0715 66.9029 27.0715ZM33.8731 26.8806C30.1819 26.8806 26.9998 25.6078 24.3269 23.0621C21.7812 20.3892 20.5084 17.2707 20.5084 13.7068C20.5084 10.0156 21.7812 6.83357 24.3269 4.16063C26.9998 1.4877 30.1819 0.151232 33.8731 0.151232C37.437 0.151232 40.4918 1.4877 43.0374 4.16063C45.5831 6.83357 46.8559 10.0156 46.8559 13.7068C46.8559 17.2707 45.5831 20.3892 43.0374 23.0621C40.4918 25.6078 37.437 26.8806 33.8731 26.8806ZM101.205 159.955L103.114 133.225C107.696 133.225 111.642 132.78 114.952 131.889C118.261 130.998 121.061 129.216 123.352 126.543C125.643 123.743 127.553 119.67 129.08 114.324C130.735 108.978 132.198 101.85 133.471 92.9403L158.482 97.1406C158.228 99.0499 157.846 101.277 157.337 103.823C156.955 106.369 156.573 108.978 156.191 111.651C155.937 114.196 155.809 116.615 155.809 118.906C155.809 121.197 156.255 123.234 157.146 125.016C158.037 126.797 159.437 128.325 161.346 129.598C163.383 130.743 165.992 131.634 169.174 132.271C172.483 132.907 176.493 133.225 181.202 133.225C186.039 133.225 189.476 134.498 191.512 137.044C193.549 139.462 194.567 142.517 194.567 146.208C194.567 150.154 193.23 153.463 190.558 156.136C188.012 158.682 184.257 159.955 179.293 159.955C173.565 159.955 168.347 159.509 163.637 158.618C159.055 157.727 155.046 156.263 151.609 154.227C148.3 152.063 145.563 149.263 143.399 145.826C141.363 142.262 140.09 137.935 139.581 132.843H148.745C146.454 138.953 143.527 143.853 139.963 147.545C136.526 151.108 132.644 153.781 128.316 155.563C123.989 157.345 119.47 158.491 114.761 159C110.179 159.636 105.66 159.955 101.205 159.955ZM154.473 204.249C150.782 204.249 147.6 202.913 144.927 200.24C142.381 197.694 141.108 194.639 141.108 191.075C141.108 187.384 142.381 184.202 144.927 181.529C147.6 178.856 150.782 177.52 154.473 177.52C158.037 177.52 161.092 178.856 163.637 181.529C166.183 184.202 167.456 187.384 167.456 191.075C167.456 194.639 166.183 197.694 163.637 200.24C161.092 202.913 158.037 204.249 154.473 204.249ZM121.443 204.249C117.752 204.249 114.57 202.913 111.897 200.24C109.351 197.694 108.078 194.639 108.078 191.075C108.078 187.384 109.351 184.202 111.897 181.529C114.57 178.856 117.752 177.52 121.443 177.52C125.007 177.52 128.062 178.856 130.607 181.529C133.153 184.202 134.426 187.384 134.426 191.075C134.426 194.639 133.153 197.694 130.607 200.24C128.062 202.913 125.007 204.249 121.443 204.249ZM278.226 162.437C266.389 162.437 256.524 161.928 248.633 160.909C240.868 159.891 234.568 158.427 229.731 156.518C224.894 154.609 221.076 152.318 218.276 149.645C215.476 146.972 213.184 144.044 211.403 140.862L216.748 139.335C213.566 145.444 209.939 149.963 205.866 152.89C201.793 155.818 197.529 157.727 193.074 158.618C188.619 159.509 184.037 159.955 179.327 159.955L181.237 133.225C185.182 133.225 188.301 132.589 190.592 131.316C192.883 130.043 194.729 127.943 196.129 125.016C197.656 122.088 199.056 118.206 200.329 113.369C201.602 108.532 203.129 102.614 204.911 95.6132L229.158 101.532C228.267 104.969 227.504 107.96 226.867 110.505C226.358 113.051 225.913 115.278 225.531 117.188C225.276 118.97 225.149 120.433 225.149 121.579C225.149 123.997 225.722 126.161 226.867 128.07C228.013 129.852 230.24 131.316 233.55 132.462C236.859 133.48 241.696 134.307 248.06 134.944C254.551 135.453 263.016 135.707 273.453 135.707C284.526 135.707 293.754 135.325 301.137 134.562C308.519 133.671 314.374 132.462 318.702 130.934C323.157 129.279 326.339 127.307 328.248 125.016C330.157 122.597 331.112 119.861 331.112 116.806C331.112 114.387 330.539 112.16 329.394 110.123C328.375 107.96 326.657 106.178 324.239 104.778C321.82 103.377 318.702 102.677 314.883 102.677C310.301 102.677 305.655 103.823 300.946 106.114C296.364 108.278 291.845 111.205 287.39 114.897C282.935 118.46 278.671 122.47 274.598 126.925C270.653 131.38 267.089 135.835 263.907 140.289L235.268 137.044C240.232 129.025 245.832 121.324 252.069 113.942C258.306 106.56 264.989 100.068 272.116 94.4677C279.244 88.74 286.627 84.2214 294.264 80.9121C301.901 77.6027 309.665 75.9481 317.556 75.9481C326.084 75.9481 333.339 77.6027 339.322 80.9121C345.304 84.2214 349.886 88.8036 353.068 94.6586C356.25 100.514 357.841 107.26 357.841 114.897C357.841 124.188 355.168 132.398 349.822 139.526C344.604 146.654 336.14 152.254 324.43 156.327C312.847 160.4 297.446 162.437 278.226 162.437ZM376.1 202.913L370.563 176.183C379.6 175.038 387.492 173.638 394.238 171.983C400.984 170.455 406.648 168.292 411.23 165.491C415.812 162.691 419.249 158.873 421.54 154.036C423.831 149.072 424.976 142.708 424.976 134.944C424.976 127.434 423.831 121.452 421.54 116.997C419.249 112.542 416.194 110.314 412.375 110.314C409.702 110.314 407.475 111.269 405.693 113.178C403.911 114.96 402.575 117.124 401.684 119.67C400.92 122.088 400.538 124.252 400.538 126.161C400.538 127.307 400.856 128.516 401.493 129.789C402.129 131.061 403.529 132.143 405.693 133.034C407.857 133.925 411.23 134.434 415.812 134.562C420.521 134.689 426.886 134.244 434.904 133.225H466.98C471.816 133.225 475.253 134.498 477.29 137.044C479.453 139.462 480.535 142.517 480.535 146.208C480.535 150.154 479.199 153.463 476.526 156.136C473.853 158.682 470.034 159.955 465.07 159.955H412.566C404.548 159.955 397.674 159 391.947 157.091C386.219 155.182 381.828 152.127 378.773 147.926C375.718 143.599 374.191 137.871 374.191 130.743C374.191 125.016 375.145 119.288 377.054 113.56C379.091 107.832 381.891 102.614 385.455 97.9043C389.019 93.0676 393.156 89.2491 397.865 86.4489C402.702 83.5214 407.92 82.0576 413.521 82.0576C421.158 82.0576 427.84 84.4124 433.568 89.1218C439.296 93.8313 443.751 100.068 446.933 107.832C450.242 115.597 451.897 124.061 451.897 133.225C451.897 147.608 448.842 159.827 442.732 169.883C436.623 179.938 427.904 187.702 416.576 193.175C405.248 198.776 391.756 202.022 376.1 202.913ZM656.837 159.955C650.346 159.955 644.109 159.382 638.127 158.236C632.144 156.963 626.735 155.309 621.898 153.272C617.189 151.236 613.307 148.945 610.252 146.399L627.435 127.879C632.017 129.789 636.727 131.189 641.563 132.08C646.4 132.843 652.128 133.225 658.746 133.225C663.583 133.225 667.02 134.498 669.056 137.044C671.22 139.462 672.302 142.517 672.302 146.208C672.302 150.154 670.966 153.463 668.293 156.136C665.62 158.682 661.801 159.955 656.837 159.955ZM564.239 162.437C552.402 162.437 542.537 161.928 534.646 160.909C526.882 159.891 520.581 158.427 515.744 156.518C510.908 154.609 507.089 152.318 504.289 149.645C501.489 146.972 499.198 144.044 497.416 140.862L502.761 139.335C499.579 145.444 495.952 149.963 491.879 152.89C487.806 155.818 483.542 157.727 479.087 158.618C474.632 159.509 470.05 159.955 465.34 159.955L467.25 133.225C471.195 133.225 474.314 132.589 476.605 131.316C478.896 130.043 480.742 127.943 482.142 125.016C483.669 122.088 485.069 118.206 486.342 113.369C487.615 108.532 489.142 102.614 490.924 95.6132L515.172 101.532C514.281 104.969 513.517 107.96 512.88 110.505C512.371 113.051 511.926 115.278 511.544 117.188C511.289 118.97 511.162 120.433 511.162 121.579C511.162 123.997 511.735 126.161 512.88 128.07C514.026 129.852 516.253 131.316 519.563 132.462C522.872 133.48 527.709 134.307 534.073 134.944C540.564 135.453 549.029 135.707 559.466 135.707C570.54 135.707 579.768 135.325 587.15 134.562C594.532 133.671 600.387 132.462 604.715 130.934C609.17 129.279 612.352 127.307 614.261 125.016C616.17 122.597 617.125 119.861 617.125 116.806C617.125 114.387 616.552 112.16 615.407 110.123C614.388 107.96 612.67 106.178 610.252 104.778C607.833 103.377 604.715 102.677 600.896 102.677C596.314 102.677 591.668 103.823 586.959 106.114C582.377 108.278 577.858 111.205 573.403 114.897C568.948 118.46 564.685 122.47 560.611 126.925C556.666 131.38 553.102 135.835 549.92 140.289L521.281 137.044C526.245 129.025 531.846 121.324 538.082 113.942C544.319 106.56 551.002 100.068 558.129 94.4677C565.257 88.74 572.64 84.2214 580.277 80.9121C587.914 77.6027 595.678 75.9481 603.569 75.9481C612.097 75.9481 619.352 77.6027 625.335 80.9121C631.317 84.2214 635.899 88.8036 639.081 94.6586C642.263 100.514 643.854 107.26 643.854 114.897C643.854 124.188 641.181 132.398 635.836 139.526C630.617 146.654 622.153 152.254 610.443 156.327C598.86 160.4 583.459 162.437 564.239 162.437ZM781.874 159.955C776.019 159.955 770.546 159.509 765.455 158.618C760.491 157.727 755.909 156.2 751.708 154.036C747.508 151.745 743.753 148.626 740.444 144.681C737.262 140.735 734.589 135.771 732.425 129.789L747.508 117.76C749.799 121.833 752.599 125.016 755.909 127.307C759.218 129.47 763.164 130.998 767.746 131.889C772.328 132.78 777.674 133.225 783.784 133.225C788.62 133.225 792.057 134.498 794.094 137.044C796.13 139.462 797.148 142.517 797.148 146.208C797.148 150.154 795.812 153.463 793.139 156.136C790.593 158.682 786.839 159.955 781.874 159.955ZM657.01 159.955L658.919 133.225C665.793 133.225 672.602 132.843 679.348 132.08C686.094 131.316 692.649 130.17 699.013 128.643C705.378 127.116 711.424 125.143 717.151 122.724C723.006 120.306 728.479 117.379 733.571 113.942C729.752 111.651 725.616 109.678 721.161 108.023C716.706 106.369 711.933 105.159 706.841 104.396C701.877 103.505 696.595 103.059 690.995 103.059C688.958 103.059 686.794 103.123 684.503 103.25C682.339 103.377 680.112 103.632 677.821 104.014C675.53 104.268 673.239 104.65 670.948 105.159L667.129 79.0028C670.82 77.9846 674.702 77.2845 678.776 76.9027C682.976 76.3935 686.667 76.139 689.849 76.139C696.722 76.139 703.023 76.9027 708.751 78.4301C714.606 79.9575 719.951 81.8667 724.788 84.1578C729.752 86.4489 734.334 88.74 738.535 91.0311C742.862 93.3221 746.935 95.2314 750.754 96.7588C754.7 98.2862 758.518 99.0499 762.209 99.0499H769.274L772.328 124.443C766.855 124.697 761.7 125.779 756.863 127.688C752.154 129.47 747.445 131.762 742.735 134.562C738.153 137.235 733.189 140.035 727.843 142.962C722.624 145.89 716.706 148.626 710.087 151.172C703.468 153.718 695.831 155.818 687.176 157.473C678.521 159.127 668.466 159.955 657.01 159.955ZM689.849 56.4738C685.903 56.4738 682.53 55.1373 679.73 52.4644C677.057 49.7915 675.721 46.4821 675.721 42.5364C675.721 38.5906 677.057 35.2176 679.73 32.4174C682.53 29.6172 685.903 28.2171 689.849 28.2171C693.668 28.2171 696.913 29.6172 699.586 32.4174C702.386 35.2176 703.787 38.5906 703.787 42.5364C703.787 46.4821 702.386 49.7915 699.586 52.4644C696.913 55.1373 693.668 56.4738 689.849 56.4738ZM781.931 159.955L783.84 133.225C789.695 133.225 793.896 132.652 796.441 131.507C798.987 130.234 800.514 127.943 801.024 124.634C801.533 121.197 801.66 116.233 801.405 109.742L797.969 19.2436H824.889L828.708 111.651C828.962 119.033 828.644 125.716 827.753 131.698C826.989 137.553 825.016 142.581 821.834 146.781C818.779 150.981 814.006 154.227 807.515 156.518C801.151 158.809 792.623 159.955 781.931 159.955ZM853.886 159L849.876 19.2436H876.606L880.615 159H853.886ZM1044.33 159.955C1035.29 159.955 1027.46 158.809 1020.85 156.518C1014.35 154.1 1009.33 150.281 1005.76 145.063C1002.2 139.717 1000.16 132.589 999.653 123.679L996.216 46.7367H1023.14L1026.38 114.324C1026.64 119.542 1027.46 123.552 1028.86 126.352C1030.39 129.025 1032.56 130.871 1035.36 131.889C1038.16 132.78 1041.78 133.225 1046.24 133.225C1051.08 133.225 1054.51 134.498 1056.55 137.044C1058.59 139.462 1059.6 142.517 1059.6 146.208C1059.6 150.154 1058.27 153.463 1055.59 156.136C1053.05 158.682 1049.29 159.955 1044.33 159.955ZM1009.39 142.199C1000.86 144.108 992.653 144.999 984.761 144.872C976.87 144.617 969.805 143.217 963.568 140.671C957.332 137.998 952.368 134.18 948.676 129.216C945.113 124.252 943.331 117.951 943.331 110.314C943.331 103.568 944.794 97.4588 947.722 91.9857C950.777 86.3852 954.977 81.4849 960.323 77.2845C965.796 73.0842 972.16 69.5203 979.415 66.5928C986.67 63.6653 994.562 61.4378 1003.09 59.9104L1005.76 87.0217C1000.29 87.2762 995.326 88.0399 990.871 89.3127C986.543 90.4583 982.788 91.9857 979.606 93.8949C976.551 95.8042 974.197 97.968 972.542 100.386C970.887 102.677 970.06 105.159 970.06 107.832C970.06 109.996 970.824 111.778 972.351 113.178C973.878 114.578 975.915 115.724 978.461 116.615C981.006 117.379 983.934 117.824 987.243 117.951C990.552 118.079 993.925 117.888 997.362 117.379C1000.93 116.869 1004.43 116.042 1007.86 114.897L1009.39 142.199ZM1009.96 27.0715C1006.27 27.0715 1003.09 25.7987 1000.42 23.253C997.871 20.5801 996.598 17.4617 996.598 13.8978C996.598 10.2066 997.871 7.02449 1000.42 4.35155C1003.09 1.67862 1006.27 0.342154 1009.96 0.342154C1013.53 0.342154 1016.58 1.67862 1019.13 4.35155C1021.67 7.02449 1022.95 10.2066 1022.95 13.8978C1022.95 17.4617 1021.67 20.5801 1019.13 23.253C1016.58 25.7987 1013.53 27.0715 1009.96 27.0715ZM976.933 26.8806C973.242 26.8806 970.06 25.6078 967.387 23.0621C964.841 20.3892 963.568 17.2707 963.568 13.7068C963.568 10.0156 964.841 6.83357 967.387 4.16063C970.06 1.4877 973.242 0.151232 976.933 0.151232C980.497 0.151232 983.552 1.4877 986.098 4.16063C988.643 6.83357 989.916 10.0156 989.916 13.7068C989.916 17.2707 988.643 20.3892 986.098 23.0621C983.552 25.6078 980.497 26.8806 976.933 26.8806ZM1044.27 159.955L1046.17 133.225C1050.37 133.225 1053.81 132.907 1056.48 132.271C1059.16 131.507 1061.32 129.916 1062.98 127.498C1064.76 124.952 1066.29 121.197 1067.56 116.233C1068.96 111.142 1070.49 104.268 1072.14 95.6132L1096.96 100.195C1096.58 102.105 1096.13 104.332 1095.62 106.878C1095.11 109.423 1094.67 112.033 1094.29 114.706C1093.91 117.251 1093.71 119.542 1093.71 121.579C1093.71 125.143 1094.86 128.007 1097.15 130.17C1099.44 132.207 1103.77 133.225 1110.13 133.225C1113.32 133.225 1116.05 132.907 1118.34 132.271C1120.76 131.507 1122.8 129.916 1124.45 127.498C1126.24 124.952 1127.76 121.07 1129.04 115.851C1130.44 110.505 1131.77 103.314 1133.04 94.2768L1158.25 98.2862C1157.74 101.214 1157.23 104.332 1156.72 107.641C1156.21 110.951 1155.76 114.006 1155.38 116.806C1155 119.606 1154.81 121.897 1154.81 123.679C1154.81 125.334 1155.26 126.925 1156.15 128.452C1157.16 129.852 1158.95 130.998 1161.49 131.889C1164.17 132.78 1167.92 133.225 1172.76 133.225C1176.19 133.225 1179.12 132.78 1181.54 131.889C1184.09 130.998 1185.99 129.534 1187.27 127.498C1188.67 125.461 1189.37 122.788 1189.37 119.479C1189.37 114.769 1188.29 108.596 1186.12 100.959C1183.96 93.3221 1181.41 85.3033 1178.48 76.9027L1205.41 68.8839C1207.44 74.357 1209.22 80.212 1210.75 86.4489C1212.41 92.5584 1213.68 98.5407 1214.57 104.396C1215.59 110.123 1216.1 115.151 1216.1 119.479C1216.1 125.97 1215.08 131.762 1213.04 136.853C1211.01 141.817 1208.14 146.017 1204.45 149.454C1200.76 152.89 1196.37 155.5 1191.28 157.282C1186.19 159.064 1180.58 159.955 1174.48 159.955C1167.09 159.955 1161.05 159.255 1156.34 157.854C1151.63 156.327 1148 153.845 1145.45 150.408C1143.04 146.845 1141.45 142.008 1140.68 135.898H1147.17C1144.5 143.408 1141.51 148.881 1138.2 152.318C1134.89 155.627 1130.94 157.727 1126.36 158.618C1121.91 159.509 1116.31 159.955 1109.56 159.955C1105.36 159.955 1101.03 159.509 1096.58 158.618C1092.25 157.6 1088.37 155.309 1084.93 151.745C1081.5 148.181 1078.95 142.644 1077.3 135.135L1087.61 134.753C1084.93 142.262 1081.43 147.799 1077.1 151.363C1072.9 154.927 1068.07 157.282 1062.59 158.427C1057.12 159.445 1051.01 159.955 1044.27 159.955ZM1286.2 159.955C1274.37 159.955 1265.2 158.745 1258.71 156.327C1252.35 153.909 1247.89 150.154 1245.35 145.063C1242.8 139.844 1241.34 133.289 1240.95 125.397L1236.94 19.2436H1263.67L1267.68 112.605C1267.94 118.46 1268.57 122.852 1269.59 125.779C1270.61 128.707 1272.52 130.68 1275.32 131.698C1278.25 132.716 1282.51 133.225 1288.11 133.225C1292.95 133.225 1296.39 134.498 1298.42 137.044C1300.59 139.462 1301.67 142.517 1301.67 146.208C1301.67 150.154 1300.33 153.463 1297.66 156.136C1294.99 158.682 1291.17 159.955 1286.2 159.955ZM1286.46 159.955L1288.37 133.225C1292.95 133.225 1296.9 132.78 1300.21 131.889C1303.52 130.998 1306.32 129.216 1308.61 126.543C1310.9 123.743 1312.81 119.67 1314.34 114.324C1315.99 108.978 1317.46 101.85 1318.73 92.9403L1343.74 97.1406C1343.49 99.0499 1343.1 101.277 1342.59 103.823C1342.21 106.369 1341.83 108.978 1341.45 111.651C1341.19 114.196 1341.07 116.615 1341.07 118.906C1341.07 121.197 1341.51 123.234 1342.4 125.016C1343.29 126.797 1344.69 128.325 1346.6 129.598C1348.64 130.743 1351.25 131.634 1354.43 132.271C1357.74 132.907 1361.75 133.225 1366.46 133.225C1371.3 133.225 1374.73 134.498 1376.77 137.044C1378.81 139.462 1379.82 142.517 1379.82 146.208C1379.82 150.154 1378.49 153.463 1375.82 156.136C1373.27 158.682 1369.51 159.955 1364.55 159.955C1358.82 159.955 1353.6 159.509 1348.89 158.618C1344.31 157.727 1340.3 156.263 1336.87 154.227C1333.56 152.063 1330.82 149.263 1328.66 145.826C1326.62 142.262 1325.35 137.935 1324.84 132.843H1334C1331.71 138.953 1328.78 143.853 1325.22 147.545C1321.78 151.108 1317.9 153.781 1313.57 155.563C1309.25 157.345 1304.73 158.491 1300.02 159C1295.44 159.636 1290.92 159.955 1286.46 159.955ZM1339.73 204.249C1336.04 204.249 1332.86 202.913 1330.18 200.24C1327.64 197.694 1326.37 194.639 1326.37 191.075C1326.37 187.384 1327.64 184.202 1330.18 181.529C1332.86 178.856 1336.04 177.52 1339.73 177.52C1343.29 177.52 1346.35 178.856 1348.89 181.529C1351.44 184.202 1352.71 187.384 1352.71 191.075C1352.71 194.639 1351.44 197.694 1348.89 200.24C1346.35 202.913 1343.29 204.249 1339.73 204.249ZM1306.7 204.249C1303.01 204.249 1299.83 202.913 1297.15 200.24C1294.61 197.694 1293.34 194.639 1293.34 191.075C1293.34 187.384 1294.61 184.202 1297.15 181.529C1299.83 178.856 1303.01 177.52 1306.7 177.52C1310.26 177.52 1313.32 178.856 1315.87 181.529C1318.41 184.202 1319.68 187.384 1319.68 191.075C1319.68 194.639 1318.41 197.694 1315.87 200.24C1313.32 202.913 1310.26 204.249 1306.7 204.249ZM1364.58 159.955L1366.49 133.225C1370.69 133.225 1374.13 132.907 1376.8 132.271C1379.48 131.507 1381.64 129.916 1383.3 127.498C1385.08 124.952 1386.6 121.197 1387.88 116.233C1389.28 111.142 1390.81 104.268 1392.46 95.6132L1417.28 100.195C1416.9 102.105 1416.45 104.332 1415.94 106.878C1415.43 109.423 1414.99 112.033 1414.61 114.706C1414.23 117.251 1414.03 119.542 1414.03 121.579C1414.03 125.143 1415.18 128.007 1417.47 130.17C1419.76 132.207 1424.09 133.225 1430.45 133.225C1433.64 133.225 1436.37 132.907 1438.66 132.271C1441.08 131.507 1443.12 129.916 1444.77 127.498C1446.55 124.952 1448.08 121.07 1449.36 115.851C1450.76 110.505 1452.09 103.314 1453.36 94.2768L1478.57 98.2862C1478.06 101.214 1477.55 104.332 1477.04 107.641C1476.53 110.951 1476.08 114.006 1475.7 116.806C1475.32 119.606 1475.13 121.897 1475.13 123.679C1475.13 125.334 1475.58 126.925 1476.47 128.452C1477.48 129.852 1479.27 130.998 1481.81 131.889C1484.49 132.78 1488.24 133.225 1493.08 133.225C1496.51 133.225 1499.44 132.78 1501.86 131.889C1504.4 130.998 1506.31 129.534 1507.59 127.498C1508.99 125.461 1509.69 122.788 1509.69 119.479C1509.69 114.769 1508.61 108.596 1506.44 100.959C1504.28 93.3221 1501.73 85.3033 1498.8 76.9027L1525.72 68.8839C1527.76 74.357 1529.54 80.212 1531.07 86.4489C1532.73 92.5584 1534 98.5407 1534.89 104.396C1535.91 110.123 1536.42 115.151 1536.42 119.479C1536.42 125.97 1535.4 131.762 1533.36 136.853C1531.33 141.817 1528.46 146.017 1524.77 149.454C1521.08 152.89 1516.69 155.5 1511.6 157.282C1506.51 159.064 1500.9 159.955 1494.8 159.955C1487.41 159.955 1481.37 159.255 1476.66 157.854C1471.95 156.327 1468.32 153.845 1465.77 150.408C1463.36 146.845 1461.77 142.008 1461 135.898H1467.49C1464.82 143.408 1461.83 148.881 1458.52 152.318C1455.21 155.627 1451.26 157.727 1446.68 158.618C1442.23 159.509 1436.63 159.955 1429.88 159.955C1425.68 159.955 1421.35 159.509 1416.9 158.618C1412.57 157.6 1408.69 155.309 1405.25 151.745C1401.82 148.181 1399.27 142.644 1397.61 135.135L1407.92 134.753C1405.25 142.262 1401.75 147.799 1397.42 151.363C1393.22 154.927 1388.39 157.282 1382.91 158.427C1377.44 159.445 1371.33 159.955 1364.58 159.955Z" fill="url(#paint0_linear_654_333)"/>
<defs>
<linearGradient id="paint0_linear_654_333" x1="210.861" y1="125" x2="1436.48" y2="67.7059" gradientUnits="userSpaceOnUse">
<stop stop-color="white"/>
<stop offset="1" stop-color="white" stop-opacity="0.34"/>
</linearGradient>
</defs>
</svg>
