<svg width="940" height="186" viewBox="0 0 940 186" fill="none" xmlns="http://www.w3.org/2000/svg">
<path d="M0.462742 134.654C0.462742 131.727 0.717308 128.29 1.22644 124.344C1.73557 120.398 2.69019 115.944 4.0903 110.98C5.49041 105.888 7.59057 100.224 10.3908 93.9873L33.8744 102.197C32.4743 106.143 31.2651 109.77 30.2469 113.08C29.2286 116.262 28.4649 119.253 27.9558 122.053C27.4467 124.726 27.1921 127.399 27.1921 130.072C27.1921 136.309 28.5922 141.4 31.3924 145.346C34.3199 149.419 38.393 152.41 43.6116 154.319C48.8302 156.356 54.8761 157.374 61.7493 157.374C69.6409 157.374 76.1323 156.292 81.2236 154.128C86.3149 152.092 90.2607 149.355 93.0609 145.919C95.8611 142.609 97.834 138.982 98.9795 135.036C100.125 130.963 100.698 127.017 100.698 123.199C100.698 117.98 99.8069 111.807 98.0249 104.679C96.2429 97.4239 93.0609 89.2779 88.4787 80.2408L113.108 69.74C115.654 74.1949 118.008 79.4135 120.172 85.3957C122.336 91.2507 124.054 97.3603 125.327 103.724C126.727 110.089 127.427 116.135 127.427 121.862C127.427 126.954 126.791 132.363 125.518 138.091C124.245 143.691 122.081 149.228 119.027 154.701C116.099 160.174 112.09 165.075 106.998 169.402C101.907 173.857 95.6065 177.421 88.0969 180.094C80.5872 182.767 71.6138 184.103 61.1766 184.103C52.7759 184.103 44.8844 183.149 37.502 181.24C30.2469 179.458 23.8191 176.594 18.2187 172.648C12.7455 168.702 8.41791 163.547 5.23584 157.183C2.05378 150.946 0.462742 143.437 0.462742 134.654ZM62.704 62.103C58.7582 62.103 55.3852 60.7665 52.585 58.0936C49.9121 55.4207 48.5756 52.1113 48.5756 48.1656C48.5756 44.2198 49.9121 40.8468 52.585 38.0466C55.3852 35.2464 58.7582 33.8462 62.704 33.8462C66.5225 33.8462 69.7682 35.2464 72.4411 38.0466C75.2413 40.8468 76.6414 44.2198 76.6414 48.1656C76.6414 52.1113 75.2413 55.4207 72.4411 58.0936C69.7682 60.7665 66.5225 62.103 62.704 62.103ZM197.537 140.955C185.699 140.955 176.535 139.745 170.044 137.327C163.679 134.909 159.224 131.154 156.679 126.063C154.133 120.844 152.669 114.289 152.288 106.397L148.278 0.243625H175.008L179.017 93.6055C179.272 99.4605 179.908 103.852 180.926 106.779C181.944 109.707 183.854 111.68 186.654 112.698C189.581 113.716 193.845 114.225 199.446 114.225C204.283 114.225 207.719 115.498 209.756 118.044C211.92 120.462 213.001 123.517 213.001 127.208C213.001 131.154 211.665 134.463 208.992 137.136C206.319 139.682 202.501 140.955 197.537 140.955ZM197.796 140.955L199.705 114.225C207.342 114.225 213.197 113.843 217.27 113.08C221.343 112.316 224.144 110.916 225.671 108.879C227.326 106.716 228.153 103.661 228.153 99.715C228.153 96.1511 227.644 91.8872 226.626 86.9231C225.735 81.9591 224.525 76.8042 222.998 71.4583C221.598 66.1124 220.071 61.212 218.416 56.7571L244.763 49.502C246.418 53.8296 248.009 58.8573 249.537 64.585C251.064 70.3127 252.337 76.2314 253.355 82.341C254.373 88.3232 254.882 94.1146 254.882 99.715C254.882 108.37 253.482 115.434 250.682 120.908C247.882 126.253 243.936 130.39 238.845 133.318C233.881 136.245 227.898 138.282 220.898 139.427C213.897 140.445 206.197 140.955 197.796 140.955ZM244.954 185.249C241.263 185.249 238.081 183.913 235.408 181.24C232.862 178.694 231.59 175.639 231.59 172.075C231.59 168.384 232.862 165.202 235.408 162.529C238.081 159.856 241.263 158.52 244.954 158.52C248.518 158.52 251.573 159.856 254.119 162.529C256.664 165.202 257.937 168.384 257.937 172.075C257.937 175.639 256.664 178.694 254.119 181.24C251.573 183.913 248.518 185.249 244.954 185.249ZM211.924 185.249C208.233 185.249 205.051 183.913 202.378 181.24C199.833 178.694 198.56 175.639 198.56 172.075C198.56 168.384 199.833 165.202 202.378 162.529C205.051 159.856 208.233 158.52 211.924 158.52C215.488 158.52 218.543 159.856 221.089 162.529C223.634 165.202 224.907 168.384 224.907 172.075C224.907 175.639 223.634 178.694 221.089 181.24C218.543 183.913 215.488 185.249 211.924 185.249ZM269.464 184.103L259.727 160.429C266.473 158.138 272.646 155.465 278.247 152.41C283.974 149.355 288.938 145.982 293.139 142.291C297.339 138.6 300.585 134.59 302.876 130.263C305.167 125.808 306.313 121.035 306.313 115.944C306.313 110.598 305.103 104.743 302.685 98.3786C300.267 92.0144 297.339 85.523 293.902 78.9043L318.914 66.8761C321.205 70.8219 323.177 75.0858 324.832 79.668C326.614 84.1229 328.078 88.1323 329.223 91.6962C330.369 95.2601 331.133 97.6785 331.515 98.9513C333.296 105.061 335.715 109.134 338.77 111.17C341.952 113.207 347.043 114.225 354.044 114.225C358.88 114.225 362.317 115.498 364.353 118.044C366.517 120.462 367.599 123.517 367.599 127.208C367.599 131.154 366.263 134.463 363.59 137.136C360.917 139.682 357.098 140.955 352.134 140.955C346.916 140.955 342.334 140.191 338.388 138.664C334.442 137.136 331.26 134.909 328.842 131.981C326.55 129.054 325.087 125.617 324.45 121.671L331.515 125.681C330.751 132.427 328.523 138.791 324.832 144.773C321.268 150.883 316.622 156.483 310.895 161.574C305.167 166.666 298.739 171.121 291.611 174.939C284.484 178.758 277.101 181.812 269.464 184.103ZM352.363 140.955L354.272 114.225C360.127 114.225 364.327 113.652 366.873 112.507C369.418 111.234 370.946 108.943 371.455 105.634C371.964 102.197 372.091 97.233 371.837 90.7416L368.4 0.243625H395.32L399.139 92.6508C399.393 100.033 399.075 106.716 398.184 112.698C397.421 118.553 395.448 123.581 392.266 127.781C389.211 131.981 384.438 135.227 377.946 137.518C371.582 139.809 363.054 140.955 352.363 140.955ZM424.317 140L420.308 0.243625H447.037L451.046 140H424.317ZM575.239 175.894C566.711 175.894 558.693 174.939 551.183 173.03C543.801 171.248 537.246 168.384 531.518 164.438C525.917 160.62 521.526 155.592 518.344 149.355C515.162 143.246 513.571 135.863 513.571 127.208C513.571 124.281 513.762 120.971 514.144 117.28C514.653 113.589 515.671 109.198 517.199 104.106C518.726 98.8877 521.081 92.8418 524.263 85.9685L547.555 94.9419C545.646 99.5241 544.182 103.406 543.164 106.588C542.146 109.643 541.382 112.443 540.873 114.989C540.491 117.407 540.3 119.953 540.3 122.626C540.3 126.826 541.191 130.581 542.973 133.89C544.882 137.2 547.492 140 550.801 142.291C554.238 144.582 558.374 146.3 563.211 147.446C568.175 148.592 573.712 149.164 579.822 149.164C587.713 149.164 594.586 148.655 600.441 147.637C606.296 146.746 611.197 145.41 615.143 143.628C619.216 141.973 622.461 139.936 624.88 137.518C627.298 135.1 629.016 132.49 630.035 129.69C631.307 126.381 632.135 122.944 632.517 119.38C633.026 115.689 633.28 111.489 633.28 106.779C633.28 101.179 632.771 96.4057 631.753 92.4599C630.862 88.3869 629.462 85.2685 627.553 83.1046C625.643 80.9408 623.289 79.8589 620.488 79.8589C618.197 79.8589 616.097 80.6226 614.188 82.15C612.406 83.6774 611.006 85.5867 609.988 87.8777C608.969 90.0416 608.46 92.269 608.46 94.5601C608.46 96.4693 608.906 98.0604 609.797 99.3332C610.815 100.606 612.279 101.624 614.188 102.388C616.097 103.024 618.452 103.343 621.252 103.343C624.052 103.343 627.171 103.024 630.607 102.388C634.044 101.624 637.099 100.479 639.772 98.9513L641.681 122.053C638.626 124.472 634.489 126.317 629.271 127.59C624.18 128.735 619.406 129.308 614.952 129.308C608.333 129.308 602.542 128.417 597.578 126.635C592.741 124.726 588.986 121.608 586.313 117.28C583.64 112.952 582.304 107.097 582.304 99.715C582.304 94.3692 583.258 89.0233 585.167 83.6774C587.077 78.2043 589.75 73.1766 593.186 68.5944C596.623 64.0122 600.76 60.3847 605.596 57.7118C610.433 54.9115 615.779 53.5114 621.634 53.5114C629.907 53.5114 636.844 55.9298 642.445 60.7665C648.172 65.476 652.5 71.7765 655.427 79.668C658.482 87.4323 660.01 95.8966 660.01 105.061C660.01 113.589 659.119 121.099 657.337 127.59C655.682 133.954 653.518 139.618 650.845 144.582C647.663 150.183 643.654 154.956 638.817 158.901C634.108 162.975 628.571 166.22 622.207 168.639C615.97 171.184 608.906 173.03 601.014 174.175C593.123 175.321 584.531 175.894 575.239 175.894ZM638.626 36.1373C634.935 36.1373 631.753 34.8645 629.08 32.3189C626.534 29.6459 625.261 26.5275 625.261 22.9636C625.261 19.2724 626.534 16.0903 629.08 13.4174C631.753 10.7444 634.935 9.40798 638.626 9.40798C642.19 9.40798 645.245 10.7444 647.791 13.4174C650.336 16.0903 651.609 19.2724 651.609 22.9636C651.609 26.5275 650.336 29.6459 647.791 32.3189C645.245 34.8645 642.19 36.1373 638.626 36.1373ZM605.596 35.9464C601.905 35.9464 598.723 34.6736 596.05 32.1279C593.504 29.455 592.232 26.3366 592.232 22.7727C592.232 19.0815 593.504 15.8994 596.05 13.2265C598.723 10.5535 601.905 9.21705 605.596 9.21705C609.16 9.21705 612.215 10.5535 614.761 13.2265C617.306 15.8994 618.579 19.0815 618.579 22.7727C618.579 26.3366 617.306 29.455 614.761 32.1279C612.215 34.6736 609.16 35.9464 605.596 35.9464ZM678.344 183.913L672.808 157.183C681.845 156.038 689.736 154.638 696.482 152.983C703.228 151.455 708.892 149.292 713.474 146.491C718.057 143.691 721.493 139.873 723.784 135.036C726.075 130.072 727.221 123.708 727.221 115.944C727.221 108.434 726.075 102.452 723.784 97.9967C721.493 93.5418 718.438 91.3144 714.62 91.3144C711.947 91.3144 709.72 92.269 707.938 94.1782C706.156 95.9602 704.819 98.124 703.928 100.67C703.164 103.088 702.783 105.252 702.783 107.161C702.783 108.307 703.101 109.516 703.737 110.789C704.374 112.061 705.774 113.143 707.938 114.034C710.101 114.925 713.474 115.434 718.057 115.562C722.766 115.689 729.13 115.244 737.149 114.225H769.224C774.061 114.225 777.498 115.498 779.534 118.044C781.698 120.462 782.78 123.517 782.78 127.208C782.78 131.154 781.443 134.463 778.77 137.136C776.097 139.682 772.279 140.955 767.315 140.955H714.811C706.792 140.955 699.919 140 694.191 138.091C688.463 136.182 684.072 133.127 681.017 128.926C677.962 124.599 676.435 118.871 676.435 111.743C676.435 106.016 677.39 100.288 679.299 94.5601C681.335 88.8324 684.136 83.6138 687.7 78.9043C691.264 74.0676 695.4 70.2491 700.11 67.4489C704.946 64.5214 710.165 63.0576 715.765 63.0576C723.402 63.0576 730.085 65.4124 735.812 70.1218C741.54 74.8313 745.995 81.0681 749.177 88.8324C752.486 96.5966 754.141 105.061 754.141 114.225C754.141 128.608 751.086 140.827 744.977 150.883C738.867 160.938 730.148 168.702 718.82 174.175C707.492 179.776 694 183.022 678.344 183.913ZM767.585 140.955L769.494 114.225C773.694 114.225 777.131 113.907 779.804 113.271C782.477 112.507 784.641 110.916 786.295 108.498C788.077 105.952 789.605 102.197 790.878 97.233C792.278 92.1417 793.805 85.2685 795.46 76.6132L820.28 81.1954C819.898 83.1046 819.453 85.3321 818.943 87.8777C818.434 90.4234 817.989 93.0327 817.607 95.7056C817.225 98.2513 817.034 100.542 817.034 102.579C817.034 106.143 818.18 109.007 820.471 111.17C822.762 113.207 827.09 114.225 833.454 114.225C836.636 114.225 839.372 113.907 841.663 113.271C844.082 112.507 846.118 110.916 847.773 108.498C849.555 105.952 851.082 102.07 852.355 96.8512C853.755 91.5053 855.092 84.3138 856.365 75.2768L881.567 79.2862C881.057 82.2137 880.548 85.3321 880.039 88.6414C879.53 91.9508 879.085 95.0056 878.703 97.8058C878.321 100.606 878.13 102.897 878.13 104.679C878.13 106.334 878.575 107.925 879.466 109.452C880.485 110.852 882.267 111.998 884.812 112.889C887.485 113.78 891.24 114.225 896.077 114.225C899.513 114.225 902.441 113.78 904.859 112.889C907.405 111.998 909.314 110.534 910.587 108.498C911.987 106.461 912.687 103.788 912.687 100.479C912.687 95.7693 911.605 89.5961 909.441 81.9591C907.278 74.3221 904.732 66.3033 901.804 57.9027L928.725 49.8839C930.761 55.357 932.543 61.212 934.071 67.4489C935.725 73.5584 936.998 79.5407 937.889 85.3957C938.907 91.1235 939.417 96.1511 939.417 100.479C939.417 106.97 938.398 112.762 936.362 117.853C934.325 122.817 931.461 127.017 927.77 130.454C924.079 133.89 919.688 136.5 914.596 138.282C909.505 140.064 903.905 140.955 897.795 140.955C890.413 140.955 884.367 140.255 879.657 138.854C874.948 137.327 871.32 134.845 868.775 131.408C866.356 127.845 864.765 123.008 864.002 116.898H870.493C867.82 124.408 864.829 129.881 861.52 133.318C858.21 136.627 854.264 138.727 849.682 139.618C845.227 140.509 839.627 140.955 832.881 140.955C828.681 140.955 824.353 140.509 819.898 139.618C815.57 138.6 811.688 136.309 808.252 132.745C804.815 129.181 802.269 123.644 800.615 116.135L810.925 115.753C808.252 123.262 804.751 128.799 800.424 132.363C796.224 135.927 791.387 138.282 785.914 139.427C780.44 140.445 774.331 140.955 767.585 140.955Z" fill="url(#paint0_linear_661_360)"/>
<defs>
<linearGradient id="paint0_linear_661_360" x1="127.773" y1="106" x2="882.657" y2="84.2944" gradientUnits="userSpaceOnUse">
<stop/>
<stop offset="1" stop-opacity="0.34"/>
</linearGradient>
</defs>
</svg>
