<svg width="695" height="144" viewBox="0 0 695 144" fill="none" xmlns="http://www.w3.org/2000/svg">
<path d="M75.7712 144.009L80.7352 117.28C93.0816 117.28 103.837 116.962 113.001 116.325C122.166 115.562 129.739 114.48 135.721 113.08C141.831 111.552 146.349 109.579 149.277 107.161C152.332 104.743 153.859 101.815 153.859 98.3786C153.859 93.7964 153.095 88.3232 151.568 81.9591C150.041 75.4677 148.068 68.9126 145.649 62.2939L170.66 55.0388C172.315 59.3664 173.906 64.1395 175.434 69.3581C176.961 74.4494 178.17 79.6044 179.061 84.823C180.079 89.9143 180.588 94.6874 180.588 99.1423C180.588 107.034 178.87 113.843 175.434 119.571C171.997 125.172 166.269 129.817 158.25 133.509C150.359 137.072 139.667 139.682 126.175 141.336C112.683 143.118 95.8818 144.009 75.7712 144.009ZM75.5803 144.009C61.8337 144.009 50.1874 142.928 40.6412 140.764C31.2222 138.727 23.5216 135.8 17.5394 131.981C11.6844 128.035 7.42039 123.453 4.74745 118.235C2.07452 113.016 0.738047 107.288 0.738047 101.052C0.738047 96.9785 1.05625 92.9054 1.69267 88.8324C2.45636 84.632 3.34734 80.559 4.3656 76.6132C5.51115 72.6675 6.52941 69.1036 7.42039 65.9215L31.2859 71.4583C30.7768 73.7494 30.204 76.2314 29.5676 78.9043C28.9312 81.5773 28.422 84.1865 28.0402 86.7322C27.6583 89.1506 27.4674 91.378 27.4674 93.4145C27.4674 98.124 29.1221 102.324 32.4314 106.016C35.8681 109.579 41.4685 112.38 49.2327 114.416C56.997 116.325 67.4342 117.28 80.5443 117.28L84.3628 137.9L75.5803 144.009ZM107.083 56.7571C103.392 56.7571 100.209 55.4843 97.5365 52.9387C94.9909 50.2657 93.718 47.1473 93.718 43.5834C93.718 39.8922 94.9909 36.7101 97.5365 34.0372C100.209 31.3642 103.392 30.0278 107.083 30.0278C110.647 30.0278 113.701 31.3642 116.247 34.0372C118.793 36.7101 120.066 39.8922 120.066 43.5834C120.066 47.1473 118.793 50.2657 116.247 52.9387C113.701 55.4843 110.647 56.7571 107.083 56.7571ZM74.0529 56.5662C70.3617 56.5662 67.1796 55.2934 64.5067 52.7477C61.961 50.0748 60.6882 46.9564 60.6882 43.3925C60.6882 39.7013 61.961 36.5192 64.5067 33.8462C67.1796 31.1733 70.3617 29.8369 74.0529 29.8369C77.6168 29.8369 80.6716 31.1733 83.2172 33.8462C85.7629 36.5192 87.0357 39.7013 87.0357 43.3925C87.0357 46.9564 85.7629 50.0748 83.2172 52.7477C80.6716 55.2934 77.6168 56.5662 74.0529 56.5662ZM250.737 140.955C238.899 140.955 229.735 139.745 223.244 137.327C216.879 134.909 212.425 131.154 209.879 126.063C207.333 120.844 205.869 114.289 205.488 106.397L201.478 0.243625H228.208L232.217 93.6055C232.472 99.4605 233.108 103.852 234.126 106.779C235.144 109.707 237.054 111.68 239.854 112.698C242.781 113.716 247.045 114.225 252.646 114.225C257.483 114.225 260.919 115.498 262.956 118.044C265.12 120.462 266.201 123.517 266.201 127.208C266.201 131.154 264.865 134.463 262.192 137.136C259.519 139.682 255.701 140.955 250.737 140.955ZM250.996 140.955L252.905 114.225C255.833 114.225 258.315 113.525 260.351 112.125C262.515 110.598 264.743 108.116 267.034 104.679C269.325 101.115 271.998 96.342 275.053 90.3598C278.871 82.7228 282.817 76.7405 286.89 72.4129C291.09 68.0853 295.354 65.0305 299.682 63.2486C304.137 61.3393 308.592 60.3847 313.046 60.3847C318.647 60.3847 323.865 61.5939 328.702 64.0122C333.539 66.4306 337.739 69.74 341.303 73.9403C344.867 78.0133 347.604 82.7228 349.513 88.0687C351.549 93.2873 352.568 98.6968 352.568 104.297C352.568 111.043 351.104 117.153 348.176 122.626C345.376 127.972 341.43 132.236 336.339 135.418C331.375 138.473 325.647 140 319.156 140C313.683 140 307.319 139.045 300.064 137.136C292.809 135.227 285.172 131.217 277.153 125.108L286.89 102.006C292.618 105.952 297.963 108.816 302.927 110.598C308.019 112.38 312.219 113.271 315.528 113.271C318.074 113.271 320.174 113.016 321.829 112.507C323.484 111.998 324.693 111.17 325.457 110.025C326.22 108.879 326.602 107.352 326.602 105.443C326.602 102.77 325.966 100.033 324.693 97.233C323.42 94.4328 321.702 92.0781 319.538 90.1688C317.501 88.1323 315.083 87.1141 312.283 87.1141C309.61 87.1141 307.319 88.1323 305.409 90.1688C303.628 92.0781 301.846 94.8783 300.064 98.5695C298.409 102.133 296.372 106.334 293.954 111.17C291.027 117.025 288.163 121.926 285.362 125.872C282.562 129.69 279.571 132.745 276.389 135.036C273.334 137.2 269.707 138.727 265.506 139.618C261.433 140.509 256.597 140.955 250.996 140.955ZM403.741 114.225C409.469 114.225 413.86 113.716 416.915 112.698C419.97 111.68 422.07 110.343 423.216 108.688C424.361 107.034 424.934 105.252 424.934 103.343C424.934 100.288 424.043 96.7239 422.261 92.6508C420.606 88.5778 418.506 84.3138 415.96 79.8589C413.415 75.404 410.742 71.1401 407.942 67.067C405.269 62.994 402.85 59.4301 400.687 56.3753L423.406 41.2923C428.88 48.6747 433.589 55.9934 437.535 63.2486C441.481 70.3764 444.663 76.9951 447.081 83.1046C449.627 89.2142 451.409 94.4328 452.427 98.7604C453.445 102.833 454.973 106.016 457.009 108.307C459.173 110.47 461.655 111.998 464.455 112.889C467.255 113.78 470.056 114.225 472.856 114.225C477.693 114.225 481.129 115.498 483.166 118.044C485.329 120.462 486.411 123.517 486.411 127.208C486.411 131.154 485.075 134.463 482.402 137.136C479.856 139.682 476.038 140.955 470.947 140.955C465.346 140.955 460.446 140.191 456.245 138.664C452.045 137.136 448.481 134.718 445.554 131.408C442.626 128.099 440.144 123.899 438.108 118.807L449.754 121.289C448.736 124.853 446.381 128.163 442.69 131.217C439.126 134.145 434.353 136.563 428.371 138.473C422.516 140.255 415.579 141.146 407.56 141.146C403.741 141.146 399.477 140.827 394.768 140.191C390.186 139.555 385.604 138.6 381.021 137.327C376.566 136.054 372.493 134.4 368.802 132.363L378.157 108.116C382.867 110.152 387.385 111.68 391.713 112.698C396.168 113.716 400.177 114.225 403.741 114.225ZM596.057 140.955C590.202 140.955 584.729 140.509 579.637 139.618C574.673 138.727 570.091 137.2 565.891 135.036C561.691 132.745 557.936 129.626 554.626 125.681C551.444 121.735 548.771 116.771 546.608 110.789L561.691 98.7604C563.982 102.833 566.782 106.016 570.091 108.307C573.401 110.47 577.346 111.998 581.929 112.889C586.511 113.78 591.857 114.225 597.966 114.225C602.803 114.225 606.24 115.498 608.276 118.044C610.313 120.462 611.331 123.517 611.331 127.208C611.331 131.154 609.994 134.463 607.321 137.136C604.776 139.682 601.021 140.955 596.057 140.955ZM471.193 140.955L473.102 114.225C479.975 114.225 486.785 113.843 493.531 113.08C500.277 112.316 506.832 111.17 513.196 109.643C519.56 108.116 525.606 106.143 531.334 103.724C537.189 101.306 542.662 98.3786 547.753 94.9419C543.935 92.6508 539.798 90.678 535.343 89.0233C530.888 87.3686 526.115 86.1594 521.024 85.3957C516.06 84.5048 510.778 84.0593 505.177 84.0593C503.141 84.0593 500.977 84.1229 498.686 84.2502C496.522 84.3775 494.294 84.632 492.003 85.0139C489.712 85.2685 487.421 85.6503 485.13 86.1594L481.312 60.0028C485.003 58.9846 488.885 58.2845 492.958 57.9027C497.158 57.3935 500.85 57.139 504.032 57.139C510.905 57.139 517.205 57.9027 522.933 59.4301C528.788 60.9575 534.134 62.8667 538.971 65.1578C543.935 67.4489 548.517 69.74 552.717 72.0311C557.045 74.3221 561.118 76.2314 564.936 77.7588C568.882 79.2862 572.701 80.0499 576.392 80.0499H583.456L586.511 105.443C581.038 105.697 575.883 106.779 571.046 108.688C566.336 110.47 561.627 112.762 556.918 115.562C552.335 118.235 547.371 121.035 542.025 123.962C536.807 126.89 530.888 129.626 524.27 132.172C517.651 134.718 510.014 136.818 501.359 138.473C492.703 140.127 482.648 140.955 471.193 140.955ZM504.032 37.4738C500.086 37.4738 496.713 36.1373 493.913 33.4644C491.24 30.7915 489.903 27.4821 489.903 23.5364C489.903 19.5906 491.24 16.2176 493.913 13.4174C496.713 10.6172 500.086 9.21705 504.032 9.21705C507.85 9.21705 511.096 10.6172 513.769 13.4174C516.569 16.2176 517.969 19.5906 517.969 23.5364C517.969 27.4821 516.569 30.7915 513.769 33.4644C511.096 36.1373 507.85 37.4738 504.032 37.4738ZM596.114 140.955L598.023 114.225C603.878 114.225 608.078 113.652 610.624 112.507C613.17 111.234 614.697 108.943 615.206 105.634C615.715 102.197 615.842 97.233 615.588 90.7416L612.151 0.243625H639.072L642.89 92.6508C643.145 100.033 642.826 106.716 641.935 112.698C641.172 118.553 639.199 123.581 636.017 127.781C632.962 131.981 628.189 135.227 621.697 137.518C615.333 139.809 606.805 140.955 596.114 140.955ZM668.068 140L664.059 0.243625H690.788L694.797 140H668.068Z" fill="url(#paint0_linear_429_415)"/>
<defs>
<linearGradient id="paint0_linear_429_415" x1="92.9536" y1="106" x2="655.762" y2="93.9393" gradientUnits="userSpaceOnUse">
<stop stop-color="white"/>
<stop offset="1" stop-color="white" stop-opacity="0.34"/>
</linearGradient>
</defs>
</svg>
