<svg width="527" height="185" viewBox="0 0 527 185" fill="none" xmlns="http://www.w3.org/2000/svg">
<path d="M0.888401 134.654C0.888401 131.727 1.14297 128.29 1.6521 124.344C2.16123 120.398 3.11585 115.944 4.51596 110.98C5.91607 105.888 8.01623 100.224 10.8164 93.9873L34.3001 102.197C32.9 106.143 31.6908 109.77 30.6725 113.08C29.6543 116.262 28.8906 119.253 28.3815 122.053C27.8723 124.726 27.6178 127.399 27.6178 130.072C27.6178 136.563 29.0179 141.909 31.8181 146.11C34.7456 150.31 38.8186 153.428 44.0372 155.465C49.2558 157.501 55.3017 158.52 62.175 158.52C71.3394 158.52 78.5945 156.992 83.9403 153.937C89.2862 150.883 93.1683 146.619 95.5867 141.146C98.0051 135.8 99.4688 129.563 99.978 122.435C100.614 115.18 100.805 107.479 100.551 99.3332L96.9232 0.243625H123.843L127.089 97.6149C127.344 105.888 127.026 114.162 126.135 122.435C125.371 130.708 123.653 138.536 120.98 145.919C118.434 153.301 114.679 159.856 109.715 165.584C104.751 171.312 98.3233 175.83 90.4318 179.139C82.6675 182.449 73.0577 184.103 61.6022 184.103C53.3289 184.103 45.501 183.149 38.1186 181.24C30.8635 179.33 24.4357 176.339 18.8353 172.266C13.2348 168.32 8.84357 163.229 5.6615 156.992C2.47943 150.755 0.888401 143.309 0.888401 134.654ZM148.322 183.913L142.785 157.183C151.822 156.038 159.714 154.638 166.46 152.983C173.206 151.455 178.87 149.292 183.452 146.491C188.034 143.691 191.471 139.873 193.762 135.036C196.053 130.072 197.199 123.708 197.199 115.944C197.199 108.434 196.053 102.452 193.762 97.9967C191.471 93.5418 188.416 91.3144 184.598 91.3144C181.925 91.3144 179.697 92.269 177.915 94.1782C176.133 95.9602 174.797 98.124 173.906 100.67C173.142 103.088 172.76 105.252 172.76 107.161C172.76 108.307 173.078 109.516 173.715 110.789C174.351 112.061 175.751 113.143 177.915 114.034C180.079 114.925 183.452 115.434 188.034 115.562C192.744 115.689 199.108 115.244 207.127 114.225H239.202C244.039 114.225 247.475 115.498 249.512 118.044C251.676 120.462 252.757 123.517 252.757 127.208C252.757 131.154 251.421 134.463 248.748 137.136C246.075 139.682 242.257 140.955 237.293 140.955H184.788C176.77 140.955 169.896 140 164.169 138.091C158.441 136.182 154.05 133.127 150.995 128.926C147.94 124.599 146.413 118.871 146.413 111.743C146.413 106.016 147.367 100.288 149.277 94.5601C151.313 88.8324 154.113 83.6138 157.677 78.9043C161.241 74.0676 165.378 70.2491 170.087 67.4489C174.924 64.5214 180.143 63.0576 185.743 63.0576C193.38 63.0576 200.062 65.4124 205.79 70.1218C211.518 74.8313 215.973 81.0681 219.155 88.8324C222.464 96.5966 224.119 105.061 224.119 114.225C224.119 128.608 221.064 140.827 214.954 150.883C208.845 160.938 200.126 168.702 188.798 174.175C177.47 179.776 163.978 183.022 148.322 183.913ZM237.563 140.955L239.472 114.225C245.454 114.225 249.654 113.652 252.073 112.507C254.618 111.234 256.146 108.943 256.655 105.634C257.164 102.197 257.291 97.233 257.037 90.7416L253.982 0.243625H281.093L284.339 90.5507C284.594 96.9148 285.357 101.815 286.63 105.252C287.903 108.688 290.003 111.043 292.931 112.316C295.985 113.589 300.058 114.225 305.15 114.225C309.986 114.225 313.423 115.498 315.46 118.044C317.496 120.462 318.514 123.517 318.514 127.208C318.514 131.154 317.178 134.463 314.505 137.136C311.832 139.682 308.077 140.955 303.24 140.955C297.64 140.955 292.421 140.318 287.585 139.045C282.748 137.773 278.739 135.354 275.556 131.79C272.374 128.226 270.274 123.071 269.256 116.325L277.657 116.516C275.493 123.135 272.693 128.226 269.256 131.79C265.819 135.227 261.492 137.645 256.273 139.045C251.182 140.318 244.945 140.955 237.563 140.955ZM428.057 140.955C422.202 140.955 416.729 140.509 411.638 139.618C406.674 138.727 402.091 137.2 397.891 135.036C393.691 132.745 389.936 129.626 386.626 125.681C383.444 121.735 380.771 116.771 378.608 110.789L393.691 98.7604C395.982 102.833 398.782 106.016 402.091 108.307C405.401 110.47 409.346 111.998 413.929 112.889C418.511 113.78 423.857 114.225 429.966 114.225C434.803 114.225 438.24 115.498 440.276 118.044C442.313 120.462 443.331 123.517 443.331 127.208C443.331 131.154 441.994 134.463 439.322 137.136C436.776 139.682 433.021 140.955 428.057 140.955ZM303.193 140.955L305.102 114.225C311.975 114.225 318.785 113.843 325.531 113.08C332.277 112.316 338.832 111.17 345.196 109.643C351.56 108.116 357.606 106.143 363.334 103.724C369.189 101.306 374.662 98.3786 379.753 94.9419C375.935 92.6508 371.798 90.678 367.343 89.0233C362.888 87.3686 358.115 86.1594 353.024 85.3957C348.06 84.5048 342.778 84.0593 337.177 84.0593C335.141 84.0593 332.977 84.1229 330.686 84.2502C328.522 84.3775 326.294 84.632 324.003 85.0139C321.712 85.2685 319.421 85.6503 317.13 86.1594L313.312 60.0028C317.003 58.9846 320.885 58.2845 324.958 57.9027C329.158 57.3935 332.85 57.139 336.032 57.139C342.905 57.139 349.205 57.9027 354.933 59.4301C360.788 60.9575 366.134 62.8667 370.971 65.1578C375.935 67.4489 380.517 69.74 384.717 72.0311C389.045 74.3221 393.118 76.2314 396.936 77.7588C400.882 79.2862 404.701 80.0499 408.392 80.0499H415.456L418.511 105.443C413.038 105.697 407.883 106.779 403.046 108.688C398.336 110.47 393.627 112.762 388.918 115.562C384.335 118.235 379.371 121.035 374.025 123.962C368.807 126.89 362.888 129.626 356.27 132.172C349.651 134.718 342.014 136.818 333.359 138.473C324.703 140.127 314.648 140.955 303.193 140.955ZM428.114 140.955L430.023 114.225C435.878 114.225 440.078 113.652 442.624 112.507C445.17 111.234 446.697 108.943 447.206 105.634C447.715 102.197 447.842 97.233 447.588 90.7416L444.151 0.243625H471.072L474.89 92.6508C475.145 100.033 474.826 106.716 473.935 112.698C473.172 118.553 471.199 123.581 468.017 127.781C464.962 131.981 460.189 135.227 453.697 137.518C447.333 139.809 438.805 140.955 428.114 140.955ZM500.068 140L496.059 0.243625H522.788L526.798 140H500.068Z" fill="url(#paint0_linear_542_737)"/>
<defs>
<linearGradient id="paint0_linear_542_737" x1="70.433" y1="106" x2="499.548" y2="98.99" gradientUnits="userSpaceOnUse">
<stop stop-color="white"/>
<stop offset="1" stop-color="white" stop-opacity="0.34"/>
</linearGradient>
</defs>
</svg>
