<svg width="741" height="186" viewBox="0 0 741 186" fill="none" xmlns="http://www.w3.org/2000/svg">
<path d="M49.7764 140.955C37.9392 140.955 28.7748 139.745 22.2834 137.327C15.9193 134.909 11.4644 131.154 8.91871 126.063C6.37306 120.844 4.90931 114.289 4.52746 106.397L0.518057 0.243625H27.2474L31.2568 93.6055C31.5114 99.4605 32.1478 103.852 33.1661 106.779C34.1843 109.707 36.0936 111.68 38.8938 112.698C41.8213 113.716 46.0853 114.225 51.6857 114.225C56.5224 114.225 59.9591 115.498 61.9956 118.044C64.1594 120.462 65.2413 123.517 65.2413 127.208C65.2413 131.154 63.9048 134.463 61.2319 137.136C58.559 139.682 54.7405 140.955 49.7764 140.955ZM50.036 140.955L51.9452 114.225C56.5274 114.225 60.4732 113.78 63.7825 112.889C67.0919 111.998 69.8921 110.216 72.1832 107.543C74.4743 104.743 76.3835 100.67 77.9109 95.3238C79.5656 89.9779 81.0293 82.8501 82.3021 73.9403L107.313 78.1406C107.059 80.0499 106.677 82.2773 106.168 84.823C105.786 87.3686 105.404 89.9779 105.022 92.6508C104.768 95.1965 104.64 97.6149 104.64 99.906C104.64 102.197 105.086 104.234 105.977 106.016C106.868 107.797 108.268 109.325 110.177 110.598C112.214 111.743 114.823 112.634 118.005 113.271C121.314 113.907 125.324 114.225 130.033 114.225C134.87 114.225 138.307 115.498 140.343 118.044C142.38 120.462 143.398 123.517 143.398 127.208C143.398 131.154 142.061 134.463 139.388 137.136C136.843 139.682 133.088 140.955 128.124 140.955C122.396 140.955 117.178 140.509 112.468 139.618C107.886 138.727 103.877 137.263 100.44 135.227C97.1306 133.063 94.394 130.263 92.2302 126.826C90.1937 123.262 88.9208 118.935 88.4117 113.843H97.5761C95.285 119.953 92.3575 124.853 88.7936 128.545C85.3569 132.108 81.4748 134.781 77.1472 136.563C72.8196 138.345 68.301 139.491 63.5916 140C59.0094 140.636 54.4909 140.955 50.036 140.955ZM103.304 185.249C99.6126 185.249 96.4305 183.913 93.7576 181.24C91.2119 178.694 89.9391 175.639 89.9391 172.075C89.9391 168.384 91.2119 165.202 93.7576 162.529C96.4305 159.856 99.6126 158.52 103.304 158.52C106.868 158.52 109.922 159.856 112.468 162.529C115.014 165.202 116.287 168.384 116.287 172.075C116.287 175.639 115.014 178.694 112.468 181.24C109.922 183.913 106.868 185.249 103.304 185.249ZM70.2739 185.249C66.5827 185.249 63.4007 183.913 60.7277 181.24C58.1821 178.694 56.9092 175.639 56.9092 172.075C56.9092 168.384 58.1821 165.202 60.7277 162.529C63.4007 159.856 66.5827 158.52 70.2739 158.52C73.8378 158.52 76.8926 159.856 79.4383 162.529C81.9839 165.202 83.2568 168.384 83.2568 172.075C83.2568 175.639 81.9839 178.694 79.4383 181.24C76.8926 183.913 73.8378 185.249 70.2739 185.249ZM128.158 140.955L130.067 114.225C136.941 114.225 143.75 113.843 150.496 113.08C157.242 112.316 163.797 111.17 170.161 109.643C176.526 108.116 182.572 106.143 188.299 103.724C194.154 101.306 199.627 98.3786 204.719 94.9419C200.9 92.6508 196.764 90.678 192.309 89.0233C187.854 87.3686 183.081 86.1594 177.989 85.3957C173.025 84.5048 167.743 84.0593 162.143 84.0593C160.106 84.0593 157.942 84.1229 155.651 84.2502C153.487 84.3775 151.26 84.632 148.969 85.0139C146.678 85.2685 144.387 85.6503 142.096 86.1594L138.277 60.0028C141.968 58.9846 145.85 58.2845 149.924 57.9027C154.124 57.3935 157.815 57.139 160.997 57.139C167.87 57.139 174.171 57.9027 179.899 59.4301C185.754 60.9575 191.099 62.8667 195.936 65.1578C200.9 67.4489 205.482 69.74 209.683 72.0311C214.01 74.3221 218.083 76.2314 221.902 77.7588C225.848 79.2862 229.666 80.0499 233.357 80.0499H240.422L243.476 105.443C238.003 105.697 232.848 106.779 228.011 108.688C223.302 110.47 218.593 112.762 213.883 115.562C209.301 118.235 204.337 121.035 198.991 123.962C193.772 126.89 187.854 129.626 181.235 132.172C174.616 134.718 166.979 136.818 158.324 138.473C149.669 140.127 139.614 140.955 128.158 140.955ZM185.435 184.867C181.744 184.867 178.562 183.594 175.889 181.049C173.344 178.503 172.071 175.385 172.071 171.693C172.071 168.002 173.344 164.756 175.889 161.956C178.562 159.283 181.744 157.947 185.435 157.947C189.127 157.947 192.245 159.283 194.791 161.956C197.464 164.756 198.8 168.002 198.8 171.693C198.8 175.385 197.464 178.503 194.791 181.049C192.245 183.594 189.127 184.867 185.435 184.867ZM259.114 183.913L253.577 157.183C262.614 156.038 270.506 154.638 277.252 152.983C283.998 151.455 289.662 149.292 294.244 146.491C298.826 143.691 302.263 139.873 304.554 135.036C306.845 130.072 307.991 123.708 307.991 115.944C307.991 108.434 306.845 102.452 304.554 97.9967C302.263 93.5418 299.208 91.3144 295.39 91.3144C292.717 91.3144 290.489 92.269 288.707 94.1782C286.925 95.9602 285.589 98.124 284.698 100.67C283.934 103.088 283.552 105.252 283.552 107.161C283.552 108.307 283.871 109.516 284.507 110.789C285.143 112.061 286.544 113.143 288.707 114.034C290.871 114.925 294.244 115.434 298.826 115.562C303.536 115.689 309.9 115.244 317.919 114.225H349.994C354.831 114.225 358.267 115.498 360.304 118.044C362.468 120.462 363.55 123.517 363.55 127.208C363.55 131.154 362.213 134.463 359.54 137.136C356.867 139.682 353.049 140.955 348.085 140.955H295.581C287.562 140.955 280.689 140 274.961 138.091C269.233 136.182 264.842 133.127 261.787 128.926C258.732 124.599 257.205 118.871 257.205 111.743C257.205 106.016 258.16 100.288 260.069 94.5601C262.105 88.8324 264.906 83.6138 268.469 78.9043C272.033 74.0676 276.17 70.2491 280.88 67.4489C285.716 64.5214 290.935 63.0576 296.535 63.0576C304.172 63.0576 310.855 65.4124 316.582 70.1218C322.31 74.8313 326.765 81.0681 329.947 88.8324C333.256 96.5966 334.911 105.061 334.911 114.225C334.911 128.608 331.856 140.827 325.747 150.883C319.637 160.938 310.918 168.702 299.59 174.175C288.262 179.776 274.77 183.022 259.114 183.913ZM348.355 140.955L350.264 114.225C356.119 114.225 360.319 113.652 362.865 112.507C365.411 111.234 366.938 108.943 367.447 105.634C367.956 102.197 368.084 97.233 367.829 90.7416L364.392 0.243625H391.313L395.131 92.6508C395.386 100.033 395.067 106.716 394.176 112.698C393.413 118.553 391.44 123.581 388.258 127.781C385.203 131.981 380.43 135.227 373.939 137.518C367.574 139.809 359.046 140.955 348.355 140.955ZM415.918 183.913L410.381 157.183C419.418 156.038 427.31 154.638 434.056 152.983C440.802 151.455 446.466 149.292 451.048 146.491C455.63 143.691 459.067 139.873 461.358 135.036C463.649 130.072 464.794 123.708 464.794 115.944C464.794 108.434 463.649 102.452 461.358 97.9967C459.067 93.5418 456.012 91.3144 452.194 91.3144C449.521 91.3144 447.293 92.269 445.511 94.1782C443.729 95.9602 442.393 98.124 441.502 100.67C440.738 103.088 440.356 105.252 440.356 107.161C440.356 108.307 440.674 109.516 441.311 110.789C441.947 112.061 443.347 113.143 445.511 114.034C447.675 114.925 451.048 115.434 455.63 115.562C460.34 115.689 466.704 115.244 474.723 114.225H506.798C511.635 114.225 515.071 115.498 517.108 118.044C519.271 120.462 520.353 123.517 520.353 127.208C520.353 131.154 519.017 134.463 516.344 137.136C513.671 139.682 509.853 140.955 504.889 140.955H452.384C444.366 140.955 437.492 140 431.765 138.091C426.037 136.182 421.646 133.127 418.591 128.926C415.536 124.599 414.009 118.871 414.009 111.743C414.009 106.016 414.963 100.288 416.873 94.5601C418.909 88.8324 421.709 83.6138 425.273 78.9043C428.837 74.0676 432.974 70.2491 437.683 67.4489C442.52 64.5214 447.739 63.0576 453.339 63.0576C460.976 63.0576 467.658 65.4124 473.386 70.1218C479.114 74.8313 483.569 81.0681 486.751 88.8324C490.06 96.5966 491.715 105.061 491.715 114.225C491.715 128.608 488.66 140.827 482.55 150.883C476.441 160.938 467.722 168.702 456.394 174.175C445.066 179.776 431.574 183.022 415.918 183.913ZM505.159 140.955L507.068 114.225C511.904 114.225 515.723 113.78 518.523 112.889C521.451 111.998 523.742 110.216 525.396 107.543C527.178 104.743 528.642 100.67 529.788 95.3238C531.061 89.9779 532.333 82.8501 533.606 73.9403L558.617 78.1406C558.363 80.0499 557.981 82.2773 557.472 84.823C557.09 87.3686 556.708 89.9779 556.326 92.6508C556.072 95.1965 555.944 97.6149 555.944 99.906C555.944 102.961 556.581 105.57 557.854 107.734C559.254 109.77 561.672 111.361 565.109 112.507C568.673 113.652 573.764 114.225 580.383 114.225C585.219 114.225 588.656 115.498 590.692 118.044C592.729 120.462 593.747 123.517 593.747 127.208C593.747 131.154 592.411 134.463 589.738 137.136C587.192 139.682 583.437 140.955 578.473 140.955C569.691 140.955 562.563 140.127 557.09 138.473C551.617 136.818 547.544 134.018 544.871 130.072C542.198 126.126 540.479 120.717 539.716 113.843H548.88C546.589 119.953 543.916 124.853 540.861 128.545C537.807 132.108 534.37 134.781 530.551 136.563C526.733 138.345 522.66 139.491 518.332 140C514.132 140.636 509.741 140.955 505.159 140.955ZM544.107 54.466C540.161 54.466 536.788 53.1296 533.988 50.4566C531.315 47.7837 529.979 44.4744 529.979 40.5286C529.979 36.5828 531.315 33.2098 533.988 30.4096C536.788 27.6094 540.161 26.2093 544.107 26.2093C547.925 26.2093 551.171 27.6094 553.844 30.4096C556.644 33.2098 558.044 36.5828 558.044 40.5286C558.044 44.4744 556.644 47.7837 553.844 50.4566C551.171 53.1296 547.925 54.466 544.107 54.466ZM578.433 140.955L580.342 114.225H607.072C611.527 114.225 614.9 113.971 617.191 113.462C619.609 112.952 621.264 112.189 622.155 111.17C623.046 110.025 623.491 108.688 623.491 107.161C623.491 104.87 622.473 102.197 620.436 99.1423C618.527 96.0875 615.981 92.9054 612.799 89.5961C609.745 86.2867 606.499 82.9774 603.062 79.668C599.626 76.2314 596.316 73.0493 593.134 70.1218C590.079 67.1943 587.534 64.6487 585.497 62.4849C583.588 60.1938 582.633 58.5391 582.633 57.5208C582.633 53.9569 582.824 51.1567 583.206 49.1202C583.588 46.9564 584.097 45.2381 584.734 43.9652C585.497 42.6924 586.325 41.6105 587.216 40.7195C589.379 38.5557 592.625 36.1373 596.953 33.4644C601.28 30.6642 606.372 27.7367 612.227 24.6819C618.209 21.4998 624.891 18.1905 632.274 14.7539C639.656 11.1899 647.484 7.49874 655.757 3.68026L666.64 26.973C658.239 30.6642 650.73 34.1008 644.111 37.2829C637.619 40.3377 631.764 43.2015 626.546 45.8745C621.455 48.4201 616.872 50.8385 612.799 53.1296C608.854 55.4207 605.29 57.5845 602.108 59.621L604.017 45.4926C609.49 50.2021 614.454 54.657 618.909 58.8573C623.364 63.0576 627.501 67.258 631.319 71.4583C635.137 75.6586 638.701 79.9862 642.011 84.4411C645.447 88.896 648.757 93.7327 651.939 98.9513C654.739 103.406 657.603 106.716 660.53 108.879C663.585 111.043 666.513 112.507 669.313 113.271C672.24 113.907 674.85 114.225 677.141 114.225C681.977 114.225 685.414 115.498 687.451 118.044C689.614 120.462 690.696 123.517 690.696 127.208C690.696 131.154 689.36 134.463 686.687 137.136C684.014 139.682 680.196 140.955 675.232 140.955C671.031 140.955 666.513 140.255 661.676 138.854C656.839 137.327 652.321 134.909 648.12 131.599C643.92 128.29 640.738 123.771 638.574 118.044L648.884 118.807C646.975 122.88 644.684 126.381 642.011 129.308C639.465 132.108 636.41 134.4 632.846 136.182C629.282 137.836 625.209 139.045 620.627 139.809C616.045 140.573 610.89 140.955 605.162 140.955H578.433ZM675.387 140.955L677.296 114.225C684.933 114.225 690.788 113.843 694.861 113.08C698.934 112.316 701.734 110.916 703.262 108.879C704.916 106.716 705.744 103.661 705.744 99.715C705.744 96.1511 705.234 91.8872 704.216 86.9231C703.325 81.9591 702.116 76.8042 700.589 71.4583C699.189 66.1124 697.661 61.212 696.006 56.7571L722.354 49.502C724.009 53.8296 725.6 58.8573 727.127 64.585C728.654 70.3127 729.927 76.2314 730.946 82.341C731.964 88.3232 732.473 94.1146 732.473 99.715C732.473 108.37 731.073 115.434 728.273 120.908C725.472 126.253 721.527 130.39 716.435 133.318C711.471 136.245 705.489 138.282 698.488 139.427C691.488 140.445 683.787 140.955 675.387 140.955ZM727.127 34.0372C723.436 34.0372 720.254 32.7644 717.581 30.2187C715.035 27.5458 713.762 24.4273 713.762 20.8634C713.762 17.1722 715.035 13.9902 717.581 11.3172C720.254 8.64428 723.436 7.30781 727.127 7.30781C730.691 7.30781 733.746 8.64428 736.291 11.3172C738.837 13.9902 740.11 17.1722 740.11 20.8634C740.11 24.4273 738.837 27.5458 736.291 30.2187C733.746 32.7644 730.691 34.0372 727.127 34.0372ZM694.097 33.8462C690.406 33.8462 687.224 32.5734 684.551 30.0278C682.005 27.3548 680.733 24.2364 680.733 20.6725C680.733 16.9813 682.005 13.7992 684.551 11.1263C687.224 8.45336 690.406 7.11689 694.097 7.11689C697.661 7.11689 700.716 8.45336 703.262 11.1263C705.807 13.7992 707.08 16.9813 707.08 20.6725C707.08 24.2364 705.807 27.3548 703.262 30.0278C700.716 32.5734 697.661 33.8462 694.097 33.8462Z" fill="url(#paint0_linear_462_1465)"/>
<defs>
<linearGradient id="paint0_linear_462_1465" x1="94.0773" y1="106" x2="691.68" y2="92.4011" gradientUnits="userSpaceOnUse">
<stop stop-color="white"/>
<stop offset="1" stop-color="white" stop-opacity="0.34"/>
</linearGradient>
</defs>
</svg>
