<svg width="1270" height="1073" viewBox="0 0 1270 1073" fill="none" xmlns="http://www.w3.org/2000/svg">
<g opacity="0.5" filter="url(#filter0_f_318_250)">
<path fill-rule="evenodd" clip-rule="evenodd" d="M-14.2691 -104.048C35.3404 -115.831 73.2089 -164.132 124.165 -166.017C174.837 -167.892 241.387 -158.831 265.923 -114.412C297.689 -56.9045 251.656 15.8399 260.577 80.9334C264.825 111.934 280.357 142.752 303.976 163.262C353.469 206.241 464.605 198.459 471.054 263.709C476.866 322.505 365.388 317.193 323.283 358.591C297.203 384.233 293.091 424.3 275.242 456.233C253.481 495.167 245.889 550.062 205.597 569.147C165.818 587.988 119.611 544.774 75.9869 550.61C26.9966 557.164 -11.2647 604.701 -60.6931 604.771C-109.887 604.841 -171.058 592.951 -196.817 550.999C-226.201 503.146 -182.803 438.483 -196.275 383.963C-205.923 344.918 -244.183 320.179 -262.677 284.466C-285.426 240.536 -334.023 195.156 -318.34 148.246C-301.949 99.2203 -216.727 108.63 -189.255 64.8528C-159.895 18.0679 -203.824 -59.1998 -164.091 -97.5516C-127.808 -132.572 -63.3198 -92.3974 -14.2691 -104.048Z" fill="#5865F2" fill-opacity="0.3"/>
</g>
<g opacity="0.5" filter="url(#filter1_f_318_250)">
<path fill-rule="evenodd" clip-rule="evenodd" d="M66.7309 133.952C116.34 122.169 154.209 73.8676 205.165 71.9827C255.837 70.1084 322.387 79.1691 346.923 123.588C378.689 181.096 332.656 253.84 341.577 318.933C345.825 349.934 361.357 380.752 384.976 401.262C434.469 444.241 545.605 436.459 552.054 501.709C557.866 560.505 446.388 555.193 404.283 596.591C378.203 622.233 374.091 662.3 356.242 694.233C334.481 733.168 326.889 788.062 286.597 807.147C246.818 825.988 200.611 782.774 156.987 788.61C107.997 795.164 69.7353 842.701 20.3069 842.771C-28.8875 842.841 -90.0577 830.951 -115.817 788.999C-145.201 741.146 -101.803 676.483 -115.275 621.963C-124.923 582.918 -163.183 558.179 -181.677 522.466C-204.426 478.536 -253.023 433.156 -237.34 386.246C-220.949 337.22 -135.727 346.63 -108.255 302.853C-78.8953 256.068 -122.824 178.8 -83.0906 140.448C-46.8082 105.428 17.6802 145.603 66.7309 133.952Z" fill="#5865F2" fill-opacity="0.3"/>
</g>
<g opacity="0.5" filter="url(#filter2_f_318_250)">
<path fill-rule="evenodd" clip-rule="evenodd" d="M554.731 -237.048C604.34 -248.831 642.209 -297.132 693.165 -299.017C743.837 -300.892 810.387 -291.831 834.923 -247.412C866.689 -189.905 820.656 -117.16 829.577 -52.0667C833.825 -21.0661 849.357 9.7515 872.976 30.2617C922.469 73.2413 1033.6 65.4586 1040.05 130.709C1045.87 189.505 934.388 184.193 892.283 225.591C866.203 251.233 862.091 291.299 844.242 323.233C822.481 362.167 814.889 417.062 774.597 436.147C734.818 454.988 688.611 411.774 644.987 417.61C595.997 424.164 557.735 471.701 508.307 471.771C459.113 471.841 397.942 459.951 372.183 417.999C342.799 370.146 386.197 305.483 372.725 250.963C363.077 211.918 324.817 187.179 306.323 151.466C283.574 107.536 234.977 62.156 250.66 15.2459C267.051 -33.7798 352.273 -24.3703 379.745 -68.1472C409.105 -114.932 365.176 -192.2 404.909 -230.552C441.192 -265.572 505.68 -225.397 554.731 -237.048Z" fill="#5865F2" fill-opacity="0.3"/>
</g>
<defs>
<filter id="filter0_f_318_250" x="-550.899" y="-395.745" width="1251.67" height="1230.02" filterUnits="userSpaceOnUse" color-interpolation-filters="sRGB">
<feFlood flood-opacity="0" result="BackgroundImageFix"/>
<feBlend mode="normal" in="SourceGraphic" in2="BackgroundImageFix" result="shape"/>
<feGaussianBlur stdDeviation="114.75" result="effect1_foregroundBlur_318_250"/>
</filter>
<filter id="filter1_f_318_250" x="-469.899" y="-157.745" width="1251.67" height="1230.02" filterUnits="userSpaceOnUse" color-interpolation-filters="sRGB">
<feFlood flood-opacity="0" result="BackgroundImageFix"/>
<feBlend mode="normal" in="SourceGraphic" in2="BackgroundImageFix" result="shape"/>
<feGaussianBlur stdDeviation="114.75" result="effect1_foregroundBlur_318_250"/>
</filter>
<filter id="filter2_f_318_250" x="18.1013" y="-528.745" width="1251.67" height="1230.02" filterUnits="userSpaceOnUse" color-interpolation-filters="sRGB">
<feFlood flood-opacity="0" result="BackgroundImageFix"/>
<feBlend mode="normal" in="SourceGraphic" in2="BackgroundImageFix" result="shape"/>
<feGaussianBlur stdDeviation="114.75" result="effect1_foregroundBlur_318_250"/>
</filter>
</defs>
</svg>
