<svg width="1722" height="1566" viewBox="0 0 1722 1566" fill="none" xmlns="http://www.w3.org/2000/svg">
<g opacity="0.5" filter="url(#filter0_f_177_173)">
<path fill-rule="evenodd" clip-rule="evenodd" d="M731.635 325.33C811.381 306.492 873.899 236.201 955.382 231.387C1036.41 226.599 1142.35 236.701 1179.68 298.857C1228.02 379.327 1151.44 484.729 1162.96 576.946C1168.45 620.865 1191.98 664.05 1228.85 692.236C1306.12 751.299 1483.98 735.576 1491.56 828.121C1498.38 911.511 1320.51 908.622 1251.51 969.27C1208.78 1006.84 1200.53 1064 1170.68 1110.17C1134.29 1166.46 1119.86 1244.87 1054.69 1273.7C990.357 1302.16 918.349 1242.63 848.414 1252.76C769.876 1264.13 706.762 1333.35 627.796 1335.52C549.204 1337.68 451.981 1323.33 412.585 1264.73C367.648 1197.89 439.684 1104.1 420.445 1027.11C406.667 971.977 346.582 938.39 318.532 888.364C284.029 826.829 208.294 764.314 235.312 696.931C263.549 626.509 399.3 636.325 445.02 572.906C493.881 505.128 426.939 397.059 492.02 340.843C551.448 289.509 652.788 343.955 731.635 325.33Z" fill="white" fill-opacity="0.15"/>
</g>
<defs>
<filter id="filter0_f_177_173" x="0.101074" y="0.852783" width="1721.15" height="1564.37" filterUnits="userSpaceOnUse" color-interpolation-filters="sRGB">
<feFlood flood-opacity="0" result="BackgroundImageFix"/>
<feBlend mode="normal" in="SourceGraphic" in2="BackgroundImageFix" result="shape"/>
<feGaussianBlur stdDeviation="114.75" result="effect1_foregroundBlur_177_173"/>
</filter>
</defs>
</svg>
