<svg width="805" height="1376" viewBox="0 0 805 1376" fill="none" xmlns="http://www.w3.org/2000/svg">
<g opacity="0.5" filter="url(#filter0_f_177_171)">
<path fill-rule="evenodd" clip-rule="evenodd" d="M645.835 308.404C711.917 292.794 763.723 234.547 831.245 230.557C898.39 226.59 986.174 234.961 1017.11 286.467C1057.17 353.15 993.709 440.492 1003.26 516.909C1007.81 553.302 1027.3 589.088 1057.86 612.445C1121.88 661.388 1269.28 648.359 1275.55 725.047C1281.2 794.149 1133.81 791.755 1076.64 842.012C1041.22 873.142 1034.39 920.511 1009.65 958.771C979.495 1005.42 967.541 1070.39 913.539 1094.28C860.227 1117.87 800.557 1068.53 742.604 1076.93C677.523 1086.35 625.223 1143.71 559.787 1145.51C494.661 1147.3 414.096 1135.41 381.451 1086.85C344.213 1031.46 403.906 953.739 387.964 889.944C376.546 844.255 326.756 816.422 303.513 774.968C274.922 723.976 212.163 672.173 234.551 616.335C257.95 557.979 370.441 566.114 408.328 513.56C448.817 457.396 393.345 367.843 447.275 321.259C496.521 278.721 580.497 323.838 645.835 308.404Z" fill="#5865F2" fill-opacity="0.2"/>
</g>
<defs>
<filter id="filter0_f_177_171" x="0.318848" y="0.200577" width="1504.89" height="1374.98" filterUnits="userSpaceOnUse" color-interpolation-filters="sRGB">
<feFlood flood-opacity="0" result="BackgroundImageFix"/>
<feBlend mode="normal" in="SourceGraphic" in2="BackgroundImageFix" result="shape"/>
<feGaussianBlur stdDeviation="114.75" result="effect1_foregroundBlur_177_171"/>
</filter>
</defs>
</svg>
