<svg width="837" height="359" viewBox="0 0 837 359" fill="none" xmlns="http://www.w3.org/2000/svg">
<mask id="path-1-inside-1_685_709" fill="white">
<path d="M331.62 226.929C331.62 234.948 329.456 242.203 325.128 248.695C320.801 255.186 314.5 259.959 306.227 263.014L335.438 318H288.089L264.796 270.078H249.141V318H206.946V186.644H287.325C296.744 186.644 304.763 188.49 311.382 192.181C318.128 195.745 323.155 200.645 326.465 206.882C329.901 212.992 331.62 219.674 331.62 226.929ZM288.662 228.648C288.662 225.211 287.516 222.347 285.225 220.056C282.934 217.765 280.134 216.619 276.825 216.619H249.141V240.867H276.825C280.134 240.867 282.934 239.721 285.225 237.43C287.516 235.012 288.662 232.084 288.662 228.648ZM402.705 214.901C418.106 214.901 430.643 217.51 440.317 222.729C449.99 227.82 454.827 236.157 454.827 247.74V287.07C454.827 289.234 455.336 291.016 456.354 292.416C457.373 293.816 458.9 294.516 460.936 294.516H467.81V316.473C467.428 316.727 466.41 317.173 464.755 317.809C463.228 318.318 461 318.827 458.073 319.336C455.145 319.973 451.772 320.291 447.954 320.291C440.571 320.291 434.462 319.209 429.625 317.045C424.915 314.754 421.67 311.636 419.888 307.69C415.051 311.509 409.642 314.563 403.659 316.854C397.677 319.146 390.676 320.291 382.658 320.291C358.983 320.291 347.146 310.872 347.146 292.034C347.146 282.234 349.755 274.788 354.974 269.696C360.319 264.478 367.956 260.914 377.885 259.004C387.813 257.095 400.795 256.141 416.833 256.141V251.177C416.833 247.231 415.433 244.24 412.633 242.203C409.96 240.167 406.459 239.148 402.132 239.148C398.186 239.148 394.749 239.848 391.822 241.249C389.022 242.649 387.622 244.876 387.622 247.931V248.695H350.201C350.073 248.058 350.01 247.167 350.01 246.022C350.01 236.475 354.528 228.902 363.565 223.302C372.73 217.701 385.776 214.901 402.705 214.901ZM416.833 274.087C406.014 274.087 397.995 275.297 392.777 277.715C387.685 280.006 385.14 283.125 385.14 287.07C385.14 293.434 389.467 296.617 398.122 296.617C403.086 296.617 407.414 295.28 411.105 292.607C414.924 289.934 416.833 286.625 416.833 282.679V274.087ZM549.524 314.945C544.305 329.074 537.877 339.765 530.24 347.02C522.731 354.403 512.166 358.094 498.547 358.094C490.274 358.094 482.955 356.948 476.591 354.657V331.937H491.865C501.411 331.937 507.075 327.292 508.857 318L468.763 217.192H509.621L528.904 284.206H530.24L547.996 217.192H585.417L549.524 314.945ZM643.597 214.901C658.998 214.901 671.536 217.51 681.209 222.729C690.883 227.82 695.719 236.157 695.719 247.74V287.07C695.719 289.234 696.228 291.016 697.247 292.416C698.265 293.816 699.792 294.516 701.829 294.516H708.702V316.473C708.32 316.727 707.302 317.173 705.647 317.809C704.12 318.318 701.892 318.827 698.965 319.336C696.037 319.973 692.664 320.291 688.846 320.291C681.464 320.291 675.354 319.209 670.517 317.045C665.808 314.754 662.562 311.636 660.78 307.69C655.943 311.509 650.534 314.563 644.552 316.854C638.569 319.146 631.569 320.291 623.55 320.291C599.875 320.291 588.038 310.872 588.038 292.034C588.038 282.234 590.647 274.788 595.866 269.696C601.212 264.478 608.849 260.914 618.777 259.004C628.705 257.095 641.688 256.141 657.725 256.141V251.177C657.725 247.231 656.325 244.24 653.525 242.203C650.852 240.167 647.352 239.148 643.024 239.148C639.078 239.148 635.642 239.848 632.714 241.249C629.914 242.649 628.514 244.876 628.514 247.931V248.695H591.093C590.966 248.058 590.902 247.167 590.902 246.022C590.902 236.475 595.421 228.902 604.458 223.302C613.622 217.701 626.668 214.901 643.597 214.901ZM657.725 274.087C646.906 274.087 638.888 275.297 633.669 277.715C628.578 280.006 626.032 283.125 626.032 287.07C626.032 293.434 630.36 296.617 639.015 296.617C643.979 296.617 648.306 295.28 651.998 292.607C655.816 289.934 657.725 286.625 657.725 282.679V274.087ZM790.607 214.901C802.317 214.901 811.1 218.147 816.955 224.638C822.81 231.13 825.737 240.485 825.737 252.704V318H787.743V257.286C787.743 252.959 786.598 249.522 784.307 246.976C782.143 244.303 779.024 242.967 774.951 242.967C770.242 242.967 766.423 244.494 763.496 247.549C760.568 250.604 759.105 254.359 759.105 258.814V318H721.111V217.192H752.231L754.713 232.466C758.659 227.12 763.814 222.856 770.178 219.674C776.67 216.492 783.479 214.901 790.607 214.901Z"/>
</mask>
<path d="M331.62 226.929C331.62 234.948 329.456 242.203 325.128 248.695C320.801 255.186 314.5 259.959 306.227 263.014L335.438 318H288.089L264.796 270.078H249.141V318H206.946V186.644H287.325C296.744 186.644 304.763 188.49 311.382 192.181C318.128 195.745 323.155 200.645 326.465 206.882C329.901 212.992 331.62 219.674 331.62 226.929ZM288.662 228.648C288.662 225.211 287.516 222.347 285.225 220.056C282.934 217.765 280.134 216.619 276.825 216.619H249.141V240.867H276.825C280.134 240.867 282.934 239.721 285.225 237.43C287.516 235.012 288.662 232.084 288.662 228.648ZM402.705 214.901C418.106 214.901 430.643 217.51 440.317 222.729C449.99 227.82 454.827 236.157 454.827 247.74V287.07C454.827 289.234 455.336 291.016 456.354 292.416C457.373 293.816 458.9 294.516 460.936 294.516H467.81V316.473C467.428 316.727 466.41 317.173 464.755 317.809C463.228 318.318 461 318.827 458.073 319.336C455.145 319.973 451.772 320.291 447.954 320.291C440.571 320.291 434.462 319.209 429.625 317.045C424.915 314.754 421.67 311.636 419.888 307.69C415.051 311.509 409.642 314.563 403.659 316.854C397.677 319.146 390.676 320.291 382.658 320.291C358.983 320.291 347.146 310.872 347.146 292.034C347.146 282.234 349.755 274.788 354.974 269.696C360.319 264.478 367.956 260.914 377.885 259.004C387.813 257.095 400.795 256.141 416.833 256.141V251.177C416.833 247.231 415.433 244.24 412.633 242.203C409.96 240.167 406.459 239.148 402.132 239.148C398.186 239.148 394.749 239.848 391.822 241.249C389.022 242.649 387.622 244.876 387.622 247.931V248.695H350.201C350.073 248.058 350.01 247.167 350.01 246.022C350.01 236.475 354.528 228.902 363.565 223.302C372.73 217.701 385.776 214.901 402.705 214.901ZM416.833 274.087C406.014 274.087 397.995 275.297 392.777 277.715C387.685 280.006 385.14 283.125 385.14 287.07C385.14 293.434 389.467 296.617 398.122 296.617C403.086 296.617 407.414 295.28 411.105 292.607C414.924 289.934 416.833 286.625 416.833 282.679V274.087ZM549.524 314.945C544.305 329.074 537.877 339.765 530.24 347.02C522.731 354.403 512.166 358.094 498.547 358.094C490.274 358.094 482.955 356.948 476.591 354.657V331.937H491.865C501.411 331.937 507.075 327.292 508.857 318L468.763 217.192H509.621L528.904 284.206H530.24L547.996 217.192H585.417L549.524 314.945ZM643.597 214.901C658.998 214.901 671.536 217.51 681.209 222.729C690.883 227.82 695.719 236.157 695.719 247.74V287.07C695.719 289.234 696.228 291.016 697.247 292.416C698.265 293.816 699.792 294.516 701.829 294.516H708.702V316.473C708.32 316.727 707.302 317.173 705.647 317.809C704.12 318.318 701.892 318.827 698.965 319.336C696.037 319.973 692.664 320.291 688.846 320.291C681.464 320.291 675.354 319.209 670.517 317.045C665.808 314.754 662.562 311.636 660.78 307.69C655.943 311.509 650.534 314.563 644.552 316.854C638.569 319.146 631.569 320.291 623.55 320.291C599.875 320.291 588.038 310.872 588.038 292.034C588.038 282.234 590.647 274.788 595.866 269.696C601.212 264.478 608.849 260.914 618.777 259.004C628.705 257.095 641.688 256.141 657.725 256.141V251.177C657.725 247.231 656.325 244.24 653.525 242.203C650.852 240.167 647.352 239.148 643.024 239.148C639.078 239.148 635.642 239.848 632.714 241.249C629.914 242.649 628.514 244.876 628.514 247.931V248.695H591.093C590.966 248.058 590.902 247.167 590.902 246.022C590.902 236.475 595.421 228.902 604.458 223.302C613.622 217.701 626.668 214.901 643.597 214.901ZM657.725 274.087C646.906 274.087 638.888 275.297 633.669 277.715C628.578 280.006 626.032 283.125 626.032 287.07C626.032 293.434 630.36 296.617 639.015 296.617C643.979 296.617 648.306 295.28 651.998 292.607C655.816 289.934 657.725 286.625 657.725 282.679V274.087ZM790.607 214.901C802.317 214.901 811.1 218.147 816.955 224.638C822.81 231.13 825.737 240.485 825.737 252.704V318H787.743V257.286C787.743 252.959 786.598 249.522 784.307 246.976C782.143 244.303 779.024 242.967 774.951 242.967C770.242 242.967 766.423 244.494 763.496 247.549C760.568 250.604 759.105 254.359 759.105 258.814V318H721.111V217.192H752.231L754.713 232.466C758.659 227.12 763.814 222.856 770.178 219.674C776.67 216.492 783.479 214.901 790.607 214.901Z" fill="url(#paint0_linear_685_709)"/>
<path d="M325.128 248.695L324.296 248.14L324.296 248.14L325.128 248.695ZM306.227 263.014L305.88 262.076L304.807 262.472L305.344 263.483L306.227 263.014ZM335.438 318V319H337.102L336.321 317.531L335.438 318ZM288.089 318L287.19 318.437L287.463 319H288.089V318ZM264.796 270.078L265.696 269.641L265.422 269.078H264.796V270.078ZM249.141 270.078V269.078H248.141V270.078H249.141ZM249.141 318V319H250.141V318H249.141ZM206.946 318H205.946V319H206.946V318ZM206.946 186.644V185.644H205.946V186.644H206.946ZM311.382 192.181L310.895 193.054L310.905 193.06L310.915 193.065L311.382 192.181ZM326.465 206.882L325.581 207.351L325.587 207.362L325.593 207.372L326.465 206.882ZM285.225 220.056L284.518 220.763L284.518 220.763L285.225 220.056ZM249.141 216.619V215.619H248.141V216.619H249.141ZM249.141 240.867H248.141V241.867H249.141V240.867ZM285.225 237.43L285.932 238.137L285.942 238.128L285.951 238.118L285.225 237.43ZM330.62 226.929C330.62 234.756 328.511 241.818 324.296 248.14L325.96 249.249C330.401 242.589 332.62 235.14 332.62 226.929H330.62ZM324.296 248.14C320.101 254.433 313.982 259.084 305.88 262.076L306.573 263.952C315.018 260.834 321.5 255.939 325.96 249.249L324.296 248.14ZM305.344 263.483L334.555 318.469L336.321 317.531L307.11 262.545L305.344 263.483ZM335.438 317H288.089V319H335.438V317ZM288.988 317.563L265.696 269.641L263.897 270.515L287.19 318.437L288.988 317.563ZM264.796 269.078H249.141V271.078H264.796V269.078ZM248.141 270.078V318H250.141V270.078H248.141ZM249.141 317H206.946V319H249.141V317ZM207.946 318V186.644H205.946V318H207.946ZM206.946 187.644H287.325V185.644H206.946V187.644ZM287.325 187.644C296.615 187.644 304.457 189.464 310.895 193.054L311.869 191.308C305.069 187.516 296.874 185.644 287.325 185.644V187.644ZM310.915 193.065C317.498 196.543 322.374 201.306 325.581 207.351L327.348 206.414C323.937 199.985 318.757 194.947 311.849 191.297L310.915 193.065ZM325.593 207.372C328.943 213.327 330.62 219.84 330.62 226.929H332.62C332.62 219.509 330.86 212.657 327.336 206.392L325.593 207.372ZM289.662 228.648C289.662 224.964 288.423 221.84 285.932 219.349L284.518 220.763C286.609 222.854 287.662 225.458 287.662 228.648H289.662ZM285.932 219.349C283.449 216.866 280.393 215.619 276.825 215.619V217.619C279.875 217.619 282.419 218.664 284.518 220.763L285.932 219.349ZM276.825 215.619H249.141V217.619H276.825V215.619ZM248.141 216.619V240.867H250.141V216.619H248.141ZM249.141 241.867H276.825V239.867H249.141V241.867ZM276.825 241.867C280.393 241.867 283.449 240.62 285.932 238.137L284.518 236.723C282.419 238.822 279.875 239.867 276.825 239.867V241.867ZM285.951 238.118C288.424 235.507 289.662 232.331 289.662 228.648H287.662C287.662 231.837 286.608 234.516 284.499 236.742L285.951 238.118ZM440.317 222.729L439.842 223.609L439.851 223.614L440.317 222.729ZM456.354 292.416L457.163 291.828L457.163 291.828L456.354 292.416ZM467.81 294.516H468.81V293.516H467.81V294.516ZM467.81 316.473L468.364 317.305L468.81 317.008V316.473H467.81ZM464.755 317.809L465.071 318.758L465.093 318.751L465.114 318.742L464.755 317.809ZM458.073 319.336L457.901 318.351L457.881 318.355L457.86 318.359L458.073 319.336ZM429.625 317.045L429.187 317.945L429.202 317.952L429.217 317.958L429.625 317.045ZM419.888 307.69L420.799 307.279L420.272 306.112L419.268 306.905L419.888 307.69ZM403.659 316.854L403.302 315.921L403.302 315.921L403.659 316.854ZM354.974 269.696L355.672 270.412L355.672 270.412L354.974 269.696ZM377.885 259.004L377.696 258.022L377.696 258.022L377.885 259.004ZM416.833 256.141V257.141H417.833V256.141H416.833ZM412.633 242.203L412.027 242.999L412.035 243.005L412.044 243.012L412.633 242.203ZM391.822 241.249L391.39 240.346L391.383 240.35L391.375 240.354L391.822 241.249ZM387.622 248.695V249.695H388.622V248.695H387.622ZM350.201 248.695L349.22 248.891L349.381 249.695H350.201V248.695ZM363.565 223.302L363.044 222.448L363.038 222.452L363.565 223.302ZM416.833 274.087H417.833V273.087H416.833V274.087ZM392.777 277.715L393.187 278.627L393.197 278.622L392.777 277.715ZM411.105 292.607L410.532 291.788L410.525 291.792L410.519 291.797L411.105 292.607ZM402.705 215.901C418.003 215.901 430.361 218.494 439.842 223.609L440.791 221.849C430.925 216.526 418.209 213.901 402.705 213.901V215.901ZM439.851 223.614C444.544 226.084 448.023 229.317 450.334 233.302C452.648 237.29 453.827 242.089 453.827 247.74H455.827C455.827 241.808 454.587 236.647 452.064 232.298C449.539 227.946 445.763 224.465 440.782 221.844L439.851 223.614ZM453.827 247.74V287.07H455.827V247.74H453.827ZM453.827 287.07C453.827 289.392 454.375 291.395 455.546 293.004L457.163 291.828C456.297 290.637 455.827 289.076 455.827 287.07H453.827ZM455.546 293.004C456.787 294.711 458.644 295.516 460.936 295.516V293.516C459.156 293.516 457.958 292.922 457.163 291.828L455.546 293.004ZM460.936 295.516H467.81V293.516H460.936V295.516ZM466.81 294.516V316.473H468.81V294.516H466.81ZM467.255 315.641C467.145 315.714 466.868 315.859 466.359 316.081C465.869 316.296 465.216 316.56 464.396 316.876L465.114 318.742C465.948 318.422 466.632 318.145 467.16 317.914C467.669 317.691 468.093 317.486 468.364 317.305L467.255 315.641ZM464.439 316.86C462.983 317.346 460.813 317.845 457.901 318.351L458.244 320.322C461.187 319.81 463.472 319.291 465.071 318.758L464.439 316.86ZM457.86 318.359C455.018 318.977 451.719 319.291 447.954 319.291V321.291C451.825 321.291 455.272 320.969 458.285 320.314L457.86 318.359ZM447.954 319.291C440.66 319.291 434.701 318.221 430.033 316.133L429.217 317.958C434.222 320.197 440.482 321.291 447.954 321.291V319.291ZM430.062 316.146C425.517 313.935 422.466 310.969 420.799 307.279L418.976 308.102C420.874 312.303 424.314 315.574 429.187 317.945L430.062 316.146ZM419.268 306.905C414.514 310.659 409.193 313.664 403.302 315.921L404.017 317.788C410.09 315.463 415.588 312.359 420.507 308.475L419.268 306.905ZM403.302 315.921C397.458 318.158 390.584 319.291 382.658 319.291V321.291C390.769 321.291 397.896 320.133 404.017 317.788L403.302 315.921ZM382.658 319.291C370.926 319.291 362.313 316.953 356.646 312.444C351.024 307.97 348.146 301.231 348.146 292.034H346.146C346.146 301.676 349.186 309.064 355.401 314.009C361.572 318.92 370.714 321.291 382.658 321.291V319.291ZM348.146 292.034C348.146 282.407 350.706 275.257 355.672 270.412L354.275 268.98C348.805 274.318 346.146 282.06 346.146 292.034H348.146ZM355.672 270.412C360.836 265.371 368.271 261.871 378.073 259.986L377.696 258.022C367.641 259.956 359.803 263.585 354.275 268.981L355.672 270.412ZM378.073 259.986C387.914 258.094 400.827 257.141 416.833 257.141V255.141C400.764 255.141 387.711 256.096 377.696 258.022L378.073 259.986ZM417.833 256.141V251.177H415.833V256.141H417.833ZM417.833 251.177C417.833 246.962 416.319 243.647 413.221 241.394L412.044 243.012C414.547 244.832 415.833 247.499 415.833 251.177H417.833ZM413.239 241.408C410.347 239.205 406.615 238.148 402.132 238.148V240.148C406.304 240.148 409.572 241.129 412.027 242.999L413.239 241.408ZM402.132 238.148C398.068 238.148 394.479 238.869 391.39 240.346L392.253 242.151C395.02 240.827 398.304 240.148 402.132 240.148V238.148ZM391.375 240.354C389.842 241.12 388.64 242.141 387.825 243.437C387.01 244.734 386.622 246.246 386.622 247.931H388.622C388.622 246.561 388.934 245.431 389.518 244.501C390.104 243.57 391.001 242.777 392.269 242.143L391.375 240.354ZM386.622 247.931V248.695H388.622V247.931H386.622ZM387.622 247.695H350.201V249.695H387.622V247.695ZM351.181 248.498C351.073 247.958 351.01 247.143 351.01 246.022H349.01C349.01 247.191 349.074 248.159 349.22 248.891L351.181 248.498ZM351.01 246.022C351.01 236.866 355.309 229.595 364.092 224.152L363.038 222.452C353.747 228.21 349.01 236.085 349.01 246.022H351.01ZM364.087 224.155C373.028 218.691 385.863 215.901 402.705 215.901V213.901C385.689 213.901 372.431 216.712 363.044 222.448L364.087 224.155ZM416.833 273.087C405.975 273.087 397.777 274.296 392.356 276.808L393.197 278.622C398.213 276.298 406.053 275.087 416.833 275.087V273.087ZM392.366 276.803C387.09 279.178 384.14 282.571 384.14 287.07H386.14C386.14 283.678 388.281 280.835 393.187 278.627L392.366 276.803ZM384.14 287.07C384.14 290.504 385.324 293.22 387.793 295.036C390.205 296.809 393.702 297.617 398.122 297.617V295.617C393.888 295.617 390.893 294.833 388.978 293.424C387.119 292.058 386.14 290.001 386.14 287.07H384.14ZM398.122 297.617C403.277 297.617 407.815 296.225 411.692 293.417L410.519 291.797C407.014 294.335 402.896 295.617 398.122 295.617V297.617ZM411.679 293.426C415.709 290.605 417.833 287.013 417.833 282.679H415.833C415.833 286.236 414.138 289.263 410.532 291.788L411.679 293.426ZM417.833 282.679V274.087H415.833V282.679H417.833ZM549.524 314.945L550.462 315.292L550.462 315.29L549.524 314.945ZM530.24 347.02L529.552 346.295L529.545 346.301L529.539 346.307L530.24 347.02ZM476.591 354.657H475.591V355.36L476.252 355.598L476.591 354.657ZM476.591 331.937V330.937H475.591V331.937H476.591ZM508.857 318L509.839 318.188L509.894 317.902L509.786 317.63L508.857 318ZM468.763 217.192V216.192H467.289L467.834 217.562L468.763 217.192ZM509.621 217.192L510.582 216.916L510.373 216.192H509.621V217.192ZM528.904 284.206L527.943 284.483L528.151 285.206H528.904V284.206ZM530.24 284.206V285.206H531.01L531.207 284.463L530.24 284.206ZM547.996 217.192V216.192H547.227L547.03 216.936L547.996 217.192ZM585.417 217.192L586.356 217.537L586.85 216.192H585.417V217.192ZM548.586 314.599C543.399 328.641 537.04 339.181 529.552 346.295L530.929 347.745C538.714 340.35 545.211 329.506 550.462 315.292L548.586 314.599ZM529.539 346.307C522.267 353.456 511.984 357.094 498.547 357.094V359.094C512.348 359.094 523.194 355.349 530.941 347.734L529.539 346.307ZM498.547 357.094C490.364 357.094 483.164 355.961 476.929 353.717L476.252 355.598C482.746 357.936 490.183 359.094 498.547 359.094V357.094ZM477.591 354.657V331.937H475.591V354.657H477.591ZM476.591 332.937H491.865V330.937H476.591V332.937ZM491.865 332.937C496.798 332.937 500.848 331.735 503.907 329.226C506.967 326.716 508.917 322.996 509.839 318.188L507.875 317.812C507.015 322.296 505.242 325.544 502.638 327.68C500.033 329.817 496.477 330.937 491.865 330.937V332.937ZM509.786 317.63L469.692 216.823L467.834 217.562L507.928 318.37L509.786 317.63ZM468.763 218.192H509.621V216.192H468.763V218.192ZM508.66 217.469L527.943 284.483L529.865 283.93L510.582 216.916L508.66 217.469ZM528.904 285.206H530.24V283.206H528.904V285.206ZM531.207 284.463L548.963 217.448L547.03 216.936L529.274 283.95L531.207 284.463ZM547.996 218.192H585.417V216.192H547.996V218.192ZM584.479 216.847L548.585 314.601L550.462 315.29L586.356 217.537L584.479 216.847ZM681.209 222.729L680.734 223.609L680.743 223.614L681.209 222.729ZM697.247 292.416L698.055 291.828L698.055 291.828L697.247 292.416ZM708.702 294.516H709.702V293.516H708.702V294.516ZM708.702 316.473L709.257 317.305L709.702 317.008V316.473H708.702ZM705.647 317.809L705.964 318.758L705.985 318.751L706.006 318.742L705.647 317.809ZM698.965 319.336L698.794 318.351L698.773 318.355L698.753 318.359L698.965 319.336ZM670.517 317.045L670.08 317.945L670.094 317.952L670.109 317.958L670.517 317.045ZM660.78 307.69L661.692 307.279L661.165 306.112L660.161 306.905L660.78 307.69ZM644.552 316.854L644.194 315.921L644.194 315.921L644.552 316.854ZM595.866 269.696L596.564 270.412L596.565 270.412L595.866 269.696ZM618.777 259.004L618.588 258.022L618.588 258.022L618.777 259.004ZM657.725 256.141V257.141H658.725V256.141H657.725ZM653.525 242.203L652.919 242.999L652.928 243.005L652.937 243.012L653.525 242.203ZM632.714 241.249L632.283 240.346L632.275 240.35L632.267 240.354L632.714 241.249ZM628.514 248.695V249.695H629.514V248.695H628.514ZM591.093 248.695L590.112 248.891L590.273 249.695H591.093V248.695ZM604.458 223.302L603.936 222.448L603.931 222.452L604.458 223.302ZM657.725 274.087H658.725V273.087H657.725V274.087ZM633.669 277.715L634.079 278.627L634.089 278.622L633.669 277.715ZM651.998 292.607L651.424 291.788L651.418 291.792L651.411 291.797L651.998 292.607ZM643.597 215.901C658.895 215.901 671.253 218.494 680.734 223.609L681.684 221.849C671.818 216.526 659.101 213.901 643.597 213.901V215.901ZM680.743 223.614C685.436 226.084 688.915 229.317 691.227 233.302C693.54 237.29 694.719 242.089 694.719 247.74H696.719C696.719 241.808 695.48 236.647 692.957 232.298C690.432 227.946 686.655 224.465 681.675 221.844L680.743 223.614ZM694.719 247.74V287.07H696.719V247.74H694.719ZM694.719 287.07C694.719 289.392 695.267 291.395 696.438 293.004L698.055 291.828C697.19 290.637 696.719 289.076 696.719 287.07H694.719ZM696.438 293.004C697.679 294.711 699.537 295.516 701.829 295.516V293.516C700.048 293.516 698.851 292.922 698.055 291.828L696.438 293.004ZM701.829 295.516H708.702V293.516H701.829V295.516ZM707.702 294.516V316.473H709.702V294.516H707.702ZM708.147 315.641C708.037 315.714 707.761 315.859 707.251 316.081C706.761 316.296 706.109 316.56 705.288 316.876L706.006 318.742C706.84 318.422 707.524 318.145 708.053 317.914C708.561 317.691 708.985 317.486 709.257 317.305L708.147 315.641ZM705.331 316.86C703.875 317.346 701.706 317.845 698.794 318.351L699.136 320.322C702.079 319.81 704.365 319.291 705.964 318.758L705.331 316.86ZM698.753 318.359C695.911 318.977 692.611 319.291 688.846 319.291V321.291C692.717 321.291 696.164 320.969 699.177 320.314L698.753 318.359ZM688.846 319.291C681.553 319.291 675.594 318.221 670.926 316.133L670.109 317.958C675.114 320.197 681.375 321.291 688.846 321.291V319.291ZM670.955 316.146C666.41 313.935 663.358 310.969 661.692 307.279L659.869 308.102C661.766 312.303 665.206 315.574 670.08 317.945L670.955 316.146ZM660.161 306.905C655.406 310.659 650.086 313.664 644.194 315.921L644.909 317.788C650.982 315.463 656.481 312.359 661.4 308.475L660.161 306.905ZM644.194 315.921C638.351 318.158 631.476 319.291 623.55 319.291V321.291C631.661 321.291 638.788 320.133 644.909 317.788L644.194 315.921ZM623.55 319.291C611.819 319.291 603.205 316.953 597.539 312.444C591.916 307.97 589.038 301.231 589.038 292.034H587.038C587.038 301.676 590.079 309.064 596.293 314.009C602.465 318.92 611.607 321.291 623.55 321.291V319.291ZM589.038 292.034C589.038 282.407 591.598 275.257 596.564 270.412L595.168 268.98C589.697 274.318 587.038 282.06 587.038 292.034H589.038ZM596.565 270.412C601.729 265.371 609.164 261.871 618.966 259.986L618.588 258.022C608.534 259.956 600.695 263.585 595.167 268.981L596.565 270.412ZM618.966 259.986C628.806 258.094 641.719 257.141 657.725 257.141V255.141C641.657 255.141 628.604 256.096 618.588 258.022L618.966 259.986ZM658.725 256.141V251.177H656.725V256.141H658.725ZM658.725 251.177C658.725 246.962 657.211 243.647 654.113 241.394L652.937 243.012C655.439 244.832 656.725 247.499 656.725 251.177H658.725ZM654.131 241.408C651.239 239.205 647.507 238.148 643.024 238.148V240.148C647.196 240.148 650.465 241.129 652.919 242.999L654.131 241.408ZM643.024 238.148C638.961 238.148 635.371 238.869 632.283 240.346L633.146 242.151C635.913 240.827 639.196 240.148 643.024 240.148V238.148ZM632.267 240.354C630.735 241.12 629.532 242.141 628.717 243.437C627.902 244.734 627.514 246.246 627.514 247.931H629.514C629.514 246.561 629.826 245.431 630.411 244.501C630.996 243.57 631.894 242.777 633.162 242.143L632.267 240.354ZM627.514 247.931V248.695H629.514V247.931H627.514ZM628.514 247.695H591.093V249.695H628.514V247.695ZM592.073 248.498C591.965 247.958 591.902 247.143 591.902 246.022H589.902C589.902 247.191 589.966 248.159 590.112 248.891L592.073 248.498ZM591.902 246.022C591.902 236.866 596.202 229.595 604.984 224.152L603.931 222.452C594.639 228.21 589.902 236.085 589.902 246.022H591.902ZM604.979 224.155C613.92 218.691 626.756 215.901 643.597 215.901V213.901C626.581 213.901 613.323 216.712 603.936 222.448L604.979 224.155ZM657.725 273.087C646.867 273.087 638.669 274.296 633.248 276.808L634.089 278.622C639.106 276.298 646.946 275.087 657.725 275.087V273.087ZM633.259 276.803C627.982 279.178 625.032 282.571 625.032 287.07H627.032C627.032 283.678 629.173 280.835 634.079 278.627L633.259 276.803ZM625.032 287.07C625.032 290.504 626.216 293.22 628.685 295.036C631.097 296.809 634.594 297.617 639.015 297.617V295.617C634.78 295.617 631.786 294.833 629.87 293.424C628.012 292.058 627.032 290.001 627.032 287.07H625.032ZM639.015 297.617C644.17 297.617 648.707 296.225 652.584 293.417L651.411 291.797C647.906 294.335 643.788 295.617 639.015 295.617V297.617ZM652.571 293.426C656.601 290.605 658.725 287.013 658.725 282.679H656.725C656.725 286.236 655.031 289.263 651.424 291.788L652.571 293.426ZM658.725 282.679V274.087H656.725V282.679H658.725ZM816.955 224.638L816.212 225.308L816.955 224.638ZM825.737 318V319H826.737V318H825.737ZM787.743 318H786.743V319H787.743V318ZM784.307 246.976L783.529 247.605L783.546 247.626L783.563 247.645L784.307 246.976ZM759.105 318V319H760.105V318H759.105ZM721.111 318H720.111V319H721.111V318ZM721.111 217.192V216.192H720.111V217.192H721.111ZM752.231 217.192L753.218 217.032L753.082 216.192H752.231V217.192ZM754.713 232.466L753.726 232.626L754.107 234.971L755.518 233.06L754.713 232.466ZM770.178 219.674L769.738 218.776L769.731 218.78L770.178 219.674ZM790.607 215.901C802.135 215.901 810.605 219.091 816.212 225.308L817.697 223.968C811.594 217.202 802.499 213.901 790.607 213.901V215.901ZM816.212 225.308C821.845 231.554 824.737 240.634 824.737 252.704H826.737C826.737 240.336 823.774 230.705 817.697 223.968L816.212 225.308ZM824.737 252.704V318H826.737V252.704H824.737ZM825.737 317H787.743V319H825.737V317ZM788.743 318V257.286H786.743V318H788.743ZM788.743 257.286C788.743 252.779 787.546 249.081 785.05 246.307L783.563 247.645C785.649 249.963 786.743 253.138 786.743 257.286H788.743ZM785.084 246.347C782.694 243.395 779.264 241.967 774.951 241.967V243.967C778.784 243.967 781.591 245.211 783.529 247.605L785.084 246.347ZM774.951 241.967C770.003 241.967 765.912 243.582 762.774 246.857L764.218 248.241C766.934 245.406 770.48 243.967 774.951 243.967V241.967ZM762.774 246.857C759.658 250.109 758.105 254.116 758.105 258.814H760.105C760.105 254.601 761.479 251.099 764.218 248.241L762.774 246.857ZM758.105 258.814V318H760.105V258.814H758.105ZM759.105 317H721.111V319H759.105V317ZM722.111 318V217.192H720.111V318H722.111ZM721.111 218.192H752.231V216.192H721.111V218.192ZM751.244 217.353L753.726 232.626L755.7 232.306L753.218 217.032L751.244 217.353ZM755.518 233.06C759.363 227.85 764.392 223.685 770.625 220.569L769.731 218.78C763.236 222.027 757.955 226.39 753.909 231.872L755.518 233.06ZM770.618 220.572C776.975 217.456 783.634 215.901 790.607 215.901V213.901C783.324 213.901 776.364 215.528 769.738 218.776L770.618 220.572Z" fill="white" fill-opacity="0.25" mask="url(#path-1-inside-1_685_709)"/>
<mask id="path-3-inside-2_685_709" fill="white">
<path d="M69.485 34.3532C86.2864 34.3532 100.097 37.7898 110.916 44.6631C121.735 51.4091 127.271 61.4644 127.526 74.8291V77.1202H88.0047V76.3565C88.0047 72.538 86.6046 69.3559 83.8043 66.8103C81.0041 64.2646 76.7402 62.9918 71.0124 62.9918C65.412 62.9918 61.0844 63.8191 58.0296 65.4738C55.1021 67.1285 53.6383 69.165 53.6383 71.5834C53.6383 75.02 55.6749 77.5657 59.7479 79.2203C63.821 80.875 70.376 82.5933 79.4131 84.3753C89.9776 86.5391 98.6328 88.8302 105.379 91.2486C112.252 93.5396 118.234 97.3581 123.326 102.704C128.417 108.05 131.026 115.305 131.153 124.469C131.153 139.998 125.871 151.517 115.307 159.027C104.87 166.536 90.8685 170.291 73.3035 170.291C52.811 170.291 36.837 166.854 25.3816 159.981C14.0534 153.108 8.38936 140.952 8.38936 123.515H48.2925C48.2925 130.133 50.0108 134.588 53.4474 136.879C56.8841 139.043 62.2299 140.125 69.485 140.125C74.8309 140.125 79.2222 139.552 82.6588 138.407C86.2227 137.261 88.0047 134.907 88.0047 131.343C88.0047 128.161 86.0318 125.806 82.086 124.278C78.2675 122.624 71.9671 120.905 63.1845 119.123C52.4928 116.832 43.6467 114.478 36.6461 112.059C29.6456 109.514 23.536 105.377 18.3174 99.6492C13.0988 93.9215 10.4895 86.1572 10.4895 76.3565C10.4895 61.9735 16.0263 51.4091 27.0999 44.6631C38.3008 37.7898 52.4292 34.3532 69.485 34.3532ZM201.543 64.901C219.236 64.901 233.109 69.4196 243.165 78.4566C253.347 87.3664 258.439 100.413 258.439 117.596C258.439 134.779 253.347 147.889 243.165 156.926C233.109 165.836 219.236 170.291 201.543 170.291C183.851 170.291 169.977 165.836 159.922 156.926C149.867 148.017 144.839 134.907 144.839 117.596C144.839 100.286 149.867 87.1755 159.922 78.2657C169.977 69.3559 183.851 64.901 201.543 64.901ZM201.543 90.6758C189.07 90.6758 182.833 97.8672 182.833 112.25V123.133C182.833 137.389 189.07 144.516 201.543 144.516C214.144 144.516 220.445 137.389 220.445 123.133V112.25C220.445 97.8672 214.144 90.6758 201.543 90.6758ZM349.89 168L347.408 152.726C343.462 158.199 338.243 162.527 331.752 165.709C325.388 168.764 318.642 170.291 311.514 170.291C299.804 170.291 291.021 167.045 285.166 160.554C279.311 154.063 276.384 144.707 276.384 132.488V67.1921H314.378V127.906C314.378 132.234 315.46 135.734 317.624 138.407C319.915 140.952 323.097 142.225 327.17 142.225C331.879 142.225 335.698 140.698 338.625 137.643C341.553 134.588 343.016 130.833 343.016 126.379V67.1921H381.01V168H349.89ZM442.105 64.901C456.106 64.901 466.797 70.4378 474.18 81.5114L477.425 67.1921H508.355V205.612H470.361V158.836C463.233 166.473 453.815 170.291 442.105 170.291C428.485 170.291 417.984 165.9 410.602 157.117C403.22 148.208 399.528 135.097 399.528 117.787C399.528 100.349 403.22 87.1755 410.602 78.2657C417.984 69.3559 428.485 64.901 442.105 64.901ZM453.942 92.9669C442.996 92.9669 437.522 99.4583 437.522 112.441V122.56C437.522 135.67 442.996 142.225 453.942 142.225C459.542 142.225 463.743 140.252 466.543 136.307C469.343 132.234 470.743 127.015 470.743 120.651V114.35C470.743 107.986 469.343 102.831 466.543 98.8855C463.743 94.9397 459.542 92.9669 453.942 92.9669Z"/>
</mask>
<path d="M69.485 34.3532C86.2864 34.3532 100.097 37.7898 110.916 44.6631C121.735 51.4091 127.271 61.4644 127.526 74.8291V77.1202H88.0047V76.3565C88.0047 72.538 86.6046 69.3559 83.8043 66.8103C81.0041 64.2646 76.7402 62.9918 71.0124 62.9918C65.412 62.9918 61.0844 63.8191 58.0296 65.4738C55.1021 67.1285 53.6383 69.165 53.6383 71.5834C53.6383 75.02 55.6749 77.5657 59.7479 79.2203C63.821 80.875 70.376 82.5933 79.4131 84.3753C89.9776 86.5391 98.6328 88.8302 105.379 91.2486C112.252 93.5396 118.234 97.3581 123.326 102.704C128.417 108.05 131.026 115.305 131.153 124.469C131.153 139.998 125.871 151.517 115.307 159.027C104.87 166.536 90.8685 170.291 73.3035 170.291C52.811 170.291 36.837 166.854 25.3816 159.981C14.0534 153.108 8.38936 140.952 8.38936 123.515H48.2925C48.2925 130.133 50.0108 134.588 53.4474 136.879C56.8841 139.043 62.2299 140.125 69.485 140.125C74.8309 140.125 79.2222 139.552 82.6588 138.407C86.2227 137.261 88.0047 134.907 88.0047 131.343C88.0047 128.161 86.0318 125.806 82.086 124.278C78.2675 122.624 71.9671 120.905 63.1845 119.123C52.4928 116.832 43.6467 114.478 36.6461 112.059C29.6456 109.514 23.536 105.377 18.3174 99.6492C13.0988 93.9215 10.4895 86.1572 10.4895 76.3565C10.4895 61.9735 16.0263 51.4091 27.0999 44.6631C38.3008 37.7898 52.4292 34.3532 69.485 34.3532ZM201.543 64.901C219.236 64.901 233.109 69.4196 243.165 78.4566C253.347 87.3664 258.439 100.413 258.439 117.596C258.439 134.779 253.347 147.889 243.165 156.926C233.109 165.836 219.236 170.291 201.543 170.291C183.851 170.291 169.977 165.836 159.922 156.926C149.867 148.017 144.839 134.907 144.839 117.596C144.839 100.286 149.867 87.1755 159.922 78.2657C169.977 69.3559 183.851 64.901 201.543 64.901ZM201.543 90.6758C189.07 90.6758 182.833 97.8672 182.833 112.25V123.133C182.833 137.389 189.07 144.516 201.543 144.516C214.144 144.516 220.445 137.389 220.445 123.133V112.25C220.445 97.8672 214.144 90.6758 201.543 90.6758ZM349.89 168L347.408 152.726C343.462 158.199 338.243 162.527 331.752 165.709C325.388 168.764 318.642 170.291 311.514 170.291C299.804 170.291 291.021 167.045 285.166 160.554C279.311 154.063 276.384 144.707 276.384 132.488V67.1921H314.378V127.906C314.378 132.234 315.46 135.734 317.624 138.407C319.915 140.952 323.097 142.225 327.17 142.225C331.879 142.225 335.698 140.698 338.625 137.643C341.553 134.588 343.016 130.833 343.016 126.379V67.1921H381.01V168H349.89ZM442.105 64.901C456.106 64.901 466.797 70.4378 474.18 81.5114L477.425 67.1921H508.355V205.612H470.361V158.836C463.233 166.473 453.815 170.291 442.105 170.291C428.485 170.291 417.984 165.9 410.602 157.117C403.22 148.208 399.528 135.097 399.528 117.787C399.528 100.349 403.22 87.1755 410.602 78.2657C417.984 69.3559 428.485 64.901 442.105 64.901ZM453.942 92.9669C442.996 92.9669 437.522 99.4583 437.522 112.441V122.56C437.522 135.67 442.996 142.225 453.942 142.225C459.542 142.225 463.743 140.252 466.543 136.307C469.343 132.234 470.743 127.015 470.743 120.651V114.35C470.743 107.986 469.343 102.831 466.543 98.8855C463.743 94.9397 459.542 92.9669 453.942 92.9669Z" fill="url(#paint1_linear_685_709)"/>
<path d="M110.916 44.6631L110.379 45.5072L110.386 45.5117L110.916 44.6631ZM127.526 74.8291H128.526V74.8196L128.526 74.81L127.526 74.8291ZM127.526 77.1202V78.1202H128.526V77.1202H127.526ZM88.0047 77.1202H87.0047V78.1202H88.0047V77.1202ZM83.8043 66.8103L84.477 66.0703L84.477 66.0703L83.8043 66.8103ZM58.0296 65.4738L57.5533 64.5945L57.5454 64.5988L57.5375 64.6033L58.0296 65.4738ZM59.7479 79.2203L60.1243 78.2939L60.1243 78.2939L59.7479 79.2203ZM79.4131 84.3753L79.6137 83.3956L79.6065 83.3942L79.4131 84.3753ZM105.379 91.2486L105.041 92.1899L105.052 92.1937L105.063 92.1972L105.379 91.2486ZM131.153 124.469H132.154L132.153 124.455L131.153 124.469ZM115.307 159.027L114.727 158.212L114.723 158.215L115.307 159.027ZM25.3816 159.981L24.8629 160.836L24.8671 160.839L25.3816 159.981ZM8.38936 123.515V122.515H7.38936V123.515H8.38936ZM48.2925 123.515H49.2925V122.515H48.2925V123.515ZM53.4474 136.879L52.8927 137.711L52.9036 137.719L52.9146 137.726L53.4474 136.879ZM82.6588 138.407L82.3528 137.455L82.3426 137.458L82.6588 138.407ZM82.086 124.278L81.6884 125.196L81.7066 125.204L81.725 125.211L82.086 124.278ZM63.1845 119.123L62.975 120.101L62.9857 120.103L63.1845 119.123ZM36.6461 112.059L36.3044 112.999L36.312 113.002L36.3196 113.004L36.6461 112.059ZM18.3174 99.6492L17.5782 100.323L17.5782 100.323L18.3174 99.6492ZM27.0999 44.6631L27.6202 45.5171L27.6229 45.5154L27.0999 44.6631ZM69.485 35.3532C86.1543 35.3532 99.7633 38.7629 110.379 45.5072L111.452 43.819C100.43 36.8168 86.4184 33.3532 69.485 33.3532V35.3532ZM110.386 45.5117C120.902 52.0684 126.278 61.8021 126.526 74.8481L128.526 74.81C128.265 61.1267 122.567 50.7497 111.445 43.8145L110.386 45.5117ZM126.526 74.8291V77.1202H128.526V74.8291H126.526ZM127.526 76.1202H88.0047V78.1202H127.526V76.1202ZM89.0047 77.1202V76.3565H87.0047V77.1202H89.0047ZM89.0047 76.3565C89.0047 72.2591 87.4878 68.8075 84.477 66.0703L83.1317 67.5502C85.7213 69.9044 87.0047 72.8168 87.0047 76.3565H89.0047ZM84.477 66.0703C81.4179 63.2894 76.8649 61.9918 71.0124 61.9918V63.9918C76.6154 63.9918 80.5903 65.2399 83.1317 67.5502L84.477 66.0703ZM71.0124 61.9918C65.3367 61.9918 60.8177 62.8263 57.5533 64.5945L58.5059 66.3531C61.3511 64.8119 65.4872 63.9918 71.0124 63.9918V61.9918ZM57.5375 64.6033C54.4341 66.3574 52.6383 68.6699 52.6383 71.5834H54.6383C54.6383 69.6601 55.7701 67.8996 58.5217 66.3444L57.5375 64.6033ZM52.6383 71.5834C52.6383 73.5155 53.2167 75.2346 54.3849 76.6948C55.5408 78.1397 57.2296 79.2767 59.3715 80.1468L60.1243 78.2939C58.1931 77.5093 56.8272 76.5462 55.9466 75.4454C55.0783 74.36 54.6383 73.0879 54.6383 71.5834H52.6383ZM59.3715 80.1468C63.5383 81.8396 70.1724 83.5724 79.2196 85.3564L79.6065 83.3942C70.5796 81.6142 64.1036 79.9105 60.1243 78.2939L59.3715 80.1468ZM79.2124 85.3549C89.7511 87.5135 98.3562 89.7933 105.041 92.1899L105.716 90.3072C98.9094 87.867 90.204 85.5647 79.6137 83.3956L79.2124 85.3549ZM105.063 92.1972C111.778 94.4356 117.621 98.1638 122.601 103.394L124.05 102.014C118.848 96.5524 112.726 92.6437 105.695 90.2999L105.063 92.1972ZM122.601 103.394C127.48 108.516 130.029 115.507 130.154 124.483L132.153 124.455C132.024 115.103 129.354 107.584 124.05 102.014L122.601 103.394ZM130.153 124.469C130.153 139.747 124.974 150.928 114.727 158.212L115.886 159.842C126.769 152.106 132.153 140.249 132.153 124.469H130.153ZM114.723 158.215C104.508 165.565 90.7341 169.291 73.3035 169.291V171.291C91.003 171.291 105.231 167.508 115.891 159.838L114.723 158.215ZM73.3035 169.291C52.9032 169.291 37.1343 165.867 25.8961 159.124L24.8671 160.839C36.5398 167.842 52.7189 171.291 73.3035 171.291V169.291ZM25.9003 159.126C14.9643 152.491 9.38936 140.728 9.38936 123.515H7.38936C7.38936 141.177 13.1425 153.725 24.8629 160.836L25.9003 159.126ZM8.38936 124.515H48.2925V122.515H8.38936V124.515ZM47.2925 123.515C47.2925 130.26 49.041 135.144 52.8927 137.711L54.0021 136.047C50.9806 134.033 49.2925 130.006 49.2925 123.515H47.2925ZM52.9146 137.726C56.5927 140.041 62.1699 141.125 69.485 141.125V139.125C62.2899 139.125 57.1754 138.045 53.9802 136.033L52.9146 137.726ZM69.485 141.125C74.8923 141.125 79.4003 140.547 82.975 139.355L82.3426 137.458C79.044 138.558 74.7696 139.125 69.485 139.125V141.125ZM82.9648 139.359C84.89 138.74 86.421 137.765 87.4656 136.385C88.5135 135 89.0047 133.296 89.0047 131.343H87.0047C87.0047 132.953 86.6049 134.208 85.8708 135.178C85.1335 136.152 83.9915 136.928 82.3528 137.455L82.9648 139.359ZM89.0047 131.343C89.0047 129.526 88.4346 127.912 87.2915 126.548C86.1634 125.201 84.5208 124.149 82.447 123.346L81.725 125.211C83.597 125.936 84.9138 126.824 85.7585 127.832C86.5883 128.823 87.0047 129.977 87.0047 131.343H89.0047ZM82.4836 123.361C78.5628 121.662 72.1747 119.927 63.3834 118.143L62.9857 120.103C71.7595 121.884 77.9723 123.586 81.6884 125.196L82.4836 123.361ZM63.3941 118.146C52.7252 115.859 43.9215 113.515 36.9726 111.114L36.3196 113.004C43.3718 115.441 52.2604 117.805 62.975 120.101L63.3941 118.146ZM36.9879 111.119C30.1456 108.631 24.1707 104.589 19.0566 98.9757L17.5782 100.323C22.9013 106.165 29.1455 110.396 36.3044 112.999L36.9879 111.119ZM19.0566 98.9757C14.0468 93.4772 11.4895 85.9766 11.4895 76.3565H9.48952C9.48952 86.3379 12.1508 94.3658 17.5782 100.323L19.0566 98.9757ZM11.4895 76.3565C11.4895 62.2768 16.8815 52.059 27.6202 45.5171L26.5797 43.8091C15.1711 50.7591 9.48952 61.6703 9.48952 76.3565H11.4895ZM27.6229 45.5154C38.626 38.7635 52.5598 35.3532 69.485 35.3532V33.3532C52.2985 33.3532 37.9755 36.8162 26.5769 43.8108L27.6229 45.5154ZM243.165 78.4566L242.496 79.2005L242.506 79.2092L243.165 78.4566ZM243.165 156.926L243.828 157.675L243.828 157.674L243.165 156.926ZM159.922 156.926L159.259 157.675L159.259 157.675L159.922 156.926ZM159.922 78.2657L159.259 77.5173L159.259 77.5173L159.922 78.2657ZM201.543 65.901C219.067 65.901 232.675 70.3739 242.496 79.2004L243.833 77.7129C233.544 68.4652 219.404 63.901 201.543 63.901V65.901ZM242.506 79.2092C252.416 87.8802 257.439 100.618 257.439 117.596H259.439C259.439 100.208 254.279 86.8526 243.823 77.7041L242.506 79.2092ZM257.439 117.596C257.439 134.574 252.416 147.379 242.501 156.178L243.828 157.674C254.279 148.4 259.439 134.985 259.439 117.596H257.439ZM242.502 156.178C232.681 164.88 219.07 169.291 201.543 169.291V171.291C219.401 171.291 233.538 166.792 243.828 157.675L242.502 156.178ZM201.543 169.291C184.016 169.291 170.406 164.88 160.585 156.178L159.259 157.675C169.548 166.792 183.686 171.291 201.543 171.291V169.291ZM160.585 156.178C150.802 147.509 145.839 134.708 145.839 117.596H143.839C143.839 135.105 148.931 148.524 159.259 157.675L160.585 156.178ZM145.839 117.596C145.839 100.484 150.802 87.6827 160.585 79.0142L159.259 77.5173C148.931 86.6683 143.839 100.087 143.839 117.596H145.839ZM160.585 79.0142C170.406 70.3121 184.016 65.901 201.543 65.901V63.901C183.686 63.901 169.548 68.3998 159.259 77.5173L160.585 79.0142ZM201.543 89.6758C195.112 89.6758 190.118 91.5362 186.755 95.4142C183.415 99.2649 181.833 104.937 181.833 112.25H183.833C183.833 105.181 185.369 100.065 188.266 96.7246C191.14 93.4111 195.501 91.6758 201.543 91.6758V89.6758ZM181.833 112.25V123.133H183.833V112.25H181.833ZM181.833 123.133C181.833 130.384 183.416 136.01 186.758 139.829C190.122 143.674 195.115 145.516 201.543 145.516V143.516C195.498 143.516 191.136 141.795 188.263 138.512C185.368 135.203 183.833 130.137 183.833 123.133H181.833ZM201.543 145.516C208.032 145.516 213.072 143.675 216.469 139.833C219.844 136.014 221.445 130.387 221.445 123.133H219.445C219.445 130.135 217.895 135.2 214.97 138.508C212.066 141.793 207.655 143.516 201.543 143.516V145.516ZM221.445 123.133V112.25H219.445V123.133H221.445ZM221.445 112.25C221.445 104.935 219.845 99.2613 216.472 95.4104C213.076 91.5343 208.035 89.6758 201.543 89.6758V91.6758C207.653 91.6758 212.063 93.413 214.967 96.7284C217.894 100.069 219.445 105.183 219.445 112.25H221.445ZM349.89 168L348.903 168.16L349.039 169H349.89V168ZM347.408 152.726L348.395 152.566L348.008 150.184L346.597 152.141L347.408 152.726ZM331.752 165.709L332.185 166.61L332.192 166.607L331.752 165.709ZM285.166 160.554L284.424 161.224L284.424 161.224L285.166 160.554ZM276.384 67.1921V66.1921H275.384V67.1921H276.384ZM314.378 67.1921H315.378V66.1921H314.378V67.1921ZM317.624 138.407L316.846 139.036L316.863 139.056L316.88 139.076L317.624 138.407ZM338.625 137.643L337.903 136.951L337.903 136.951L338.625 137.643ZM343.016 67.1921V66.1921H342.016V67.1921H343.016ZM381.01 67.1921H382.01V66.1921H381.01V67.1921ZM381.01 168V169H382.01V168H381.01ZM350.877 167.84L348.395 152.566L346.421 152.886L348.903 168.16L350.877 167.84ZM346.597 152.141C342.754 157.472 337.667 161.696 331.312 164.811L332.192 166.607C338.82 163.358 344.17 158.927 348.219 153.311L346.597 152.141ZM331.319 164.807C325.091 167.797 318.494 169.291 311.514 169.291V171.291C318.79 171.291 325.684 169.731 332.185 166.61L331.319 164.807ZM311.514 169.291C299.986 169.291 291.516 166.101 285.909 159.884L284.424 161.224C290.527 167.99 299.622 171.291 311.514 171.291V169.291ZM285.909 159.884C280.276 153.638 277.384 144.558 277.384 132.488H275.384C275.384 144.856 278.347 154.487 284.424 161.224L285.909 159.884ZM277.384 132.488V67.1921H275.384V132.488H277.384ZM276.384 68.1921H314.378V66.1921H276.384V68.1921ZM313.378 67.1921V127.906H315.378V67.1921H313.378ZM313.378 127.906C313.378 132.402 314.504 136.143 316.846 139.036L318.401 137.778C316.415 135.325 315.378 132.065 315.378 127.906H313.378ZM316.88 139.076C319.397 141.872 322.872 143.225 327.17 143.225V141.225C323.322 141.225 320.432 140.033 318.367 137.738L316.88 139.076ZM327.17 143.225C332.118 143.225 336.209 141.61 339.347 138.335L337.903 136.951C335.187 139.786 331.641 141.225 327.17 141.225V143.225ZM339.347 138.335C342.463 135.083 344.016 131.076 344.016 126.379H342.016C342.016 130.591 340.642 134.093 337.903 136.951L339.347 138.335ZM344.016 126.379V67.1921H342.016V126.379H344.016ZM343.016 68.1921H381.01V66.1921H343.016V68.1921ZM380.01 67.1921V168H382.01V67.1921H380.01ZM381.01 167H349.89V169H381.01V167ZM474.18 81.5114L473.348 82.0661L474.64 84.0046L475.155 81.7325L474.18 81.5114ZM477.425 67.1921V66.1921H476.627L476.45 66.9711L477.425 67.1921ZM508.355 67.1921H509.355V66.1921H508.355V67.1921ZM508.355 205.612V206.612H509.355V205.612H508.355ZM470.361 205.612H469.361V206.612H470.361V205.612ZM470.361 158.836H471.361V156.299L469.63 158.153L470.361 158.836ZM410.602 157.117L409.832 157.755L409.837 157.761L410.602 157.117ZM410.602 78.2657L409.832 77.6277L409.832 77.6277L410.602 78.2657ZM466.543 136.307L467.358 136.885L467.363 136.879L467.367 136.873L466.543 136.307ZM466.543 98.8855L467.358 98.3068L467.358 98.3068L466.543 98.8855ZM442.105 65.901C455.792 65.901 466.162 71.2876 473.348 82.0661L475.012 80.9567C467.433 69.5881 456.419 63.901 442.105 63.901V65.901ZM475.155 81.7325L478.401 67.4132L476.45 66.9711L473.205 81.2904L475.155 81.7325ZM477.425 68.1921H508.355V66.1921H477.425V68.1921ZM507.355 67.1921V205.612H509.355V67.1921H507.355ZM508.355 204.612H470.361V206.612H508.355V204.612ZM471.361 205.612V158.836H469.361V205.612H471.361ZM469.63 158.153C462.715 165.562 453.574 169.291 442.105 169.291V171.291C454.055 171.291 463.752 167.383 471.092 159.518L469.63 158.153ZM442.105 169.291C428.72 169.291 418.524 164.987 411.368 156.474L409.837 157.761C417.445 166.812 428.251 171.291 442.105 171.291V169.291ZM411.372 156.479C404.197 147.819 400.528 134.976 400.528 117.787H398.528C398.528 135.219 402.243 148.596 409.832 157.755L411.372 156.479ZM400.528 117.787C400.528 100.469 404.197 87.5628 411.372 78.9037L409.832 77.6277C402.242 86.7882 398.528 100.23 398.528 117.787H400.528ZM411.372 78.9037C418.53 70.2648 428.724 65.901 442.105 65.901V63.901C428.246 63.901 417.439 68.4471 409.832 77.6277L411.372 78.9037ZM453.942 91.9669C448.266 91.9669 443.841 93.658 440.863 97.1908C437.912 100.691 436.522 105.833 436.522 112.441H438.522C438.522 106.066 439.87 101.471 442.392 98.48C444.886 95.5214 448.672 93.9669 453.942 93.9669V91.9669ZM436.522 112.441V122.56H438.522V112.441H436.522ZM436.522 122.56C436.522 129.23 437.911 134.418 440.86 137.95C443.837 141.516 448.262 143.225 453.942 143.225V141.225C448.675 141.225 444.89 139.657 442.395 136.668C439.87 133.645 438.522 129.001 438.522 122.56H436.522ZM453.942 143.225C459.808 143.225 464.339 141.14 467.358 136.885L465.727 135.728C463.146 139.365 459.277 141.225 453.942 141.225V143.225ZM467.367 136.873C470.311 132.591 471.743 127.159 471.743 120.651H469.743C469.743 126.871 468.375 131.876 465.719 135.74L467.367 136.873ZM471.743 120.651V114.35H469.743V120.651H471.743ZM471.743 114.35C471.743 107.844 470.311 102.468 467.358 98.3068L465.727 99.4643C468.375 103.195 469.743 108.129 469.743 114.35H471.743ZM467.358 98.3068C464.339 94.0523 459.808 91.9669 453.942 91.9669V93.9669C459.277 93.9669 463.146 95.8272 465.727 99.4643L467.358 98.3068Z" fill="white" fill-opacity="0.25" mask="url(#path-3-inside-2_685_709)"/>
<defs>
<linearGradient id="paint0_linear_685_709" x1="837" y1="358" x2="503.628" y2="-91.6394" gradientUnits="userSpaceOnUse">
<stop stop-color="white" stop-opacity="0.12"/>
<stop offset="0.277709" stop-color="white" stop-opacity="0.0424926"/>
<stop offset="0.615421" stop-color="white" stop-opacity="0"/>
<stop offset="0.965441" stop-color="white" stop-opacity="0.1"/>
</linearGradient>
<linearGradient id="paint1_linear_685_709" x1="520" y1="208" x2="172.814" y2="-169.52" gradientUnits="userSpaceOnUse">
<stop stop-color="white" stop-opacity="0.12"/>
<stop offset="0.277709" stop-color="white" stop-opacity="0.0424926"/>
<stop offset="0.615421" stop-color="white" stop-opacity="0"/>
<stop offset="0.965441" stop-color="white" stop-opacity="0.1"/>
</linearGradient>
</defs>
</svg>
