<svg width="720" height="320" viewBox="0 0 720 320" fill="none" xmlns="http://www.w3.org/2000/svg">
<path d="M139.481 76.9292C139.481 84.9481 137.317 92.2032 132.989 98.6946C128.662 105.186 122.361 109.959 114.088 113.014L143.299 168H95.95L72.6573 120.078H57.0015V168H14.8073V36.6443H95.1863C104.605 36.6443 112.624 38.4899 119.243 42.1811C125.989 45.745 131.016 50.6454 134.326 56.8822C137.762 62.9918 139.481 69.6741 139.481 76.9292ZM96.5228 78.6476C96.5228 75.2109 95.3773 72.3471 93.0862 70.056C90.7951 67.7649 87.9949 66.6194 84.6855 66.6194H57.0015V90.8667H84.6855C87.9949 90.8667 90.7951 89.7212 93.0862 87.4301C95.3773 85.0117 96.5228 82.0842 96.5228 78.6476ZM251.423 168L245.887 149.48H199.874L194.337 168H151.188L199.11 36.6443H248.178L296.1 168H251.423ZM208.656 120.078H237.104L223.357 73.3017H222.594L208.656 120.078ZM377.311 168H335.117V117.023L282.994 36.6443H331.489L356.691 80.3659H357.455L382.657 36.6443H428.669L377.311 117.023V168ZM514.503 168L508.966 149.48H462.954L457.417 168H414.268L462.19 36.6443H511.257L559.179 168H514.503ZM471.736 120.078H500.184L486.437 73.3017H485.674L471.736 120.078ZM669.022 168L613.845 104.231V168H575.087V36.6443H611.936L667.113 101.368V36.6443H705.87V168H669.022Z" fill="#080808"/>
<path d="M425.802 274.811C420.47 274.811 415.679 273.884 411.428 272.029C407.255 270.097 403.971 267.47 401.575 264.147C399.179 260.746 397.943 256.844 397.866 252.439H409.11C409.496 256.226 411.042 259.433 413.747 262.06C416.529 264.61 420.547 265.886 425.802 265.886C430.825 265.886 434.767 264.649 437.626 262.176C440.563 259.626 442.031 256.38 442.031 252.439C442.031 249.348 441.181 246.836 439.481 244.904C437.781 242.972 435.655 241.504 433.105 240.499C430.555 239.494 427.116 238.413 422.788 237.253C417.456 235.862 413.167 234.471 409.921 233.08C406.753 231.689 404.009 229.525 401.691 226.589C399.45 223.575 398.329 219.556 398.329 214.533C398.329 210.128 399.45 206.225 401.691 202.825C403.932 199.425 407.062 196.797 411.08 194.943C415.176 193.088 419.852 192.16 425.107 192.16C432.68 192.16 438.863 194.054 443.654 197.841C448.523 201.627 451.266 206.65 451.884 212.91H440.292C439.906 209.819 438.283 207.114 435.424 204.796C432.564 202.4 428.778 201.202 424.063 201.202C419.659 201.202 416.065 202.361 413.283 204.68C410.501 206.921 409.11 210.089 409.11 214.185C409.11 217.122 409.921 219.518 411.544 221.372C413.244 223.227 415.292 224.657 417.688 225.661C420.161 226.589 423.6 227.671 428.005 228.907C433.337 230.375 437.626 231.844 440.872 233.312C444.118 234.703 446.9 236.906 449.218 239.92C451.537 242.856 452.696 246.875 452.696 251.975C452.696 255.916 451.652 259.626 449.566 263.104C447.479 266.581 444.388 269.402 440.292 271.566C436.196 273.73 431.366 274.811 425.802 274.811ZM504.85 274.811C497.354 274.811 490.514 273.073 484.332 269.595C478.15 266.04 473.242 261.133 469.61 254.873C466.055 248.536 464.278 241.426 464.278 233.544C464.278 225.661 466.055 218.59 469.61 212.331C473.242 205.994 478.15 201.086 484.332 197.609C490.514 194.054 497.354 192.276 504.85 192.276C512.423 192.276 519.301 194.054 525.484 197.609C531.666 201.086 536.535 205.955 540.089 212.215C543.644 218.474 545.422 225.584 545.422 233.544C545.422 241.504 543.644 248.614 540.089 254.873C536.535 261.133 531.666 266.04 525.484 269.595C519.301 273.073 512.423 274.811 504.85 274.811ZM504.85 265.654C510.491 265.654 515.553 264.34 520.035 261.712C524.595 259.085 528.15 255.337 530.7 250.468C533.327 245.6 534.641 239.958 534.641 233.544C534.641 227.052 533.327 221.411 530.7 216.62C528.15 211.751 524.633 208.003 520.151 205.375C515.669 202.748 510.568 201.434 504.85 201.434C499.131 201.434 494.031 202.748 489.548 205.375C485.066 208.003 481.511 211.751 478.884 216.62C476.333 221.411 475.058 227.052 475.058 233.544C475.058 239.958 476.333 245.6 478.884 250.468C481.511 255.337 485.066 259.085 489.548 261.712C494.108 264.34 499.208 265.654 504.85 265.654ZM569.664 193.204V244.324C569.664 251.512 571.403 256.844 574.881 260.321C578.436 263.799 583.343 265.538 589.603 265.538C595.785 265.538 600.615 263.799 604.093 260.321C607.648 256.844 609.425 251.512 609.425 244.324V193.204H619.974V244.209C619.974 250.932 618.621 256.612 615.917 261.249C613.212 265.808 609.541 269.209 604.904 271.45C600.345 273.691 595.205 274.811 589.487 274.811C583.768 274.811 578.59 273.691 573.953 271.45C569.394 269.209 565.762 265.808 563.057 261.249C560.429 256.612 559.116 250.932 559.116 244.209V193.204H569.664ZM702.37 289.301L686.257 273.189C682.316 274.27 678.297 274.811 674.202 274.811C666.705 274.811 659.866 273.073 653.684 269.595C647.501 266.04 642.594 261.133 638.962 254.873C635.407 248.536 633.63 241.426 633.63 233.544C633.63 225.661 635.407 218.59 638.962 212.331C642.594 205.994 647.501 201.086 653.684 197.609C659.866 194.054 666.705 192.276 674.202 192.276C681.775 192.276 688.653 194.054 694.835 197.609C701.018 201.086 705.886 205.955 709.441 212.215C712.996 218.474 714.774 225.584 714.774 233.544C714.774 241.272 713.073 248.227 709.673 254.41C706.273 260.592 701.597 265.461 695.647 269.015L716.049 289.301H702.37ZM644.41 233.544C644.41 239.958 645.685 245.6 648.236 250.468C650.863 255.337 654.418 259.085 658.9 261.712C663.46 264.34 668.56 265.654 674.202 265.654C679.843 265.654 684.905 264.34 689.387 261.712C693.947 259.085 697.502 255.337 700.052 250.468C702.679 245.6 703.993 239.958 703.993 233.544C703.993 227.052 702.679 221.411 700.052 216.62C697.502 211.751 693.985 208.003 689.503 205.375C685.021 202.748 679.92 201.434 674.202 201.434C668.483 201.434 663.382 202.748 658.9 205.375C654.418 208.003 650.863 211.751 648.236 216.62C645.685 221.411 644.41 227.052 644.41 233.544Z" fill="url(#paint0_linear_685_715)"/>
<defs>
<linearGradient id="paint0_linear_685_715" x1="436.789" y1="259.74" x2="697.291" y2="256.311" gradientUnits="userSpaceOnUse">
<stop/>
<stop offset="1" stop-opacity="0.34"/>
</linearGradient>
</defs>
</svg>
