<svg width="82" height="29" viewBox="0 0 82 29" fill="none" xmlns="http://www.w3.org/2000/svg">
<rect width="82" height="29" rx="3" fill="white"/>
<path d="M31.6733 8.45044H34.3165L38.8109 16.5805L43.3054 8.45045H45.8913V21.8097H43.7348V11.5708L39.7939 18.6608H37.7707L33.8298 11.5708V21.8097H31.6733V8.45044Z" fill="#1C2B33"/>
<path d="M52.8473 22.05C51.8486 22.05 50.9707 21.8289 50.2138 21.3867C49.4566 20.9446 48.8666 20.3323 48.4436 19.5499C48.0206 18.7674 47.8089 17.8704 47.8091 16.8589C47.8091 15.8348 48.0158 14.9282 48.4293 14.1393C48.8428 13.3506 49.4169 12.7335 50.1517 12.2881C50.8864 11.8429 51.731 11.6202 52.6852 11.6201C53.6331 11.6201 54.4489 11.8444 55.1328 12.2928C55.8165 12.7414 56.3429 13.3696 56.712 14.1775C57.0809 14.9855 57.2654 15.9333 57.2655 17.0211V17.6127H49.9465C50.0802 18.4271 50.4094 19.068 50.9342 19.5355C51.459 20.0031 52.1221 20.2369 52.9238 20.2368C53.5663 20.2368 54.1197 20.1414 54.5842 19.9505C55.0484 19.7597 55.4842 19.4703 55.8914 19.0822L57.0366 20.4849C55.8977 21.5284 54.5013 22.05 52.8473 22.05ZM54.4219 14.125C53.9701 13.6638 53.3785 13.4332 52.647 13.4331C51.9345 13.4331 51.3381 13.6685 50.8579 14.1393C50.3775 14.6101 50.0737 15.2431 49.9465 16.0383H55.1949C55.1311 15.2239 54.8735 14.5862 54.4219 14.125Z" fill="#1C2B33"/>
<path d="M59.8798 13.6245H57.895V11.8591H59.8798V8.93921H61.96V11.8591H64.9754V13.6245H61.96V18.0998C61.96 18.844 62.0873 19.3752 62.3417 19.6933C62.596 20.0115 63.0318 20.1706 63.649 20.1704C63.9224 20.1704 64.1546 20.1593 64.3457 20.1371C64.5365 20.1149 64.7464 20.0846 64.9754 20.0464V21.7926C64.714 21.8682 64.4478 21.9257 64.1786 21.9644C63.8705 22.0098 63.5595 22.0321 63.2482 22.0312C61.0026 22.0312 59.8797 20.8034 59.8798 18.3479V13.6245Z" fill="#1C2B33"/>
<path d="M75.816 21.8113H73.7738V20.4182C73.4112 20.9399 72.9501 21.3422 72.3902 21.6252C71.8304 21.9082 71.1942 22.0498 70.4818 22.05C69.6039 22.05 68.8262 21.8257 68.1486 21.3771C67.4711 20.9287 66.9384 20.3116 66.5503 19.526C66.1623 18.7403 65.9683 17.8417 65.9683 16.8303C65.9683 15.8125 66.1655 14.9123 66.5598 14.1297C66.9543 13.3473 67.4997 12.7334 68.1964 12.2881C68.893 11.8429 69.693 11.6202 70.5963 11.6201C71.2769 11.6201 71.8876 11.7521 72.4284 12.0162C72.9618 12.2742 73.4238 12.6592 73.7738 13.1374V11.8587H75.816V21.8113ZM73.7357 15.3417C73.513 14.7755 73.1614 14.3286 72.6813 14.0009C72.2008 13.6733 71.6458 13.5095 71.0162 13.5095C70.1255 13.5095 69.416 13.8085 68.8882 14.4065C68.3601 15.0045 68.0961 15.8124 68.0962 16.8303C68.0962 17.8546 68.3506 18.6657 68.8596 19.2636C69.3684 19.8616 70.0586 20.1606 70.9303 20.1605C71.5726 20.1605 72.1452 19.9951 72.6479 19.6643C73.1503 19.3336 73.513 18.8883 73.7357 18.3284V15.3417Z" fill="#1C2B33"/>
<path d="M12.1522 8C12.1454 8 12.1386 8.00002 12.1318 8.00006L12.104 10.2972C12.1104 10.2972 12.1167 10.2971 12.1231 10.2971C13.6351 10.2971 14.8079 11.4893 17.357 15.783L17.5124 16.0444L17.5226 16.0615L18.9496 13.9205L18.9397 13.904C18.6039 13.3578 18.2812 12.8552 17.9718 12.3964C17.613 11.8647 17.2698 11.3898 16.9368 10.9657C15.2505 8.81859 13.8399 8 12.1522 8Z" fill="url(#paint0_linear_378_297)"/>
<path d="M12.1325 8.00006C10.4366 8.00878 8.93732 9.1054 7.85472 10.7835C7.85155 10.7884 7.84837 10.7933 7.84521 10.7982L9.83245 11.8798C9.83568 11.8749 9.83891 11.8701 9.84215 11.8652C10.4743 10.9134 11.261 10.3063 12.1047 10.2972C12.111 10.2972 12.1174 10.2971 12.1237 10.2971L12.1528 8C12.146 8 12.1392 8.00002 12.1325 8.00006Z" fill="url(#paint1_linear_378_297)"/>
<path d="M7.85402 10.7847C7.85086 10.7896 7.84769 10.7945 7.84452 10.7994C7.13313 11.9068 6.60281 13.2657 6.31621 14.7317C6.31497 14.7381 6.31373 14.7444 6.3125 14.7508L8.54508 15.2776C8.54625 15.2712 8.54742 15.2648 8.5486 15.2585C8.78724 13.9701 9.24157 12.7752 9.83175 11.8811C9.83497 11.8762 9.83821 11.8713 9.84145 11.8664L7.85402 10.7847Z" fill="url(#paint2_linear_378_297)"/>
<path d="M8.54877 15.2594L6.31638 14.7327C6.31514 14.739 6.3139 14.7454 6.31267 14.7517C6.15639 15.558 6.07688 16.3772 6.07521 17.1985C6.0752 17.2051 6.07519 17.2117 6.0752 17.2184L8.3648 17.4232C8.36462 17.4165 8.36443 17.4099 8.36427 17.4033C8.36314 17.3556 8.36257 17.3074 8.36255 17.2584C8.3637 16.5943 8.42484 15.9316 8.54525 15.2785C8.54641 15.2721 8.54759 15.2658 8.54877 15.2594Z" fill="url(#paint3_linear_378_297)"/>
<path d="M8.43443 18.1344C8.39336 17.8984 8.37009 17.6596 8.3648 17.4201C8.36462 17.4134 8.36443 17.4068 8.36427 17.4001L6.07521 17.1953C6.0752 17.202 6.07519 17.2086 6.0752 17.2152C6.0752 17.7264 6.11782 18.2062 6.20066 18.6483C6.20186 18.6547 6.20303 18.661 6.20425 18.6673L8.4379 18.1535C8.43672 18.1472 8.43558 18.1408 8.43443 18.1344Z" fill="url(#paint4_linear_378_297)"/>
<path d="M8.95609 19.3222C8.70695 19.0503 8.53063 18.658 8.43793 18.1563C8.43675 18.15 8.43562 18.1436 8.43447 18.1372L6.20068 18.6511C6.20188 18.6575 6.20306 18.6638 6.20427 18.6702C6.37311 19.5566 6.70423 20.2954 7.17842 20.8543C7.18264 20.8592 7.18687 20.8642 7.19112 20.8692L8.96941 19.3366C8.96497 19.3318 8.9605 19.327 8.95609 19.3222Z" fill="url(#paint5_linear_378_297)"/>
<path d="M15.5737 12.9661C14.2276 15.0307 13.4121 16.3257 13.4121 16.3257C11.619 19.1365 10.9987 19.7665 10.0004 19.7665C9.58383 19.7665 9.23582 19.6182 8.96921 19.3347C8.96477 19.3299 8.96031 19.3252 8.9559 19.3204L7.17822 20.8524C7.18244 20.8574 7.18667 20.8623 7.19092 20.8673C7.84566 21.6305 8.76985 22.054 9.91318 22.054C11.6429 22.054 12.887 21.2385 15.0986 17.3725C15.0986 17.3725 16.0206 15.7445 16.6548 14.623C16.2619 13.9887 15.9044 13.4395 15.5737 12.9661Z" fill="#0082FB"/>
<path d="M17.973 9.70898C17.9684 9.71381 17.9638 9.71873 17.9593 9.72356C17.6058 10.1002 17.2666 10.5208 16.9365 10.967C17.2696 11.3911 17.6134 11.8669 17.9722 12.3986C18.3951 11.7458 18.7899 11.2171 19.1768 10.8119C19.1814 10.8071 19.1859 10.8025 19.1905 10.7977L17.973 9.70898Z" fill="url(#paint6_linear_378_297)"/>
<path d="M24.5082 9.50487C23.5694 8.55648 22.4502 8 21.2536 8C19.9918 8 18.9305 8.69144 17.9732 9.70726C17.9686 9.71207 17.964 9.71699 17.9595 9.72183L19.177 10.8102C19.1816 10.8054 19.1861 10.8007 19.1907 10.796C19.8213 10.14 20.4317 9.81248 21.1082 9.81248C21.8365 9.81248 22.5181 10.1553 23.1084 10.7562C23.113 10.7609 23.1177 10.7656 23.1223 10.7703L24.5222 9.51899C24.5176 9.51425 24.5128 9.50958 24.5082 9.50487Z" fill="#0082FB"/>
<path d="M27.2225 16.8935C27.1699 13.8484 26.1043 11.1261 24.5227 9.51851C24.5179 9.51377 24.5133 9.50911 24.5086 9.50439L23.1089 10.7557C23.1135 10.7605 23.1181 10.7651 23.1227 10.7699C24.3126 11.9921 25.1288 14.2656 25.203 16.8929C25.2031 16.8995 25.2033 16.9061 25.2036 16.9127L27.2228 16.9133C27.2228 16.9067 27.2226 16.9001 27.2225 16.8935Z" fill="url(#paint7_linear_378_297)"/>
<path d="M27.2227 16.9153C27.2227 16.9087 27.2225 16.902 27.2224 16.8954L25.2029 16.8948C25.2031 16.9014 25.2032 16.908 25.2035 16.9146C25.2067 17.0379 25.2084 17.162 25.2084 17.2868C25.2084 18.0031 25.1015 18.5822 24.8838 19.0002C24.8806 19.0064 24.8772 19.0126 24.874 19.0188L26.3796 20.5847C26.3834 20.579 26.3871 20.5734 26.3908 20.5677C26.9374 19.7242 27.2244 18.5526 27.2244 17.1317C27.2244 17.0594 27.2238 16.9872 27.2227 16.9153Z" fill="url(#paint8_linear_378_297)"/>
<path d="M24.8836 18.9971C24.8804 19.0033 24.877 19.0095 24.8738 19.0156C24.6855 19.368 24.4167 19.603 24.0654 19.7058L24.7518 21.869C24.8426 21.8382 24.9311 21.8035 25.0172 21.7651C25.0429 21.7536 25.0685 21.7418 25.0938 21.7297C25.1084 21.7227 25.1229 21.7156 25.1373 21.7085C25.5912 21.4822 25.9747 21.1486 26.2849 20.7187C26.3039 20.6925 26.3227 20.666 26.341 20.6391C26.354 20.6201 26.3668 20.6009 26.3794 20.5816C26.3832 20.5759 26.3868 20.5702 26.3906 20.5645L24.8836 18.9971Z" fill="url(#paint9_linear_378_297)"/>
<path d="M23.6278 19.7644C23.3977 19.7644 23.1946 19.7302 22.9958 19.6414L22.293 21.8561C22.688 21.991 23.1095 22.0518 23.5794 22.0518C24.0123 22.0518 24.4097 21.9871 24.7701 21.8621L24.0839 19.6997C23.936 19.744 23.7822 19.7658 23.6278 19.7644Z" fill="url(#paint10_linear_378_297)"/>
<path d="M22.2216 19.0095C22.2173 19.0045 22.213 18.9995 22.2085 18.9944L20.5913 20.6763C20.5959 20.6811 20.6004 20.6859 20.6049 20.6908C21.1668 21.2896 21.7034 21.6611 22.3119 21.8649L23.0142 19.6519C22.7578 19.5417 22.5097 19.3421 22.2216 19.0095Z" fill="url(#paint11_linear_378_297)"/>
<path d="M22.2089 18.9927C21.7238 18.4286 21.1237 17.4894 20.1799 15.9706L18.9498 13.9191L18.9399 13.9026L17.5127 16.043L17.5229 16.0602L18.3944 17.5263C19.2393 18.9401 19.9275 19.9629 20.5917 20.6746C20.5963 20.6794 20.6008 20.6843 20.6053 20.6891L22.2219 19.0078C22.2176 19.0028 22.2132 18.9978 22.2089 18.9927Z" fill="url(#paint12_linear_378_297)"/>
<defs>
<linearGradient id="paint0_linear_378_297" x1="18.0011" y1="15.1908" x2="13.2635" y2="8.98299" gradientUnits="userSpaceOnUse">
<stop offset="0.0006" stop-color="#0867DF"/>
<stop offset="0.4539" stop-color="#0668E1"/>
<stop offset="0.8591" stop-color="#0064E0"/>
</linearGradient>
<linearGradient id="paint1_linear_378_297" x1="8.77866" y1="11.1694" x2="12.0265" y2="8.70367" gradientUnits="userSpaceOnUse">
<stop offset="0.1323" stop-color="#0064DF"/>
<stop offset="0.9988" stop-color="#0064E0"/>
</linearGradient>
<linearGradient id="paint2_linear_378_297" x1="7.40132" y1="14.7891" x2="8.70416" y2="11.5094" gradientUnits="userSpaceOnUse">
<stop offset="0.0147" stop-color="#0072EC"/>
<stop offset="0.6881" stop-color="#0064DF"/>
</linearGradient>
<linearGradient id="paint3_linear_378_297" x1="7.22456" y1="17.1593" x2="7.37531" y2="15.1563" gradientUnits="userSpaceOnUse">
<stop offset="0.0731" stop-color="#007CF6"/>
<stop offset="0.9943" stop-color="#0072EC"/>
</linearGradient>
<linearGradient id="paint4_linear_378_297" x1="7.30746" y1="18.2441" x2="7.19963" y2="17.4416" gradientUnits="userSpaceOnUse">
<stop offset="0.0731" stop-color="#007FF9"/>
<stop offset="1" stop-color="#007CF6"/>
</linearGradient>
<linearGradient id="paint5_linear_378_297" x1="7.24419" y1="18.4577" x2="7.91621" y2="19.883" gradientUnits="userSpaceOnUse">
<stop offset="0.0731" stop-color="#007FF9"/>
<stop offset="1" stop-color="#0082FB"/>
</linearGradient>
<linearGradient id="paint6_linear_378_297" x1="17.5728" y1="11.561" x2="18.4612" y2="10.3323" gradientUnits="userSpaceOnUse">
<stop offset="0.2799" stop-color="#007FF8"/>
<stop offset="0.9141" stop-color="#0082FB"/>
</linearGradient>
<linearGradient id="paint7_linear_378_297" x1="24.3281" y1="9.96633" x2="26.1867" y2="16.8033" gradientUnits="userSpaceOnUse">
<stop stop-color="#0082FB"/>
<stop offset="0.9995" stop-color="#0081FA"/>
</linearGradient>
<linearGradient id="paint8_linear_378_297" x1="26.6355" y1="17.0668" x2="25.4592" y2="19.4437" gradientUnits="userSpaceOnUse">
<stop offset="0.0619" stop-color="#0081FA"/>
<stop offset="1" stop-color="#0080F9"/>
</linearGradient>
<linearGradient id="paint9_linear_378_297" x1="24.5241" y1="20.7007" x2="25.6236" y2="19.9518" gradientUnits="userSpaceOnUse">
<stop stop-color="#027AF3"/>
<stop offset="1" stop-color="#0080F9"/>
</linearGradient>
<linearGradient id="paint10_linear_378_297" x1="22.7991" y1="20.8466" x2="24.327" y2="20.8466" gradientUnits="userSpaceOnUse">
<stop stop-color="#0377EF"/>
<stop offset="0.9994" stop-color="#0279F1"/>
</linearGradient>
<linearGradient id="paint11_linear_378_297" x1="21.4708" y1="20.0076" x2="22.5693" y2="20.6539" gradientUnits="userSpaceOnUse">
<stop offset="0.0019" stop-color="#0471E9"/>
<stop offset="1" stop-color="#0377EF"/>
</linearGradient>
<linearGradient id="paint12_linear_378_297" x1="18.1205" y1="15.2408" x2="21.6393" y2="19.6649" gradientUnits="userSpaceOnUse">
<stop offset="0.2765" stop-color="#0867DF"/>
<stop offset="1" stop-color="#0471E9"/>
</linearGradient>
</defs>
</svg>
