<svg width="431" height="312" viewBox="0 0 431 312" fill="none" xmlns="http://www.w3.org/2000/svg">
<rect x="143" y="83" width="145" height="145" rx="18" fill="url(#paint0_linear_636_310)"/>
<rect x="143.5" y="83.5" width="144" height="144" rx="17.5" stroke="#5865F2" stroke-opacity="0.25"/>
<path d="M211.953 146.179C211.8 146.304 211.708 147.303 211.708 148.395V149.394H216.822C221.753 149.394 222.446 150.612 222.446 152.235C222.446 153.92 221.477 154.962 215.658 154.869H209.263V153.308C209.11 152.59 209.564 152.391 207.512 152.297C205.889 152.235 205.307 152.328 205.184 152.64C205.092 152.859 205.092 155.98 205.184 159.539L205.368 166L213.515 165.906C221.233 165.813 221.723 165.782 222.917 165.126C225.337 163.815 226.378 161.817 226.01 159.102C225.919 158.415 225.582 157.479 225.214 156.979C224.632 156.136 224.632 156.012 225.061 155.637C226.531 154.388 226.324 151.882 225.252 149.666C224.67 148.542 223.493 147.783 222.054 147.065C220.369 146.191 219.505 146.149 215.125 146.024C212.553 145.962 212.075 146.023 211.953 146.179ZM221.521 158.51C222.317 159.228 221.968 160.85 221.08 161.443C220.498 161.849 219.383 162.735 215.125 162.672H209.263V160.071C209.11 157.761 209.809 157.47 215.658 157.47C220.13 157.47 221.031 158.073 221.521 158.51Z" fill="white" fill-opacity="0.2"/>
<path d="M205.093 146.741C205.001 146.96 204.971 147.834 205.032 148.676L205.093 149.666L206.599 149.666L208.731 149.666V148.105V146.304H207.574C205.889 146.304 205.216 146.429 205.093 146.741Z" fill="white" fill-opacity="0.2"/>
<path fill-rule="evenodd" clip-rule="evenodd" d="M392.252 3.33477C398.135 1.65359 405.759 1.11198 412.901 1.01637C418.102 0.946733 423.013 1.11327 426.786 1.24125C428.193 1.28895 429.442 1.33129 430.488 1.35405L430.51 0.354285C429.48 0.3319 428.244 0.289962 426.846 0.242558C423.069 0.114471 418.114 -0.053525 412.888 0.0164558C405.728 0.112309 397.994 0.653953 391.977 2.37325C379.824 5.84596 373.336 17.1152 371.143 23.6869L333.147 124.178L333.142 124.19L333.138 124.202C329.167 136.611 322.828 144.664 315.106 149.439C309.773 152.737 303.756 154.487 297.358 155.01C294.445 154.764 291.469 154.77 288.461 155.001L288.499 155.5L288.461 155.999C291.476 156.231 294.451 156.246 297.355 156.013C303.796 156.569 309.89 158.385 315.297 161.755C323.118 166.629 329.553 174.783 333.523 187.189L333.527 187.201L333.531 187.212L371.143 287.704C373.336 294.275 379.824 305.545 391.977 309.018C397.994 310.737 405.757 311.279 412.945 311.375C418.199 311.445 423.179 311.276 426.967 311.148H426.968L426.981 311.148C428.372 311.101 429.602 311.059 430.625 311.037L430.603 310.037C429.56 310.06 428.314 310.102 426.909 310.15C423.123 310.278 418.186 310.445 412.958 310.375C405.788 310.279 398.135 309.738 392.252 308.057C380.552 304.713 374.232 293.808 372.089 287.379L372.086 287.37L372.083 287.362L334.472 186.873C330.442 174.287 323.878 165.925 315.826 160.907C311.388 158.141 306.512 156.4 301.383 155.521C306.455 154.678 311.261 152.993 315.632 150.29C323.59 145.369 330.057 137.103 334.087 124.519L372.082 24.0312L372.085 24.0219L372.089 24.0125C374.232 17.5829 380.552 6.67791 392.252 3.33477Z" fill="#5865F2" fill-opacity="0.2"/>
<path fill-rule="evenodd" clip-rule="evenodd" d="M17.6667 1.01637C24.8373 1.11199 32.4903 1.65363 38.3735 3.33477C50.0729 6.67791 56.3933 17.5829 58.5365 24.0125L58.5397 24.0219L58.5432 24.0312L96.5386 124.519C100.569 137.107 107.134 145.336 115.189 150.219C119.733 152.974 124.733 154.654 129.994 155.46C124.73 156.317 119.728 158.075 115.184 160.907C107.132 165.925 100.569 174.286 96.5386 186.872L58.5432 287.36L58.5397 287.369L58.5365 287.379C56.3933 293.808 50.0729 304.713 38.3735 308.057C32.4903 309.738 24.8373 310.279 17.6667 310.375C12.4392 310.445 7.50217 310.278 3.71711 310.15H3.71683H3.71663C2.31155 310.102 1.06523 310.06 0.0217285 310.037L0 311.037C1.02016 311.059 2.24555 311.101 3.63107 311.147L3.64384 311.148L3.65756 311.148H3.65795H3.65849C7.44697 311.276 12.4268 311.445 17.68 311.375C24.8678 311.279 32.6314 310.737 38.6482 309.018C50.801 305.545 57.2889 294.276 59.4821 287.704L97.4785 187.214L97.4831 187.202L97.4871 187.189C101.457 174.783 107.892 166.629 115.713 161.755C121.38 158.224 127.8 156.398 134.584 155.942C136.84 156.076 139.132 156.066 141.445 155.928C141.787 155.949 142.13 155.972 142.473 155.999L142.483 155.858L142.549 155.853L142.516 155.427L142.549 155.001L142.483 154.996L142.473 154.856C142.129 154.882 141.787 154.906 141.445 154.927C139.13 154.791 136.837 154.791 134.58 154.94C127.794 154.53 121.374 152.8 115.708 149.364C107.89 144.624 101.457 136.607 97.4871 124.202L97.4831 124.19L97.4785 124.178L59.4821 23.6869C57.2889 17.1152 50.801 5.84596 38.6482 2.37326C32.6314 0.65392 24.8678 0.112307 17.68 0.0164564C12.4264 -0.0536028 7.44615 0.114841 3.65756 0.24298C2.26117 0.29021 1.02666 0.331964 0 0.354283L0.0217285 1.35405C1.06523 1.33136 2.31155 1.28921 3.71663 1.24168C7.50175 1.11365 12.439 0.946654 17.6667 1.01637ZM34.012 156.01H106V155.01H34.012V156.01ZM323.5 156.812H395V155.812H323.5V156.812Z" fill="#5865F2" fill-opacity="0.2"/>
<defs>
<linearGradient id="paint0_linear_636_310" x1="288" y1="228" x2="110.332" y2="150.723" gradientUnits="userSpaceOnUse">
<stop stop-color="#5865F2" stop-opacity="0.12"/>
<stop offset="0.277709" stop-color="#5865F2" stop-opacity="0.0424926"/>
<stop offset="0.615421" stop-color="#5865F2" stop-opacity="0"/>
<stop offset="0.965441" stop-color="#5865F2" stop-opacity="0.1"/>
</linearGradient>
</defs>
</svg>
